<svg xmlns="http://www.w3.org/2000/svg" xmlns:xlink="http://www.w3.org/1999/xlink" width="1000" zoomAndPan="magnify" viewBox="0 0 750 749.999995" height="1000" preserveAspectRatio="xMidYMid meet" version="1.0"><path fill="#004aad" d="M 743.667969 190.6875 C 740.925781 186.722656 737.386719 183.863281 733.253906 181.554688 C 713.601562 170.570312 693.949219 159.585938 674.296875 148.601562 C 651.429688 135.820312 628.5625 123.039062 605.691406 110.257812 C 596.632812 105.191406 587.433594 99.613281 576.8125 105.375 C 566.253906 111.105469 563.285156 123.445312 565.71875 134.449219 C 566.894531 139.757812 568.15625 145.046875 569.375 150.34375 C 570.957031 157.222656 572.539062 164.101562 574.117188 170.980469 C 574.527344 172.753906 574.957031 174.527344 575.34375 176.304688 C 575.367188 176.421875 575.398438 176.539062 575.421875 176.65625 C 575.453125 176.800781 575.542969 177.210938 575.597656 177.5 C 575.574219 177.640625 575.542969 177.808594 575.484375 178.023438 C 575.4375 178.203125 575.320312 178.828125 575.296875 179.03125 C 575.210938 179.34375 575.136719 179.65625 575.039062 179.96875 C 575.019531 179.988281 575.003906 180.003906 574.984375 180.011719 C 574.984375 180.011719 574.980469 180.011719 574.980469 180.011719 C 574.980469 180.011719 574.980469 180.007812 574.980469 180.007812 C 574.980469 180.007812 574.980469 180.011719 574.976562 180.011719 C 574.621094 180.023438 574.273438 180.285156 574.78125 180.207031 C 574.769531 180.21875 574.757812 180.230469 574.746094 180.242188 C 574.589844 180.285156 574.472656 180.316406 574.429688 180.324219 C 574.367188 180.332031 574.304688 180.351562 574.242188 180.363281 C 573.933594 180.429688 573.625 180.503906 573.320312 180.578125 C 571.980469 180.894531 570.640625 181.191406 569.304688 181.5 C 555.566406 184.660156 541.828125 187.816406 528.089844 190.976562 C 504.546875 196.390625 481.003906 201.800781 457.460938 207.214844 C 428.550781 213.859375 399.644531 220.507812 370.734375 227.152344 C 341.285156 233.921875 311.835938 240.691406 282.390625 247.460938 C 256.796875 253.347656 231.203125 259.230469 205.609375 265.113281 C 188.671875 269.007812 171.730469 272.902344 154.792969 276.796875 C 150.945312 277.679688 147.097656 278.566406 143.25 279.449219 C 129.65625 282.574219 122.933594 295.910156 125.5 309.167969 C 127.191406 317.910156 132.925781 322.980469 139.171875 328.316406 C 146.085938 334.226562 153 340.132812 159.914062 346.039062 C 181.683594 364.632812 203.449219 383.230469 225.21875 401.824219 C 244.519531 418.3125 263.816406 434.800781 283.117188 451.285156 C 286.835938 454.464844 290.632812 457.574219 294.285156 460.828125 C 294.441406 460.96875 294.59375 461.09375 294.75 461.238281 C 295.453125 461.898438 296.585938 463.714844 295.566406 461.953125 C 295.835938 462.421875 296.125 462.929688 296.417969 463.390625 C 296.457031 463.449219 296.484375 463.488281 296.515625 463.535156 C 296.527344 463.625 296.542969 463.730469 296.5625 463.859375 C 296.609375 464.117188 296.695312 464.660156 296.824219 464.945312 C 296.8125 465.359375 296.808594 466 296.816406 466.492188 C 296.734375 466.789062 296.625 467.28125 296.546875 467.691406 C 296.652344 467.234375 296.777344 467.070312 296.839844 467.09375 C 296.851562 467.164062 296.859375 467.183594 296.875 467.121094 C 296.90625 467.214844 296.855469 467.460938 296.652344 467.785156 C 296.597656 467.871094 296.542969 467.945312 296.488281 468.023438 C 296.492188 467.992188 296.496094 467.960938 296.5 467.933594 C 296.496094 467.964844 296.488281 467.996094 296.484375 468.027344 C 296.351562 468.214844 296.226562 468.371094 296.113281 468.492188 C 295.308594 468.625 294.574219 468.777344 295.84375 468.621094 C 295.777344 468.628906 295.714844 468.652344 295.652344 468.664062 C 295.230469 468.738281 294.8125 468.859375 294.398438 468.953125 C 279.507812 472.378906 264.621094 475.800781 249.730469 479.222656 C 222.222656 485.546875 194.714844 491.871094 167.207031 498.195312 C 138.542969 504.785156 109.875 511.375 81.210938 517.964844 C 62.867188 522.179688 44.523438 526.398438 26.179688 530.617188 C 18.410156 532.402344 11.480469 534.574219 6.9375 542.199219 C 0.0507812 553.753906 5.667969 568.363281 8.441406 580.429688 C 11.496094 593.714844 14.550781 607 17.605469 620.285156 C 18.320312 623.382812 18.960938 626.507812 19.746094 629.585938 C 22.910156 642.003906 33.621094 650.375 46.230469 649.019531 C 46.867188 648.980469 47.511719 648.894531 48.148438 648.746094 C 55.394531 647.082031 62.640625 645.414062 69.886719 643.75 C 88.824219 639.398438 107.761719 635.042969 126.699219 630.6875 C 153.011719 624.640625 179.328125 618.589844 205.640625 612.539062 C 235.347656 605.710938 265.058594 598.882812 294.765625 592.050781 C 323.46875 585.453125 352.175781 578.851562 380.878906 572.253906 C 404.613281 566.796875 428.347656 561.339844 452.082031 555.882812 C 466.5 552.570312 480.914062 549.257812 495.328125 545.941406 C 497.78125 545.378906 500.269531 544.886719 502.703125 544.246094 C 522.144531 539.136719 524.582031 512.875 510.964844 500.40625 C 499.160156 489.59375 486.886719 479.257812 474.859375 468.695312 C 452.605469 449.152344 430.347656 429.605469 408.089844 410.058594 C 391.34375 395.351562 374.597656 380.644531 357.855469 365.9375 C 356.414062 364.675781 354.964844 363.421875 353.535156 362.144531 C 353.25 361.890625 352.722656 361.382812 352.355469 361.046875 C 352.199219 360.714844 351.648438 359.859375 351.355469 359.484375 C 351.1875 358.957031 350.914062 358.175781 350.820312 357.867188 C 350.8125 357.445312 350.804688 357 350.773438 356.59375 C 350.769531 356.5 350.761719 356.421875 350.753906 356.34375 C 350.847656 355.945312 350.945312 355.542969 351.035156 355.136719 C 351.0625 355.019531 351.144531 354.8125 351.222656 354.617188 C 351.222656 354.617188 351.222656 354.617188 351.21875 354.621094 C 351.222656 354.617188 351.222656 354.613281 351.226562 354.609375 C 351.242188 354.566406 351.261719 354.523438 351.277344 354.480469 C 351.300781 354.457031 351.328125 354.429688 351.351562 354.40625 C 351.371094 354.375 351.390625 354.347656 351.410156 354.320312 C 351.417969 354.316406 351.425781 354.3125 351.433594 354.304688 C 351.441406 354.304688 351.453125 354.300781 351.460938 354.296875 C 351.476562 354.285156 351.492188 354.269531 351.507812 354.257812 C 351.515625 354.25 351.53125 354.238281 351.542969 354.234375 C 351.550781 354.226562 351.558594 354.222656 351.566406 354.21875 C 351.546875 354.238281 351.527344 354.261719 351.507812 354.285156 C 351.632812 354.25 351.761719 354.21875 351.859375 354.203125 C 352.195312 354.144531 352.527344 354.050781 352.855469 353.972656 C 354.753906 353.523438 356.65625 353.097656 358.558594 352.660156 C 378.546875 348.066406 398.539062 343.46875 418.53125 338.875 C 447.800781 332.144531 477.066406 325.417969 506.332031 318.6875 C 530.453125 313.144531 554.570312 307.597656 578.6875 302.054688 C 584.3125 300.761719 589.9375 299.46875 595.558594 298.175781 C 595.835938 298.113281 596.109375 298.050781 596.386719 297.984375 C 596.390625 297.988281 596.390625 297.988281 596.394531 297.988281 C 596.695312 298.199219 597.0625 298.460938 597.171875 298.503906 C 597.335938 298.667969 597.507812 298.828125 597.667969 299 C 597.75 299.128906 597.851562 299.289062 597.980469 299.492188 C 598.082031 299.648438 598.34375 300.214844 598.433594 300.378906 C 598.527344 300.675781 598.609375 300.976562 598.691406 301.273438 C 598.820312 301.753906 598.925781 302.234375 599.039062 302.71875 C 599.535156 304.820312 600.007812 306.929688 600.492188 309.035156 C 603.203125 320.832031 605.699219 332.699219 608.632812 344.445312 C 611.3125 355.179688 620.527344 364.609375 632.160156 364.410156 C 640.160156 364.269531 646 359.847656 650.46875 353.59375 C 662.375 336.925781 674.039062 320.078125 685.824219 303.328125 C 701.894531 280.480469 717.960938 257.636719 734.03125 234.792969 C 737.410156 229.988281 740.933594 225.253906 744.183594 220.359375 C 749.945312 211.675781 749.578125 199.222656 743.667969 190.6875 Z M 587.421875 124.160156 C 587.371094 124.1875 587.320312 124.210938 587.253906 124.25 C 587.558594 123.835938 588.652344 123.277344 587.421875 124.160156 Z M 574.929688 180.179688 C 575.035156 180.15625 575.15625 180.125 575.3125 180.078125 C 577.3125 179.480469 575.78125 179.945312 574.910156 180.191406 C 574.917969 180.1875 574.921875 180.183594 574.929688 180.179688 Z M 575.609375 177.417969 C 575.585938 176.941406 575.671875 176.964844 575.609375 177.417969 Z M 575.042969 179.960938 C 575.445312 178.710938 575.257812 179.699219 575.042969 179.960938 Z M 147.726562 300.394531 C 147.625 300.433594 147.515625 300.472656 147.40625 300.503906 C 147.664062 300.296875 147.792969 300.289062 147.726562 300.394531 Z M 147.316406 300.53125 C 147.308594 300.535156 147.300781 300.535156 147.292969 300.539062 C 147.355469 300.425781 147.429688 300.308594 147.476562 300.207031 C 147.417969 300.335938 147.367188 300.429688 147.316406 300.53125 Z M 146.503906 301.972656 C 146.5 301.988281 146.5 302.015625 146.496094 302.042969 C 146.496094 302.019531 146.5 302 146.503906 301.972656 Z M 296.6875 468.023438 C 296.597656 468.09375 296.523438 468.183594 296.445312 468.269531 C 296.449219 468.25 296.453125 468.238281 296.453125 468.21875 C 296.53125 468.152344 296.59375 468.097656 296.6875 468.023438 Z M 296.453125 468.21875 C 296.449219 468.234375 296.449219 468.253906 296.445312 468.269531 C 296.414062 468.304688 296.382812 468.332031 296.351562 468.363281 C 296.617188 468.140625 296.769531 468.035156 296.386719 468.433594 C 296.378906 468.441406 296.371094 468.445312 296.363281 468.453125 C 296.324219 468.457031 296.289062 468.464844 296.25 468.472656 C 296.203125 468.527344 296.148438 468.578125 296.09375 468.628906 C 296.0625 468.644531 296.03125 468.660156 296 468.671875 C 296.074219 468.605469 296.152344 468.539062 296.226562 468.472656 C 296.195312 468.476562 296.164062 468.484375 296.132812 468.488281 C 296.214844 468.417969 296.328125 468.324219 296.453125 468.21875 Z M 296.042969 468.683594 C 296.003906 468.722656 295.972656 468.765625 295.929688 468.800781 C 295.441406 469.199219 295.660156 468.984375 295.972656 468.699219 C 295.984375 468.695312 295.992188 468.695312 296.003906 468.691406 C 296.019531 468.6875 296.027344 468.6875 296.042969 468.683594 Z M 295.878906 468.71875 C 295.914062 468.6875 295.96875 468.636719 296.042969 468.570312 C 295.984375 468.632812 295.9375 468.679688 295.898438 468.714844 C 295.898438 468.714844 295.894531 468.714844 295.894531 468.714844 C 295.894531 468.714844 295.898438 468.714844 295.898438 468.714844 C 295.824219 468.785156 295.808594 468.789062 295.875 468.722656 C 295.4375 468.886719 295.058594 468.910156 295.878906 468.71875 Z M 25.53125 552.941406 C 25.503906 552.984375 25.488281 553.015625 25.488281 553.035156 C 25.488281 553.035156 25.480469 553.039062 25.480469 553.042969 C 25.257812 553.082031 25.164062 553.046875 25.53125 552.941406 Z M 25.058594 555.976562 C 25.027344 555.453125 25.042969 554.96875 25.058594 555.976562 Z M 43.304688 627.761719 C 43.246094 627.769531 43.1875 627.78125 43.125 627.789062 C 43.117188 627.777344 43.109375 627.769531 43.101562 627.761719 C 43.148438 627.75 43.195312 627.742188 43.238281 627.734375 C 43.261719 627.742188 43.285156 627.75 43.304688 627.761719 Z M 42.605469 627.757812 C 42.65625 627.738281 42.707031 627.726562 42.753906 627.71875 C 42.757812 627.71875 42.757812 627.722656 42.761719 627.722656 C 42.6875 627.738281 42.632812 627.75 42.605469 627.757812 Z M 497.769531 522.902344 C 497.757812 522.917969 497.742188 522.929688 497.726562 522.945312 C 497.730469 522.9375 497.734375 522.929688 497.738281 522.921875 C 497.75 522.910156 497.757812 522.910156 497.769531 522.902344 Z M 497.597656 523.21875 C 497.601562 523.210938 497.609375 523.203125 497.617188 523.191406 C 497.613281 523.199219 497.609375 523.207031 497.609375 523.214844 C 497.601562 523.21875 497.597656 523.21875 497.597656 523.21875 Z M 497.617188 523.214844 C 497.621094 523.203125 497.625 523.195312 497.628906 523.183594 C 497.703125 523.175781 497.761719 523.160156 497.847656 523.15625 C 497.769531 523.160156 497.691406 523.191406 497.617188 523.214844 Z M 497.679688 523.097656 C 497.742188 523.015625 497.800781 522.933594 497.855469 522.863281 C 497.90625 522.855469 497.851562 522.953125 497.679688 523.097656 Z M 498.121094 521.417969 C 498.074219 521.898438 497.953125 522.292969 498.121094 521.417969 Z M 498.125 521.390625 C 498.167969 521.171875 498.222656 520.890625 498.300781 520.511719 C 498.242188 520.804688 498.183594 521.097656 498.125 521.390625 Z M 496.9375 516.898438 C 496.597656 516.429688 496.164062 515.480469 496.9375 516.898438 Z M 351.753906 353.96875 C 351.738281 353.984375 351.710938 354.003906 351.691406 354.019531 C 351.730469 353.984375 351.753906 353.964844 351.753906 353.96875 Z M 351.144531 354.628906 C 351.152344 354.617188 351.171875 354.597656 351.179688 354.585938 C 351.175781 354.597656 351.171875 354.605469 351.164062 354.617188 C 351.140625 354.671875 351.117188 354.710938 351.097656 354.753906 C 350.90625 354.964844 350.824219 355.035156 351.144531 354.628906 Z M 351.609375 354.160156 C 351.613281 354.15625 351.621094 354.148438 351.625 354.144531 C 351.625 354.148438 351.621094 354.152344 351.617188 354.15625 C 351.613281 354.15625 351.609375 354.160156 351.609375 354.160156 Z M 352.113281 353.863281 C 352.210938 353.800781 352.195312 353.8125 352.113281 353.863281 Z M 596.203125 297.964844 C 595.90625 297.988281 595.84375 297.964844 596.203125 297.964844 Z M 630.019531 340.621094 C 629.769531 340.109375 629.597656 339.277344 630.019531 340.621094 Z M 631.898438 342.699219 C 631.894531 342.699219 631.894531 342.699219 631.890625 342.703125 C 631.890625 342.703125 631.886719 342.699219 631.882812 342.699219 C 631.882812 342.699219 631.886719 342.699219 631.886719 342.695312 C 631.890625 342.695312 631.894531 342.695312 631.898438 342.699219 Z M 631.441406 342.898438 C 631.460938 342.894531 631.476562 342.894531 631.496094 342.890625 C 631.496094 342.890625 631.496094 342.890625 631.496094 342.894531 C 631.472656 342.894531 631.460938 342.894531 631.441406 342.898438 Z M 631.667969 342.859375 C 631.664062 342.863281 631.664062 342.867188 631.660156 342.867188 C 631.648438 342.871094 631.632812 342.875 631.621094 342.875 C 631.625 342.871094 631.628906 342.867188 631.636719 342.867188 C 631.644531 342.863281 631.65625 342.863281 631.667969 342.859375 Z M 632.394531 343.105469 C 632.574219 343.222656 632.628906 343.269531 632.394531 343.105469 Z M 632.859375 342.976562 C 632.652344 342.917969 632.417969 342.847656 632.183594 342.785156 C 632.175781 342.78125 632.167969 342.78125 632.160156 342.78125 C 632.15625 342.78125 632.15625 342.777344 632.152344 342.777344 C 632.152344 342.777344 632.152344 342.777344 632.15625 342.777344 C 632.140625 342.773438 632.125 342.769531 632.109375 342.765625 C 632.109375 342.761719 632.113281 342.761719 632.113281 342.761719 C 632.132812 342.765625 632.148438 342.769531 632.167969 342.773438 C 634.191406 342.445312 632.730469 342.871094 632.222656 342.789062 C 632.507812 342.875 632.785156 342.953125 632.859375 342.976562 Z M 726.667969 207.242188 C 726.496094 205.238281 726.640625 206.894531 726.4375 207.890625 C 726.433594 207.917969 726.417969 207.964844 726.398438 208.019531 C 726.222656 208.3125 725.941406 208.804688 725.84375 208.945312 C 725.777344 209.039062 725.65625 209.226562 725.570312 209.363281 C 725.480469 209.5 725.378906 209.628906 725.285156 209.765625 C 724.820312 210.441406 724.339844 211.109375 723.867188 211.78125 C 718.949219 218.773438 714.035156 225.761719 709.117188 232.75 C 692.570312 256.273438 676.023438 279.796875 659.476562 303.320312 C 652.636719 313.046875 645.796875 322.769531 638.957031 332.492188 C 637.011719 335.257812 635.066406 338.023438 633.125 340.789062 C 632.699219 341.394531 632.269531 341.996094 631.847656 342.605469 C 631.816406 342.625 631.800781 342.640625 631.773438 342.664062 C 631.78125 342.664062 631.792969 342.667969 631.800781 342.667969 C 631.800781 342.671875 631.796875 342.671875 631.796875 342.675781 C 631.789062 342.671875 631.777344 342.667969 631.769531 342.667969 C 631.769531 342.667969 631.765625 342.667969 631.765625 342.671875 C 631.757812 342.667969 631.753906 342.664062 631.75 342.660156 C 631.332031 342.539062 631.449219 342.570312 631.738281 342.652344 C 631.597656 342.554688 631.445312 342.453125 631.289062 342.359375 C 631.214844 342.28125 631.109375 342.1875 630.949219 342.054688 C 630.894531 342.007812 630.867188 341.984375 630.820312 341.945312 C 630.582031 341.554688 630.351562 341.160156 630.101562 340.777344 C 630.078125 340.738281 630.054688 340.695312 630.03125 340.648438 C 629.855469 340.078125 629.6875 339.515625 629.539062 338.933594 C 629.464844 338.628906 629.402344 338.320312 629.332031 338.015625 C 628.050781 332.570312 626.824219 327.113281 625.570312 321.664062 C 624.023438 314.941406 622.480469 308.21875 620.933594 301.492188 C 619.359375 294.640625 617.574219 288.011719 612.207031 282.933594 C 606.261719 277.3125 598.636719 275.402344 590.710938 277.113281 C 589.054688 277.472656 587.40625 277.875 585.753906 278.253906 C 578.261719 279.976562 570.773438 281.699219 563.28125 283.421875 C 537.453125 289.359375 511.625 295.296875 485.800781 301.234375 C 457.371094 307.769531 428.941406 314.304688 400.515625 320.839844 C 383.292969 324.800781 366.074219 328.757812 348.851562 332.71875 C 347.925781 332.929688 346.988281 333.113281 346.070312 333.355469 C 334.152344 336.542969 327.890625 348.738281 329.46875 360.480469 C 330.738281 369.9375 336.234375 375.675781 342.863281 381.5 C 359.507812 396.117188 376.152344 410.730469 392.792969 425.347656 C 414.972656 444.828125 437.152344 464.304688 459.332031 483.785156 C 471.410156 494.390625 483.707031 504.796875 495.585938 515.625 C 495.65625 515.6875 495.730469 515.746094 495.796875 515.808594 C 496.203125 516.183594 496.578125 516.578125 496.96875 516.960938 C 497.046875 517.105469 497.269531 517.507812 497.46875 517.851562 C 497.613281 518.335938 497.964844 519.332031 498.078125 519.699219 C 498.078125 520.125 498.082031 520.585938 498.125 520.984375 C 498.136719 521.109375 498.128906 521.261719 498.117188 521.414062 C 498.074219 521.628906 498.03125 521.84375 497.972656 522.0625 C 497.902344 522.316406 497.820312 522.566406 497.734375 522.820312 C 497.699219 522.882812 497.664062 522.9375 497.613281 523.023438 C 497.640625 523 497.664062 522.980469 497.6875 522.964844 C 497.683594 522.972656 497.683594 522.980469 497.679688 522.992188 C 497.644531 523.023438 497.609375 523.054688 497.578125 523.089844 C 497.554688 523.128906 497.53125 523.164062 497.511719 523.203125 C 497.527344 523.199219 497.546875 523.195312 497.5625 523.195312 C 497.539062 523.210938 497.515625 523.230469 497.492188 523.246094 C 497.488281 523.25 497.488281 523.25 497.484375 523.25 C 497.484375 523.25 497.484375 523.253906 497.480469 523.253906 C 497.441406 523.285156 497.40625 523.3125 497.359375 523.34375 C 497.328125 523.363281 497.304688 523.371094 497.277344 523.386719 C 497.164062 523.507812 497.058594 523.625 496.972656 523.734375 C 497.070312 523.605469 497.15625 523.507812 497.238281 523.410156 C 496.773438 523.679688 496.578125 523.585938 496.773438 523.4375 C 496.625 523.472656 496.476562 523.503906 496.328125 523.539062 C 493.199219 524.289062 490.054688 524.980469 486.917969 525.703125 C 471.5 529.246094 456.082031 532.792969 440.667969 536.335938 C 416.597656 541.867188 392.53125 547.402344 368.460938 552.933594 C 339.761719 559.535156 311.0625 566.132812 282.363281 572.730469 C 253.085938 579.460938 223.8125 586.191406 194.539062 592.917969 C 168.65625 598.871094 142.773438 604.820312 116.890625 610.769531 C 98.675781 614.957031 80.457031 619.148438 62.242188 623.335938 C 56.035156 624.761719 49.832031 626.1875 43.625 627.613281 C 43.503906 627.617188 43.226562 627.652344 42.984375 627.6875 C 43.054688 627.6875 43.121094 627.703125 43.179688 627.71875 C 43.144531 627.726562 43.109375 627.734375 43.074219 627.742188 C 43.007812 627.679688 42.957031 627.667969 42.960938 627.753906 C 42.960938 627.773438 42.921875 627.75 42.855469 627.710938 C 42.824219 627.714844 42.789062 627.71875 42.761719 627.726562 C 42.757812 627.722656 42.757812 627.722656 42.753906 627.71875 C 42.785156 627.710938 42.816406 627.707031 42.847656 627.703125 C 42.695312 627.597656 42.421875 627.382812 42.238281 627.238281 C 42.101562 627.101562 41.964844 626.96875 41.851562 626.824219 C 41.8125 626.777344 41.789062 626.746094 41.757812 626.710938 C 41.75 626.695312 41.742188 626.683594 41.734375 626.667969 C 41.667969 626.554688 41.378906 626.019531 41.175781 625.664062 C 41.027344 625.164062 40.660156 624.09375 40.617188 623.925781 C 40.421875 623.171875 40.265625 622.402344 40.089844 621.644531 C 38.941406 616.644531 37.792969 611.644531 36.640625 606.644531 C 33.515625 593.046875 30.390625 579.449219 27.265625 565.851562 C 26.546875 562.734375 25.800781 559.625 25.113281 556.5 C 25.085938 556.378906 25.070312 556.195312 25.058594 556.011719 C 25.050781 555.546875 25.058594 555.085938 25.074219 554.621094 C 25.085938 554.578125 25.09375 554.554688 25.109375 554.5 C 25.152344 554.351562 25.335938 553.8125 25.449219 553.449219 C 25.53125 553.292969 25.621094 553.125 25.699219 552.988281 C 25.660156 553 25.625 553.011719 25.589844 553.019531 C 25.628906 552.996094 25.675781 552.964844 25.730469 552.933594 C 25.734375 552.921875 25.742188 552.914062 25.746094 552.90625 C 25.753906 552.898438 25.765625 552.890625 25.777344 552.882812 C 25.796875 552.875 25.8125 552.875 25.835938 552.867188 C 25.929688 552.808594 26.035156 552.742188 26.160156 552.660156 C 26.136719 552.722656 26.089844 552.777344 26.027344 552.824219 C 26.070312 552.816406 26.109375 552.808594 26.160156 552.796875 C 26.292969 552.769531 26.417969 552.734375 26.550781 552.707031 C 30.757812 551.796875 34.945312 550.777344 39.144531 549.8125 C 60.316406 544.945312 81.488281 540.078125 102.660156 535.210938 C 131.660156 528.542969 160.660156 521.875 189.664062 515.207031 C 215.527344 509.261719 241.390625 503.316406 267.25 497.371094 C 278.664062 494.746094 290.246094 492.496094 301.566406 489.480469 C 321.175781 484.257812 323.277344 457.605469 309.332031 445.332031 C 305.285156 441.769531 301.132812 438.328125 297.035156 434.828125 C 277.648438 418.265625 258.261719 401.707031 238.875 385.144531 C 217.304688 366.71875 195.738281 348.289062 174.164062 329.863281 C 167.457031 324.132812 160.742188 318.398438 154.03125 312.664062 C 152.53125 311.382812 151.019531 310.109375 149.527344 308.816406 C 149.222656 308.550781 148.914062 308.296875 148.621094 308.023438 C 148.265625 307.691406 147.9375 307.296875 147.582031 306.96875 C 147.578125 306.964844 147.578125 306.960938 147.578125 306.957031 C 147.453125 306.3125 146.765625 304.703125 146.886719 305.457031 C 146.652344 304.375 146.433594 303.136719 146.566406 305.09375 C 146.53125 304.554688 146.484375 304.027344 146.476562 303.488281 C 146.476562 303.40625 146.484375 303.214844 146.488281 302.996094 C 146.574219 302.765625 146.71875 302.105469 146.816406 301.589844 C 146.707031 302.058594 146.574219 302.214844 146.519531 302.164062 C 146.519531 302.039062 146.519531 301.949219 146.515625 301.925781 C 146.546875 301.804688 146.605469 301.660156 146.714844 301.480469 C 146.753906 301.421875 146.804688 301.34375 146.847656 301.277344 C 146.738281 301.375 146.753906 301.25 146.917969 301.019531 C 146.90625 301.09375 146.894531 301.148438 146.886719 301.214844 C 146.902344 301.128906 146.910156 301.066406 146.917969 301.015625 C 146.953125 300.964844 146.996094 300.910156 147.046875 300.851562 C 146.933594 300.90625 146.816406 300.964844 146.667969 301.023438 C 146.796875 300.96875 146.9375 300.894531 147.082031 300.816406 C 147.113281 300.78125 147.136719 300.746094 147.171875 300.710938 C 147.183594 300.699219 147.195312 300.695312 147.207031 300.679688 C 147.207031 300.679688 147.207031 300.679688 147.210938 300.679688 C 147.210938 300.679688 147.214844 300.675781 147.214844 300.671875 C 147.234375 300.65625 147.246094 300.644531 147.265625 300.628906 C 147.257812 300.644531 147.246094 300.664062 147.238281 300.679688 C 147.269531 300.675781 147.304688 300.667969 147.335938 300.664062 C 147.453125 300.597656 147.566406 300.523438 147.675781 300.457031 C 147.621094 300.511719 147.53125 300.582031 147.410156 300.65625 C 147.449219 300.652344 147.480469 300.648438 147.523438 300.644531 C 147.652344 300.628906 147.78125 300.582031 147.910156 300.554688 C 148.910156 300.363281 149.90625 300.097656 150.898438 299.867188 C 155.554688 298.796875 160.210938 297.726562 164.867188 296.65625 C 182.996094 292.488281 201.125 288.320312 219.25 284.15625 C 245.210938 278.1875 271.171875 272.21875 297.132812 266.25 C 326.496094 259.5 355.859375 252.746094 385.226562 245.996094 C 413.511719 239.496094 441.800781 232.992188 470.089844 226.488281 C 492.824219 221.261719 515.558594 216.035156 538.289062 210.808594 C 551.015625 207.882812 563.738281 204.957031 576.460938 202.03125 C 583.460938 200.421875 589.636719 197.578125 593.597656 190.933594 C 598.089844 183.394531 597.253906 175.164062 595.390625 167.066406 C 593.90625 160.617188 592.425781 154.164062 590.941406 147.710938 C 589.582031 141.808594 588.226562 135.902344 586.867188 129.996094 C 586.734375 129.40625 586.59375 128.820312 586.460938 128.230469 C 586.445312 128.152344 586.425781 128.074219 586.40625 127.996094 C 586.398438 127.953125 586.363281 127.652344 586.332031 127.375 C 586.347656 127.074219 586.359375 126.519531 586.367188 126.101562 C 586.414062 127.132812 587.246094 124.25 586.625 125.179688 C 586.65625 125.121094 586.691406 125.0625 586.722656 125.007812 C 586.707031 125.050781 586.777344 124.960938 586.988281 124.644531 C 587.3125 124.78125 587.5 124.867188 587.292969 124.75 C 587.339844 124.777344 587.390625 124.796875 587.4375 124.828125 C 588.175781 125.347656 589.050781 125.734375 589.839844 126.171875 C 592.929688 127.898438 596.019531 129.628906 599.109375 131.355469 C 622.914062 144.660156 646.714844 157.960938 670.515625 171.265625 C 688.222656 181.160156 706.023438 190.90625 723.636719 200.957031 C 723.808594 201.054688 723.980469 201.152344 724.152344 201.246094 C 724.1875 201.261719 724.222656 201.285156 724.257812 201.304688 C 724.261719 201.304688 724.265625 201.308594 724.269531 201.308594 C 724.542969 201.488281 724.734375 201.613281 724.863281 201.691406 C 724.890625 201.714844 724.910156 201.734375 724.941406 201.757812 C 724.957031 201.824219 725.457031 202.421875 725.613281 202.558594 C 725.648438 202.617188 725.691406 202.675781 725.726562 202.734375 C 725.796875 202.847656 725.96875 203.183594 726.121094 203.46875 C 726.234375 203.78125 726.371094 204.160156 726.414062 204.292969 C 726.457031 204.445312 726.578125 204.910156 726.664062 205.242188 C 726.675781 205.324219 726.683594 205.394531 726.683594 205.4375 C 726.679688 205.984375 726.621094 206.679688 726.667969 207.242188 Z M 726.667969 207.242188 " fill-opacity="1" fill-rule="nonzero"/></svg>