<svg xmlns="http://www.w3.org/2000/svg" xmlns:xlink="http://www.w3.org/1999/xlink" width="1000" zoomAndPan="magnify" viewBox="0 0 750 749.999995" height="1000" preserveAspectRatio="xMidYMid meet" version="1.0"><path fill="#b2b2b2" d="M 75 0 L 675 0 C 676.226562 0 677.453125 0.03125 678.679688 0.0898438 C 679.90625 0.152344 681.128906 0.242188 682.351562 0.359375 C 683.574219 0.480469 684.789062 0.632812 686.003906 0.8125 C 687.21875 0.992188 688.429688 1.203125 689.632812 1.441406 C 690.835938 1.679688 692.03125 1.949219 693.222656 2.246094 C 694.414062 2.546875 695.597656 2.875 696.769531 3.230469 C 697.945312 3.585938 699.109375 3.972656 700.265625 4.382812 C 701.421875 4.796875 702.566406 5.238281 703.699219 5.710938 C 704.835938 6.179688 705.957031 6.675781 707.066406 7.199219 C 708.175781 7.726562 709.273438 8.277344 710.355469 8.855469 C 711.4375 9.433594 712.503906 10.039062 713.558594 10.671875 C 714.609375 11.300781 715.648438 11.957031 716.667969 12.640625 C 717.6875 13.320312 718.691406 14.027344 719.675781 14.757812 C 720.664062 15.492188 721.628906 16.246094 722.578125 17.023438 C 723.527344 17.804688 724.457031 18.605469 725.367188 19.429688 C 726.277344 20.253906 727.164062 21.097656 728.03125 21.96875 C 728.902344 22.835938 729.746094 23.722656 730.570312 24.632812 C 731.394531 25.542969 732.195312 26.472656 732.976562 27.421875 C 733.753906 28.371094 734.507812 29.335938 735.242188 30.324219 C 735.972656 31.308594 736.679688 32.3125 737.359375 33.332031 C 738.042969 34.351562 738.699219 35.390625 739.328125 36.441406 C 739.960938 37.496094 740.566406 38.5625 741.144531 39.644531 C 741.722656 40.726562 742.273438 41.824219 742.800781 42.933594 C 743.324219 44.042969 743.820312 45.164062 744.289062 46.296875 C 744.761719 47.433594 745.203125 48.578125 745.617188 49.734375 C 746.027344 50.890625 746.414062 52.054688 746.769531 53.230469 C 747.125 54.402344 747.453125 55.585938 747.753906 56.777344 C 748.050781 57.96875 748.320312 59.164062 748.558594 60.367188 C 748.796875 61.570312 749.007812 62.78125 749.1875 63.996094 C 749.367188 65.210938 749.519531 66.425781 749.640625 67.648438 C 749.757812 68.871094 749.847656 70.09375 749.910156 71.320312 C 749.96875 72.546875 750 73.773438 750 75 L 750 675 C 750 676.226562 749.96875 677.453125 749.910156 678.679688 C 749.847656 679.90625 749.757812 681.128906 749.640625 682.351562 C 749.519531 683.574219 749.367188 684.789062 749.1875 686.003906 C 749.007812 687.21875 748.796875 688.429688 748.558594 689.632812 C 748.320312 690.835938 748.050781 692.03125 747.753906 693.222656 C 747.453125 694.414062 747.125 695.597656 746.769531 696.769531 C 746.414062 697.945312 746.027344 699.109375 745.617188 700.265625 C 745.203125 701.421875 744.761719 702.566406 744.289062 703.699219 C 743.820312 704.835938 743.324219 705.957031 742.800781 707.066406 C 742.273438 708.175781 741.722656 709.273438 741.144531 710.355469 C 740.566406 711.4375 739.960938 712.503906 739.328125 713.558594 C 738.699219 714.609375 738.042969 715.648438 737.359375 716.667969 C 736.679688 717.6875 735.972656 718.691406 735.242188 719.675781 C 734.507812 720.664062 733.753906 721.628906 732.976562 722.578125 C 732.195312 723.527344 731.394531 724.457031 730.570312 725.367188 C 729.746094 726.277344 728.902344 727.164062 728.03125 728.03125 C 727.164062 728.902344 726.277344 729.746094 725.367188 730.570312 C 724.457031 731.394531 723.527344 732.195312 722.578125 732.976562 C 721.628906 733.753906 720.664062 734.507812 719.675781 735.242188 C 718.691406 735.972656 717.6875 736.679688 716.667969 737.359375 C 715.648438 738.042969 714.609375 738.699219 713.558594 739.328125 C 712.503906 739.960938 711.4375 740.566406 710.355469 741.144531 C 709.273438 741.722656 708.175781 742.273438 707.066406 742.800781 C 705.957031 743.324219 704.835938 743.820312 703.699219 744.289062 C 702.566406 744.761719 701.421875 745.203125 700.265625 745.617188 C 699.109375 746.027344 697.945312 746.414062 696.769531 746.769531 C 695.597656 747.125 694.414062 747.453125 693.222656 747.753906 C 692.03125 748.050781 690.835938 748.320312 689.632812 748.558594 C 688.429688 748.796875 687.21875 749.007812 686.003906 749.1875 C 684.789062 749.367188 683.574219 749.519531 682.351562 749.640625 C 681.128906 749.757812 679.90625 749.847656 678.679688 749.910156 C 677.453125 749.96875 676.226562 750 675 750 L 75 750 C 73.773438 750 72.546875 749.96875 71.320312 749.910156 C 70.09375 749.847656 68.871094 749.757812 67.648438 749.640625 C 66.425781 749.519531 65.210938 749.367188 63.996094 749.1875 C 62.78125 749.007812 61.570312 748.796875 60.367188 748.558594 C 59.164062 748.320312 57.96875 748.050781 56.777344 747.753906 C 55.585938 747.453125 54.402344 747.125 53.230469 746.769531 C 52.054688 746.414062 50.890625 746.027344 49.734375 745.617188 C 48.578125 745.203125 47.433594 744.761719 46.296875 744.289062 C 45.164062 743.820312 44.042969 743.324219 42.933594 742.800781 C 41.824219 742.273438 40.726562 741.722656 39.644531 741.144531 C 38.5625 740.566406 37.496094 739.960938 36.441406 739.328125 C 35.390625 738.699219 34.351562 738.042969 33.332031 737.359375 C 32.3125 736.679688 31.308594 735.972656 30.324219 735.242188 C 29.335938 734.507812 28.371094 733.753906 27.421875 732.976562 C 26.472656 732.195312 25.542969 731.394531 24.632812 730.570312 C 23.722656 729.746094 22.835938 728.902344 21.96875 728.03125 C 21.097656 727.164062 20.253906 726.277344 19.429688 725.367188 C 18.605469 724.457031 17.804688 723.527344 17.023438 722.578125 C 16.246094 721.628906 15.492188 720.664062 14.757812 719.675781 C 14.027344 718.691406 13.320312 717.6875 12.640625 716.667969 C 11.957031 715.648438 11.300781 714.609375 10.671875 713.558594 C 10.039062 712.503906 9.433594 711.4375 8.855469 710.355469 C 8.277344 709.273438 7.726562 708.175781 7.199219 707.066406 C 6.675781 705.957031 6.179688 704.835938 5.710938 703.699219 C 5.238281 702.566406 4.796875 701.421875 4.382812 700.265625 C 3.96875 699.109375 3.585938 697.945312 3.230469 696.769531 C 2.875 695.597656 2.546875 694.414062 2.246094 693.222656 C 1.949219 692.03125 1.679688 690.835938 1.441406 689.632812 C 1.203125 688.429688 0.992188 687.21875 0.8125 686.003906 C 0.632812 684.789062 0.480469 683.574219 0.359375 682.351562 C 0.242188 681.128906 0.152344 679.90625 0.0898438 678.679688 C 0.03125 677.453125 0 676.226562 0 675 L 0 75 C 0 73.773438 0.03125 72.546875 0.0898438 71.320312 C 0.152344 70.09375 0.242188 68.871094 0.359375 67.648438 C 0.480469 66.425781 0.632812 65.210938 0.8125 63.996094 C 0.992188 62.78125 1.203125 61.570312 1.441406 60.367188 C 1.679688 59.164062 1.949219 57.96875 2.246094 56.777344 C 2.546875 55.585938 2.875 54.402344 3.230469 53.230469 C 3.585938 52.054688 3.96875 50.890625 4.382812 49.734375 C 4.796875 48.578125 5.238281 47.433594 5.710938 46.296875 C 6.179688 45.164062 6.675781 44.042969 7.199219 42.933594 C 7.726562 41.824219 8.277344 40.726562 8.855469 39.644531 C 9.433594 38.5625 10.039062 37.496094 10.671875 36.441406 C 11.300781 35.390625 11.957031 34.351562 12.640625 33.332031 C 13.320312 32.3125 14.027344 31.308594 14.757812 30.324219 C 15.492188 29.335938 16.246094 28.371094 17.023438 27.421875 C 17.804688 26.472656 18.605469 25.542969 19.429688 24.632812 C 20.253906 23.722656 21.097656 22.835938 21.96875 21.96875 C 22.835938 21.097656 23.722656 20.253906 24.632812 19.429688 C 25.542969 18.605469 26.472656 17.804688 27.421875 17.023438 C 28.371094 16.246094 29.335938 15.492188 30.324219 14.757812 C 31.308594 14.027344 32.3125 13.320312 33.332031 12.640625 C 34.351562 11.957031 35.390625 11.300781 36.441406 10.671875 C 37.496094 10.039062 38.5625 9.433594 39.644531 8.855469 C 40.726562 8.277344 41.824219 7.726562 42.933594 7.199219 C 44.042969 6.675781 45.164062 6.179688 46.296875 5.710938 C 47.433594 5.238281 48.578125 4.796875 49.734375 4.382812 C 50.890625 3.972656 52.054688 3.585938 53.230469 3.230469 C 54.402344 2.875 55.585938 2.546875 56.777344 2.246094 C 57.96875 1.949219 59.164062 1.679688 60.367188 1.441406 C 61.570312 1.203125 62.78125 0.992188 63.996094 0.8125 C 65.210938 0.632812 66.425781 0.480469 67.648438 0.359375 C 68.871094 0.242188 70.09375 0.152344 71.320312 0.0898438 C 72.546875 0.03125 73.773438 0 75 0 Z M 75 0 " fill-opacity="1" fill-rule="nonzero"/><path fill="#000000" d="M 750 150 L 750 75 C 750 73.773438 749.96875 72.546875 749.90625 71.320312 C 749.84375 70.097656 749.753906 68.871094 749.628906 67.652344 C 749.507812 66.429688 749.359375 65.214844 749.175781 64 C 748.996094 62.785156 748.785156 61.578125 748.542969 60.375 C 748.304688 59.171875 748.035156 57.972656 747.734375 56.785156 C 747.4375 55.59375 747.109375 54.414062 746.75 53.238281 C 746.394531 52.066406 746.007812 50.898438 745.59375 49.746094 C 745.179688 48.589844 744.738281 47.445312 744.265625 46.3125 C 743.796875 45.179688 743.300781 44.058594 742.773438 42.949219 C 742.25 41.839844 741.695312 40.746094 741.117188 39.664062 C 740.539062 38.582031 739.933594 37.511719 739.304688 36.460938 C 738.671875 35.410156 738.015625 34.375 737.332031 33.351562 C 736.652344 32.332031 735.945312 31.332031 735.214844 30.34375 C 734.480469 29.359375 733.726562 28.390625 732.949219 27.445312 C 732.171875 26.496094 731.367188 25.566406 730.542969 24.65625 C 729.722656 23.75 728.875 22.859375 728.007812 21.992188 C 727.140625 21.125 726.25 20.277344 725.34375 19.457031 C 724.433594 18.632812 723.503906 17.828125 722.554688 17.050781 C 721.605469 16.273438 720.640625 15.519531 719.65625 14.785156 C 718.667969 14.054688 717.667969 13.347656 716.648438 12.667969 C 715.625 11.984375 714.589844 11.328125 713.539062 10.695312 C 712.484375 10.066406 711.417969 9.460938 710.335938 8.882812 C 709.253906 8.304688 708.160156 7.75 707.050781 7.226562 C 705.941406 6.699219 704.820312 6.203125 703.6875 5.734375 C 702.554688 5.261719 701.410156 4.820312 700.253906 4.40625 C 699.101562 3.992188 697.933594 3.605469 696.761719 3.25 C 695.585938 2.890625 694.40625 2.5625 693.214844 2.265625 C 692.027344 1.964844 690.828125 1.695312 689.625 1.457031 C 688.421875 1.214844 687.214844 1.003906 686 0.824219 C 684.785156 0.640625 683.570312 0.492188 682.347656 0.367188 C 681.128906 0.246094 679.902344 0.15625 678.679688 0.09375 C 677.453125 0.03125 676.226562 0 675 0 L 75 0 C 73.773438 0 72.546875 0.03125 71.320312 0.09375 C 70.097656 0.15625 68.871094 0.246094 67.652344 0.367188 C 66.429688 0.492188 65.214844 0.640625 64 0.824219 C 62.785156 1.003906 61.578125 1.214844 60.375 1.457031 C 59.171875 1.695312 57.972656 1.964844 56.785156 2.265625 C 55.59375 2.5625 54.414062 2.890625 53.238281 3.25 C 52.066406 3.605469 50.898438 3.992188 49.746094 4.40625 C 48.589844 4.820312 47.445312 5.261719 46.3125 5.734375 C 45.179688 6.203125 44.058594 6.699219 42.949219 7.226562 C 41.839844 7.75 40.746094 8.304688 39.664062 8.882812 C 38.582031 9.460938 37.511719 10.066406 36.460938 10.695312 C 35.410156 11.328125 34.371094 11.984375 33.351562 12.667969 C 32.332031 13.347656 31.332031 14.054688 30.34375 14.785156 C 29.359375 15.519531 28.390625 16.273438 27.445312 17.050781 C 26.496094 17.828125 25.566406 18.632812 24.65625 19.457031 C 23.75 20.277344 22.859375 21.125 21.992188 21.992188 C 21.125 22.859375 20.277344 23.75 19.453125 24.65625 C 18.632812 25.566406 17.828125 26.496094 17.050781 27.445312 C 16.273438 28.390625 15.519531 29.359375 14.785156 30.34375 C 14.054688 31.332031 13.347656 32.332031 12.667969 33.351562 C 11.984375 34.375 11.328125 35.410156 10.695312 36.460938 C 10.066406 37.511719 9.460938 38.582031 8.882812 39.664062 C 8.304688 40.746094 7.75 41.839844 7.226562 42.949219 C 6.699219 44.058594 6.203125 45.179688 5.734375 46.3125 C 5.261719 47.445312 4.820312 48.589844 4.40625 49.746094 C 3.992188 50.898438 3.605469 52.066406 3.25 53.238281 C 2.890625 54.414062 2.5625 55.59375 2.265625 56.785156 C 1.964844 57.972656 1.695312 59.171875 1.457031 60.375 C 1.214844 61.578125 1.003906 62.785156 0.824219 64 C 0.640625 65.214844 0.492188 66.429688 0.367188 67.652344 C 0.246094 68.871094 0.15625 70.097656 0.09375 71.320312 C 0.03125 72.546875 0 73.773438 0 75 L 0 150 Z M 750 150 " fill-opacity="1" fill-rule="nonzero"/><path fill="#b2b2b2" d="M 625.003906 100.003906 L 612.496094 100.003906 C 611.675781 100.003906 610.859375 99.964844 610.042969 99.882812 C 609.230469 99.804688 608.421875 99.683594 607.617188 99.523438 C 606.816406 99.363281 606.023438 99.164062 605.238281 98.925781 C 604.457031 98.6875 603.683594 98.414062 602.929688 98.097656 C 602.171875 97.785156 601.433594 97.4375 600.710938 97.050781 C 599.988281 96.664062 599.289062 96.242188 598.605469 95.789062 C 597.925781 95.332031 597.269531 94.84375 596.636719 94.324219 C 596.003906 93.804688 595.398438 93.257812 594.820312 92.679688 C 594.242188 92.097656 593.691406 91.492188 593.171875 90.859375 C 592.652344 90.226562 592.164062 89.570312 591.710938 88.890625 C 591.257812 88.207031 590.835938 87.507812 590.449219 86.785156 C 590.0625 86.0625 589.714844 85.324219 589.402344 84.566406 C 589.089844 83.808594 588.8125 83.039062 588.574219 82.257812 C 588.335938 81.472656 588.140625 80.679688 587.980469 79.878906 C 587.820312 79.074219 587.699219 78.265625 587.621094 77.449219 C 587.539062 76.636719 587.5 75.820312 587.5 75 C 587.5 74.179688 587.539062 73.363281 587.621094 72.550781 C 587.699219 71.734375 587.820312 70.925781 587.980469 70.121094 C 588.140625 69.320312 588.335938 68.527344 588.574219 67.742188 C 588.8125 66.960938 589.089844 66.191406 589.402344 65.433594 C 589.714844 64.675781 590.0625 63.9375 590.449219 63.214844 C 590.835938 62.492188 591.257812 61.792969 591.710938 61.109375 C 592.164062 60.429688 592.652344 59.773438 593.171875 59.140625 C 593.691406 58.507812 594.242188 57.902344 594.820312 57.320312 C 595.398438 56.742188 596.003906 56.195312 596.636719 55.675781 C 597.269531 55.15625 597.925781 54.667969 598.605469 54.210938 C 599.289062 53.757812 599.988281 53.335938 600.710938 52.949219 C 601.433594 52.5625 602.171875 52.214844 602.929688 51.902344 C 603.683594 51.585938 604.457031 51.3125 605.238281 51.074219 C 606.023438 50.835938 606.816406 50.636719 607.617188 50.476562 C 608.421875 50.316406 609.230469 50.195312 610.042969 50.117188 C 610.859375 50.035156 611.675781 49.996094 612.496094 49.996094 L 625.003906 49.996094 C 625.824219 49.996094 626.640625 50.035156 627.457031 50.117188 C 628.269531 50.195312 629.078125 50.316406 629.882812 50.476562 C 630.683594 50.636719 631.476562 50.835938 632.261719 51.074219 C 633.046875 51.3125 633.816406 51.585938 634.570312 51.902344 C 635.328125 52.214844 636.066406 52.5625 636.789062 52.949219 C 637.511719 53.335938 638.210938 53.757812 638.894531 54.210938 C 639.574219 54.667969 640.230469 55.15625 640.863281 55.675781 C 641.496094 56.195312 642.101562 56.742188 642.679688 57.320312 C 643.257812 57.902344 643.808594 58.507812 644.328125 59.140625 C 644.847656 59.773438 645.335938 60.429688 645.789062 61.109375 C 646.242188 61.792969 646.664062 62.492188 647.050781 63.214844 C 647.4375 63.9375 647.785156 64.675781 648.097656 65.433594 C 648.410156 66.191406 648.6875 66.960938 648.925781 67.742188 C 649.164062 68.527344 649.359375 69.320312 649.519531 70.121094 C 649.679688 70.925781 649.800781 71.734375 649.878906 72.550781 C 649.960938 73.363281 650 74.179688 650 75 C 650 75.820312 649.960938 76.636719 649.878906 77.449219 C 649.800781 78.265625 649.679688 79.074219 649.519531 79.878906 C 649.359375 80.679688 649.164062 81.472656 648.925781 82.257812 C 648.6875 83.039062 648.410156 83.808594 648.097656 84.566406 C 647.785156 85.324219 647.4375 86.0625 647.050781 86.785156 C 646.664062 87.507812 646.242188 88.207031 645.789062 88.890625 C 645.335938 89.570312 644.847656 90.226562 644.328125 90.859375 C 643.808594 91.492188 643.257812 92.097656 642.679688 92.679688 C 642.101562 93.257812 641.496094 93.804688 640.863281 94.324219 C 640.230469 94.84375 639.574219 95.332031 638.894531 95.789062 C 638.210938 96.242188 637.511719 96.664062 636.789062 97.050781 C 636.066406 97.4375 635.328125 97.785156 634.570312 98.097656 C 633.816406 98.414062 633.046875 98.6875 632.261719 98.925781 C 631.476562 99.164062 630.683594 99.363281 629.882812 99.523438 C 629.078125 99.683594 628.269531 99.804688 627.457031 99.882812 C 626.640625 99.964844 625.824219 100.003906 625.003906 100.003906 Z M 625.003906 100.003906 " fill-opacity="1" fill-rule="nonzero"/><path fill="#b2b2b2" d="M 525 100.003906 L 512.503906 100.003906 C 511.6875 100.003906 510.867188 99.964844 510.054688 99.886719 C 509.238281 99.804688 508.429688 99.683594 507.625 99.527344 C 506.820312 99.367188 506.027344 99.167969 505.246094 98.929688 C 504.460938 98.691406 503.691406 98.417969 502.933594 98.105469 C 502.175781 97.789062 501.4375 97.441406 500.714844 97.054688 C 499.992188 96.667969 499.289062 96.25 498.609375 95.792969 C 497.925781 95.339844 497.269531 94.851562 496.636719 94.332031 C 496.003906 93.8125 495.398438 93.261719 494.816406 92.683594 C 494.238281 92.105469 493.6875 91.5 493.167969 90.867188 C 492.648438 90.234375 492.164062 89.574219 491.707031 88.894531 C 491.253906 88.214844 490.832031 87.511719 490.445312 86.789062 C 490.058594 86.066406 489.710938 85.328125 489.394531 84.570312 C 489.082031 83.8125 488.804688 83.042969 488.570312 82.261719 C 488.332031 81.476562 488.132812 80.683594 487.972656 79.878906 C 487.8125 79.074219 487.691406 78.265625 487.613281 77.453125 C 487.53125 76.636719 487.492188 75.820312 487.492188 75 C 487.492188 74.179688 487.53125 73.363281 487.613281 72.546875 C 487.691406 71.734375 487.8125 70.925781 487.972656 70.121094 C 488.132812 69.316406 488.332031 68.523438 488.570312 67.738281 C 488.804688 66.957031 489.082031 66.1875 489.394531 65.429688 C 489.710938 64.671875 490.058594 63.933594 490.445312 63.210938 C 490.832031 62.488281 491.253906 61.785156 491.707031 61.105469 C 492.164062 60.425781 492.648438 59.765625 493.167969 59.132812 C 493.6875 58.5 494.238281 57.894531 494.816406 57.316406 C 495.398438 56.738281 496.003906 56.1875 496.636719 55.667969 C 497.269531 55.148438 497.925781 54.660156 498.609375 54.207031 C 499.289062 53.75 499.992188 53.332031 500.714844 52.945312 C 501.4375 52.558594 502.175781 52.210938 502.933594 51.894531 C 503.691406 51.582031 504.460938 51.308594 505.246094 51.070312 C 506.027344 50.832031 506.820312 50.632812 507.625 50.472656 C 508.429688 50.316406 509.238281 50.195312 510.054688 50.113281 C 510.867188 50.035156 511.6875 49.996094 512.503906 49.996094 L 525 49.996094 C 525.820312 49.996094 526.636719 50.035156 527.453125 50.113281 C 528.265625 50.195312 529.074219 50.316406 529.878906 50.472656 C 530.683594 50.632812 531.476562 50.832031 532.261719 51.070312 C 533.042969 51.308594 533.816406 51.582031 534.570312 51.894531 C 535.328125 52.210938 536.066406 52.558594 536.789062 52.945312 C 537.511719 53.332031 538.214844 53.75 538.894531 54.207031 C 539.578125 54.660156 540.234375 55.148438 540.867188 55.667969 C 541.5 56.1875 542.105469 56.738281 542.6875 57.316406 C 543.265625 57.894531 543.816406 58.5 544.335938 59.132812 C 544.855469 59.765625 545.34375 60.425781 545.796875 61.105469 C 546.253906 61.785156 546.671875 62.488281 547.058594 63.210938 C 547.445312 63.933594 547.796875 64.671875 548.109375 65.429688 C 548.421875 66.1875 548.699219 66.957031 548.9375 67.738281 C 549.175781 68.523438 549.371094 69.316406 549.53125 70.121094 C 549.691406 70.925781 549.8125 71.734375 549.894531 72.546875 C 549.972656 73.363281 550.011719 74.179688 550.011719 75 C 550.011719 75.820312 549.972656 76.636719 549.894531 77.453125 C 549.8125 78.265625 549.691406 79.074219 549.53125 79.878906 C 549.371094 80.683594 549.175781 81.476562 548.9375 82.261719 C 548.699219 83.042969 548.421875 83.8125 548.109375 84.570312 C 547.796875 85.328125 547.445312 86.066406 547.058594 86.789062 C 546.671875 87.511719 546.253906 88.214844 545.796875 88.894531 C 545.34375 89.574219 544.855469 90.234375 544.335938 90.867188 C 543.816406 91.5 543.265625 92.105469 542.6875 92.683594 C 542.105469 93.261719 541.5 93.8125 540.867188 94.332031 C 540.234375 94.851562 539.578125 95.339844 538.894531 95.792969 C 538.214844 96.25 537.511719 96.667969 536.789062 97.054688 C 536.066406 97.441406 535.328125 97.789062 534.570312 98.105469 C 533.816406 98.417969 533.042969 98.691406 532.261719 98.929688 C 531.476562 99.167969 530.683594 99.367188 529.878906 99.527344 C 529.074219 99.683594 528.265625 99.804688 527.453125 99.886719 C 526.636719 99.964844 525.820312 100.003906 525 100.003906 Z M 525 100.003906 " fill-opacity="1" fill-rule="nonzero"/><path fill="#000000" d="M 225 574.996094 C 223.359375 574.996094 221.730469 574.839844 220.121094 574.519531 C 218.507812 574.203125 216.945312 573.726562 215.429688 573.097656 C 213.910156 572.472656 212.46875 571.699219 211.105469 570.785156 C 209.742188 569.871094 208.480469 568.835938 207.320312 567.671875 L 107.328125 467.679688 C 106.75 467.101562 106.199219 466.496094 105.679688 465.863281 C 105.160156 465.230469 104.671875 464.574219 104.21875 463.890625 C 103.761719 463.210938 103.339844 462.511719 102.953125 461.789062 C 102.566406 461.066406 102.21875 460.328125 101.90625 459.570312 C 101.589844 458.8125 101.316406 458.042969 101.078125 457.257812 C 100.839844 456.476562 100.640625 455.683594 100.480469 454.878906 C 100.320312 454.074219 100.199219 453.265625 100.121094 452.449219 C 100.039062 451.636719 100 450.820312 100 450 C 100 449.179688 100.039062 448.363281 100.121094 447.546875 C 100.199219 446.734375 100.320312 445.925781 100.480469 445.121094 C 100.640625 444.316406 100.839844 443.523438 101.078125 442.742188 C 101.316406 441.957031 101.589844 441.1875 101.90625 440.429688 C 102.21875 439.671875 102.566406 438.933594 102.953125 438.210938 C 103.339844 437.488281 103.761719 436.789062 104.21875 436.105469 C 104.671875 435.425781 105.160156 434.769531 105.679688 434.136719 C 106.199219 433.503906 106.75 432.898438 107.328125 432.320312 L 207.320312 332.328125 C 207.894531 331.730469 208.496094 331.160156 209.125 330.621094 C 209.757812 330.082031 210.414062 329.574219 211.09375 329.097656 C 211.777344 328.625 212.480469 328.183594 213.203125 327.78125 C 213.929688 327.375 214.671875 327.007812 215.433594 326.679688 C 216.195312 326.347656 216.972656 326.058594 217.765625 325.804688 C 218.554688 325.550781 219.355469 325.339844 220.167969 325.164062 C 220.980469 324.992188 221.796875 324.859375 222.625 324.769531 C 223.449219 324.675781 224.277344 324.625 225.105469 324.617188 C 225.9375 324.609375 226.765625 324.640625 227.59375 324.714844 C 228.417969 324.789062 229.242188 324.902344 230.054688 325.058594 C 230.871094 325.210938 231.675781 325.40625 232.472656 325.644531 C 233.269531 325.878906 234.050781 326.152344 234.820312 326.464844 C 235.589844 326.78125 236.339844 327.128906 237.074219 327.519531 C 237.808594 327.90625 238.519531 328.332031 239.214844 328.789062 C 239.90625 329.25 240.570312 329.742188 241.214844 330.265625 C 241.855469 330.792969 242.472656 331.347656 243.058594 331.9375 C 243.644531 332.523438 244.203125 333.136719 244.730469 333.78125 C 245.253906 334.421875 245.746094 335.089844 246.207031 335.78125 C 246.667969 336.472656 247.089844 337.183594 247.480469 337.917969 C 247.867188 338.652344 248.21875 339.402344 248.53125 340.171875 C 248.847656 340.941406 249.121094 341.722656 249.355469 342.519531 C 249.59375 343.316406 249.789062 344.121094 249.945312 344.9375 C 250.097656 345.75 250.214844 346.574219 250.289062 347.398438 C 250.359375 348.226562 250.394531 349.054688 250.386719 349.886719 C 250.375 350.714844 250.324219 351.542969 250.234375 352.367188 C 250.144531 353.195312 250.011719 354.011719 249.839844 354.824219 C 249.667969 355.636719 249.453125 356.4375 249.199219 357.230469 C 248.949219 358.019531 248.65625 358.796875 248.328125 359.558594 C 247.996094 360.320312 247.628906 361.0625 247.226562 361.789062 C 246.820312 362.515625 246.382812 363.21875 245.910156 363.898438 C 245.433594 364.582031 244.929688 365.238281 244.390625 365.867188 C 243.847656 366.5 243.28125 367.101562 242.679688 367.675781 L 160.355469 450 L 242.679688 532.324219 C 243.550781 533.195312 244.347656 534.121094 245.078125 535.109375 C 245.8125 536.097656 246.464844 537.132812 247.042969 538.21875 C 247.625 539.300781 248.121094 540.421875 248.53125 541.578125 C 248.945312 542.738281 249.273438 543.917969 249.511719 545.125 C 249.75 546.328125 249.898438 547.546875 249.960938 548.773438 C 250.019531 550 249.988281 551.226562 249.867188 552.449219 C 249.746094 553.671875 249.539062 554.878906 249.238281 556.070312 C 248.941406 557.261719 248.554688 558.425781 248.085938 559.5625 C 247.613281 560.695312 247.0625 561.792969 246.429688 562.847656 C 245.800781 563.898438 245.09375 564.902344 244.316406 565.851562 C 243.535156 566.800781 242.691406 567.691406 241.78125 568.515625 C 240.871094 569.339844 239.902344 570.09375 238.882812 570.777344 C 237.859375 571.460938 236.792969 572.066406 235.683594 572.589844 C 234.574219 573.117188 233.429688 573.558594 232.253906 573.914062 C 231.078125 574.273438 229.882812 574.542969 228.667969 574.722656 C 227.449219 574.902344 226.230469 574.996094 225 574.996094 Z M 225 574.996094 " fill-opacity="1" fill-rule="nonzero"/><path fill="#000000" d="M 525 574.996094 C 523.769531 574.996094 522.550781 574.902344 521.332031 574.722656 C 520.117188 574.542969 518.921875 574.273438 517.746094 573.914062 C 516.570312 573.558594 515.425781 573.117188 514.316406 572.589844 C 513.207031 572.066406 512.140625 571.460938 511.117188 570.777344 C 510.097656 570.09375 509.128906 569.339844 508.21875 568.515625 C 507.308594 567.691406 506.464844 566.800781 505.683594 565.851562 C 504.90625 564.902344 504.199219 563.898438 503.566406 562.847656 C 502.9375 561.792969 502.386719 560.695312 501.914062 559.5625 C 501.445312 558.425781 501.058594 557.261719 500.761719 556.070312 C 500.460938 554.878906 500.253906 553.671875 500.132812 552.449219 C 500.011719 551.226562 499.980469 550 500.039062 548.773438 C 500.101562 547.546875 500.25 546.328125 500.488281 545.125 C 500.726562 543.917969 501.054688 542.738281 501.46875 541.578125 C 501.878906 540.421875 502.375 539.300781 502.957031 538.21875 C 503.535156 537.132812 504.1875 536.097656 504.921875 535.109375 C 505.652344 534.121094 506.449219 533.195312 507.320312 532.324219 L 589.644531 450 L 507.320312 367.675781 C 506.71875 367.101562 506.148438 366.5 505.609375 365.867188 C 505.070312 365.238281 504.566406 364.582031 504.089844 363.898438 C 503.617188 363.21875 503.175781 362.511719 502.773438 361.789062 C 502.371094 361.0625 502.003906 360.320312 501.671875 359.558594 C 501.34375 358.796875 501.050781 358.019531 500.796875 357.230469 C 500.546875 356.4375 500.332031 355.636719 500.160156 354.824219 C 499.988281 354.011719 499.855469 353.195312 499.765625 352.367188 C 499.671875 351.542969 499.625 350.714844 499.613281 349.886719 C 499.605469 349.054688 499.636719 348.226562 499.710938 347.398438 C 499.785156 346.574219 499.898438 345.75 500.054688 344.9375 C 500.210938 344.121094 500.40625 343.316406 500.644531 342.519531 C 500.878906 341.722656 501.152344 340.941406 501.46875 340.171875 C 501.78125 339.402344 502.132812 338.652344 502.519531 337.917969 C 502.910156 337.183594 503.332031 336.472656 503.792969 335.78125 C 504.253906 335.089844 504.746094 334.421875 505.269531 333.78125 C 505.796875 333.136719 506.351562 332.523438 506.941406 331.933594 C 507.527344 331.347656 508.140625 330.792969 508.785156 330.265625 C 509.425781 329.742188 510.09375 329.25 510.785156 328.789062 C 511.476562 328.328125 512.191406 327.90625 512.925781 327.519531 C 513.660156 327.128906 514.410156 326.777344 515.179688 326.464844 C 515.949219 326.152344 516.730469 325.878906 517.527344 325.640625 C 518.320312 325.40625 519.128906 325.210938 519.945312 325.054688 C 520.757812 324.902344 521.582031 324.785156 522.40625 324.714844 C 523.234375 324.640625 524.0625 324.609375 524.894531 324.617188 C 525.722656 324.625 526.550781 324.675781 527.375 324.769531 C 528.203125 324.859375 529.019531 324.992188 529.832031 325.164062 C 530.644531 325.339844 531.445312 325.550781 532.234375 325.804688 C 533.027344 326.058594 533.804688 326.347656 534.566406 326.679688 C 535.328125 327.007812 536.070312 327.375 536.796875 327.78125 C 537.519531 328.183594 538.222656 328.625 538.90625 329.097656 C 539.585938 329.574219 540.242188 330.082031 540.875 330.621094 C 541.503906 331.160156 542.105469 331.730469 542.679688 332.328125 L 642.671875 432.320312 C 643.25 432.898438 643.800781 433.503906 644.320312 434.136719 C 644.839844 434.769531 645.328125 435.425781 645.78125 436.105469 C 646.238281 436.789062 646.660156 437.488281 647.046875 438.210938 C 647.429688 438.933594 647.78125 439.671875 648.09375 440.429688 C 648.410156 441.1875 648.683594 441.957031 648.921875 442.742188 C 649.160156 443.523438 649.359375 444.316406 649.519531 445.121094 C 649.679688 445.925781 649.800781 446.734375 649.878906 447.546875 C 649.960938 448.363281 650 449.179688 650 450 C 650 450.820312 649.960938 451.636719 649.878906 452.453125 C 649.800781 453.265625 649.679688 454.074219 649.519531 454.878906 C 649.359375 455.683594 649.160156 456.476562 648.921875 457.257812 C 648.683594 458.042969 648.410156 458.8125 648.09375 459.570312 C 647.78125 460.328125 647.429688 461.066406 647.046875 461.789062 C 646.660156 462.511719 646.238281 463.210938 645.78125 463.894531 C 645.328125 464.574219 644.839844 465.230469 644.320312 465.863281 C 643.800781 466.496094 643.25 467.101562 642.671875 467.679688 L 542.679688 567.671875 C 541.519531 568.835938 540.257812 569.871094 538.894531 570.785156 C 537.53125 571.699219 536.089844 572.472656 534.570312 573.097656 C 533.054688 573.726562 531.492188 574.203125 529.878906 574.519531 C 528.269531 574.839844 526.640625 574.996094 525 574.996094 Z M 525 574.996094 " fill-opacity="1" fill-rule="nonzero"/><path fill="#000000" d="M 325.003906 625.003906 C 324.019531 625.003906 323.035156 624.941406 322.058594 624.824219 C 321.078125 624.703125 320.109375 624.527344 319.152344 624.296875 C 318.191406 624.0625 317.25 623.773438 316.328125 623.429688 C 315.402344 623.085938 314.503906 622.6875 313.625 622.238281 C 312.75 621.785156 311.902344 621.285156 311.082031 620.734375 C 310.265625 620.183594 309.480469 619.585938 308.734375 618.945312 C 307.984375 618.300781 307.277344 617.617188 306.613281 616.890625 C 305.945312 616.164062 305.324219 615.398438 304.746094 614.597656 C 304.171875 613.800781 303.644531 612.96875 303.164062 612.105469 C 302.6875 611.242188 302.261719 610.355469 301.886719 609.441406 C 301.515625 608.53125 301.195312 607.597656 300.933594 606.648438 C 300.667969 605.699219 300.460938 604.734375 300.3125 603.761719 C 300.164062 602.785156 300.070312 601.804688 300.035156 600.820312 C 300.003906 599.835938 300.027344 598.851562 300.109375 597.867188 C 300.191406 596.882812 300.332031 595.910156 300.527344 594.945312 C 300.726562 593.976562 300.980469 593.027344 301.289062 592.089844 L 401.277344 292.089844 C 401.550781 291.328125 401.855469 290.582031 402.199219 289.847656 C 402.542969 289.117188 402.921875 288.402344 403.332031 287.707031 C 403.746094 287.011719 404.191406 286.335938 404.667969 285.683594 C 405.148438 285.03125 405.65625 284.402344 406.195312 283.800781 C 406.734375 283.195312 407.300781 282.621094 407.894531 282.074219 C 408.488281 281.523438 409.109375 281.007812 409.753906 280.519531 C 410.398438 280.03125 411.066406 279.574219 411.757812 279.152344 C 412.445312 278.726562 413.152344 278.339844 413.878906 277.984375 C 414.609375 277.628906 415.351562 277.3125 416.109375 277.027344 C 416.867188 276.746094 417.636719 276.5 418.417969 276.292969 C 419.199219 276.085938 419.988281 275.917969 420.785156 275.785156 C 421.585938 275.652344 422.386719 275.5625 423.195312 275.507812 C 424 275.453125 424.808594 275.441406 425.617188 275.464844 C 426.425781 275.492188 427.230469 275.554688 428.035156 275.660156 C 428.835938 275.761719 429.632812 275.902344 430.421875 276.085938 C 431.207031 276.265625 431.988281 276.484375 432.753906 276.738281 C 433.519531 276.996094 434.273438 277.285156 435.011719 277.617188 C 435.753906 277.945312 436.472656 278.308594 437.175781 278.707031 C 437.878906 279.105469 438.5625 279.539062 439.226562 280.003906 C 439.886719 280.46875 440.523438 280.964844 441.136719 281.492188 C 441.75 282.019531 442.335938 282.574219 442.898438 283.160156 C 443.457031 283.742188 443.988281 284.351562 444.488281 284.988281 C 444.988281 285.625 445.457031 286.28125 445.890625 286.964844 C 446.328125 287.644531 446.730469 288.34375 447.101562 289.066406 C 447.46875 289.785156 447.800781 290.519531 448.097656 291.273438 C 448.394531 292.023438 448.65625 292.789062 448.878906 293.566406 C 449.101562 294.34375 449.285156 295.132812 449.433594 295.925781 C 449.578125 296.722656 449.6875 297.523438 449.757812 298.328125 C 449.824219 299.136719 449.855469 299.941406 449.84375 300.75 C 449.835938 301.558594 449.789062 302.367188 449.699219 303.171875 C 449.613281 303.972656 449.484375 304.773438 449.320312 305.5625 C 449.15625 306.355469 448.953125 307.136719 448.710938 307.910156 L 348.71875 607.910156 C 348.308594 609.148438 347.800781 610.34375 347.203125 611.5 C 346.601562 612.660156 345.917969 613.761719 345.144531 614.8125 C 344.371094 615.863281 343.523438 616.847656 342.597656 617.765625 C 341.671875 618.683594 340.679688 619.523438 339.621094 620.285156 C 338.5625 621.046875 337.453125 621.722656 336.289062 622.3125 C 335.125 622.898438 333.925781 623.394531 332.683594 623.792969 C 331.445312 624.195312 330.179688 624.496094 328.890625 624.699219 C 327.605469 624.902344 326.308594 625.003906 325.003906 625.003906 Z M 325.003906 625.003906 " fill-opacity="1" fill-rule="nonzero"/></svg>