<svg xmlns="http://www.w3.org/2000/svg" xmlns:xlink="http://www.w3.org/1999/xlink" width="1000" zoomAndPan="magnify" viewBox="0 0 750 749.999995" height="1000" preserveAspectRatio="xMidYMid meet" version="1.0"><path fill="#004aad" d="M 735 0 L 15 0 C 6.714844 0 0 6.714844 0 15 C 0 36.792969 0 321.421875 0 735 C 0 743.28125 6.714844 750 15 750 L 735 750 C 743.28125 750 750 743.28125 750 735 C 750 507.515625 750 33.828125 750 15 C 750 6.714844 743.28125 0 735 0 Z M 30 30 L 720 30 L 720 120 L 30 120 Z M 720 720 L 30 720 L 30 150 L 720 150 Z M 720 720 " fill-opacity="1" fill-rule="nonzero"/><path fill="#004aad" d="M 690 60 L 660 60 L 660 90 L 690 90 Z M 690 60 " fill-opacity="1" fill-rule="nonzero"/><path fill="#004aad" d="M 630 60 L 600 60 L 600 90 L 630 90 Z M 630 60 " fill-opacity="1" fill-rule="nonzero"/><path fill="#004aad" d="M 570 60 L 540 60 L 540 90 L 570 90 Z M 570 60 " fill-opacity="1" fill-rule="nonzero"/><path fill="#004aad" d="M 75 450 L 675 450 C 683.28125 450 690 443.28125 690 435 L 690 195 C 690 186.714844 683.28125 180 675 180 L 75 180 C 66.714844 180 60 186.714844 60 195 L 60 435 C 60 443.28125 66.71875 450 75 450 Z M 90 210 L 660 210 L 660 420 L 90 420 Z M 90 210 " fill-opacity="1" fill-rule="nonzero"/><path fill="#004aad" d="M 75 690 L 675 690 C 683.28125 690 690 683.28125 690 675 L 690 495 C 690 486.71875 683.28125 480 675 480 L 75 480 C 66.714844 480 60 486.71875 60 495 L 60 675 C 60 683.28125 66.71875 690 75 690 Z M 90 510 L 660 510 L 660 660 L 90 660 Z M 90 510 " fill-opacity="1" fill-rule="nonzero"/><path fill="#004aad" d="M 375 540 C 350.1875 540 330 560.1875 330 585 C 330 609.8125 350.1875 630 375 630 C 399.8125 630 420 609.8125 420 585 C 420 560.1875 399.8125 540 375 540 Z M 375 600 C 366.730469 600 360 593.269531 360 585 C 360 576.730469 366.730469 570 375 570 C 383.269531 570 390 576.730469 390 585 C 390 593.269531 383.269531 600 375 600 Z M 375 600 " fill-opacity="1" fill-rule="nonzero"/><path fill="#004aad" d="M 255 540 C 230.1875 540 210 560.1875 210 585 C 210 609.8125 230.1875 630 255 630 C 279.8125 630 300 609.8125 300 585 C 300 560.1875 279.8125 540 255 540 Z M 255 600 C 246.730469 600 240 593.269531 240 585 C 240 576.730469 246.730469 570 255 570 C 263.269531 570 270 576.730469 270 585 C 270 593.269531 263.273438 600 255 600 Z M 255 600 " fill-opacity="1" fill-rule="nonzero"/><path fill="#004aad" d="M 495 540 C 470.1875 540 450 560.1875 450 585 C 450 609.8125 470.1875 630 495 630 C 519.8125 630 540 609.8125 540 585 C 540 560.1875 519.8125 540 495 540 Z M 495 600 C 486.730469 600 480 593.269531 480 585 C 480 576.730469 486.730469 570 495 570 C 503.269531 570 510 576.730469 510 585 C 510 593.269531 503.269531 600 495 600 Z M 495 600 " fill-opacity="1" fill-rule="nonzero"/><path fill="#004aad" d="M 505.605469 244.394531 C 499.746094 238.535156 490.253906 238.535156 484.390625 244.394531 C 478.535156 250.25 478.535156 259.75 484.390625 265.609375 L 533.785156 315 L 484.390625 364.394531 C 478.535156 370.25 478.535156 379.75 484.390625 385.609375 C 490.25 391.464844 499.746094 391.464844 505.605469 385.609375 L 565.605469 325.609375 C 571.460938 319.75 571.460938 310.253906 565.605469 304.394531 Z M 505.605469 244.394531 " fill-opacity="1" fill-rule="nonzero"/><path fill="#004aad" d="M 265.609375 244.394531 C 259.75 238.535156 250.253906 238.535156 244.394531 244.394531 L 184.394531 304.394531 C 178.535156 310.25 178.535156 319.75 184.394531 325.609375 L 244.394531 385.609375 C 250.253906 391.464844 259.75 391.464844 265.609375 385.609375 C 271.464844 379.75 271.464844 370.253906 265.609375 364.394531 L 216.214844 315 L 265.609375 265.605469 C 271.464844 259.75 271.464844 250.25 265.609375 244.394531 Z M 265.609375 244.394531 " fill-opacity="1" fill-rule="nonzero"/></svg>