<svg xmlns="http://www.w3.org/2000/svg" xmlns:xlink="http://www.w3.org/1999/xlink" width="1000" zoomAndPan="magnify" viewBox="0 0 750 749.999995" height="1000" preserveAspectRatio="xMidYMid meet" version="1.0"><defs><clipPath id="5a8ba4c20a"><path d="M 0 64.773438 L 750 64.773438 L 750 685.023438 L 0 685.023438 Z M 0 64.773438 " clip-rule="nonzero"/></clipPath></defs><g clip-path="url(#5a8ba4c20a)"><path fill="#ffffff" d="M 717.542969 323.628906 L 717.542969 258.992188 L 685.148438 258.992188 L 685.148438 194.203125 L 652.90625 194.203125 L 652.90625 129.5625 L 620.511719 129.5625 L 620.511719 64.773438 L 453.136719 64.773438 L 453.136719 167.507812 L 517.777344 167.507812 L 517.777344 232.296875 L 550.171875 232.296875 L 550.171875 361.722656 L 582.566406 361.722656 L 582.566406 388.269531 L 420.742188 388.269531 L 420.742188 453.058594 L 329.257812 453.058594 L 329.257812 388.269531 L 167.433594 388.269531 L 167.433594 361.722656 L 199.828125 361.722656 L 199.828125 232.296875 L 232.222656 232.296875 L 232.222656 167.507812 L 296.863281 167.507812 L 296.863281 64.773438 L 129.488281 64.773438 L 129.488281 129.5625 L 97.09375 129.5625 L 97.09375 194.203125 L 64.851562 194.203125 L 64.851562 258.992188 L 32.457031 258.992188 L 32.457031 323.628906 L 0.0625 323.628906 L 0.0625 620.582031 L 32.457031 620.582031 L 32.457031 685.222656 L 329.257812 685.222656 L 329.257812 620.433594 L 361.652344 620.433594 L 361.652344 555.792969 L 388.347656 555.792969 L 388.347656 620.433594 L 420.742188 620.433594 L 420.742188 685.222656 L 717.542969 685.222656 L 717.542969 620.582031 L 749.9375 620.582031 L 749.9375 323.628906 Z M 717.542969 323.628906 " fill-opacity="1" fill-rule="nonzero"/></g><path fill="#000000" d="M 698.648438 342.675781 L 698.648438 278.039062 L 666.253906 278.039062 L 666.253906 213.25 L 633.859375 213.25 L 633.859375 148.460938 L 601.464844 148.460938 L 601.464844 83.820312 L 472.035156 83.820312 L 472.035156 148.460938 L 536.824219 148.460938 L 536.824219 213.25 L 569.21875 213.25 L 569.21875 342.675781 L 601.464844 342.675781 L 601.464844 407.316406 L 439.789062 407.316406 L 439.789062 472.105469 L 310.210938 472.105469 L 310.210938 407.316406 L 148.535156 407.316406 L 148.535156 342.675781 L 180.78125 342.675781 L 180.78125 213.25 L 213.175781 213.25 L 213.175781 148.460938 L 277.964844 148.460938 L 277.964844 83.820312 L 148.535156 83.820312 L 148.535156 148.460938 L 116.140625 148.460938 L 116.140625 213.25 L 83.746094 213.25 L 83.746094 278.039062 L 51.351562 278.039062 L 51.351562 342.675781 L 19.109375 342.675781 L 19.109375 601.535156 L 51.351562 601.535156 L 51.351562 666.175781 L 310.210938 666.175781 L 310.210938 601.535156 L 342.605469 601.535156 L 342.605469 536.746094 L 407.394531 536.746094 L 407.394531 601.535156 L 439.789062 601.535156 L 439.789062 666.175781 L 698.648438 666.175781 L 698.648438 601.535156 L 730.890625 601.535156 L 730.890625 342.675781 Z M 698.648438 342.675781 " fill-opacity="1" fill-rule="nonzero"/><path fill="#ff3131" d="M 633.859375 472.105469 L 472.035156 472.105469 L 472.035156 601.535156 L 666.253906 601.535156 L 666.253906 472.105469 Z M 633.859375 472.105469 " fill-opacity="1" fill-rule="nonzero"/><path fill="#11b1f9" d="M 277.964844 536.746094 L 277.964844 472.105469 L 83.746094 472.105469 L 83.746094 601.535156 L 277.964844 601.535156 Z M 277.964844 536.746094 " fill-opacity="1" fill-rule="nonzero"/></svg>