<svg xmlns="http://www.w3.org/2000/svg" xmlns:xlink="http://www.w3.org/1999/xlink" width="1000" zoomAndPan="magnify" viewBox="0 0 750 749.999995" height="1000" preserveAspectRatio="xMidYMid meet" version="1.0"><defs><clipPath id="23de2f4f1d"><path d="M 0 25.226562 L 723 25.226562 L 723 724.976562 L 0 724.976562 Z M 0 25.226562 " clip-rule="nonzero"/></clipPath><clipPath id="2961416593"><path d="M 0 25.226562 L 723 25.226562 L 723 724.976562 L 0 724.976562 Z M 0 25.226562 " clip-rule="nonzero"/></clipPath><clipPath id="fc1a2c7366"><path d="M 65.480469 152 L 684.230469 152 L 684.230469 597 L 65.480469 597 Z M 65.480469 152 " clip-rule="nonzero"/></clipPath></defs><path fill="#26bcd6" d="M 159.464844 80.8125 L 78.984375 174.726562 L 27.242188 257.152344 L 11.917969 335.734375 L 8.089844 420.078125 L 40.664062 515.925781 L 103.894531 602.164062 L 180.539062 669.234375 L 301.253906 707.59375 L 398.992188 715.238281 L 523.519531 686.496094 L 636.5625 619.421875 L 701.710938 538.898438 L 732.382812 427.753906 L 732.382812 312.738281 L 709.386719 222.644531 L 651.914062 147.898438 L 584.832031 94.226562 L 519.679688 65.480469 L 456.46875 46.308594 L 377.902344 34.8125 L 324.234375 32.894531 L 247.605469 48.230469 L 159.464844 80.8125 " fill-opacity="1" fill-rule="evenodd"/><path fill="#cceaee" d="M 500.523438 99.984375 L 456.46875 82.730469 L 404.734375 73.144531 L 356.808594 76.984375 L 326.167969 99.984375 L 330.007812 136.398438 L 372.160156 168.980469 L 435.375 201.566406 L 496.6875 251.402344 L 552.257812 308.902344 L 581.023438 366.394531 L 590.601562 410.496094 L 588.667969 458.40625 L 582.925781 479.472656 L 604.019531 487.148438 L 625.082031 458.40625 L 638.496094 412.398438 L 638.496094 368.328125 L 628.917969 297.402344 L 590.601562 201.566406 L 540.773438 134.476562 L 500.523438 99.984375 " fill-opacity="1" fill-rule="evenodd"/><path fill="#26bcd6" d="M 167.125 88.480469 L 151.800781 113.394531 L 153.714844 149.8125 L 184.371094 186.230469 L 266.761719 222.644531 L 343.425781 247.566406 L 395.15625 280.148438 L 439.210938 331.902344 L 464.144531 379.816406 L 481.398438 429.660156 L 494.78125 500.570312 L 494.78125 583 L 481.398438 638.585938 L 456.46875 678.816406 L 410.476562 707.59375 L 345.328125 711.402344 L 239.941406 692.238281 L 153.714844 653.910156 L 88.566406 594.515625 L 36.828125 512.085938 L 8.089844 391.332031 L 21.5 291.652344 L 48.328125 205.394531 L 96.230469 142.144531 L 167.125 88.480469 " fill-opacity="1" fill-rule="evenodd"/><path fill="#ededed" d="M 613.597656 121.0625 L 625.082031 178.566406 L 607.855469 213.0625 L 638.496094 239.898438 L 688.296875 303.148438 L 686.421875 337.648438 L 736.21875 366.394531 L 715.128906 249.484375 L 673.007812 170.898438 L 613.597656 121.0625 " fill-opacity="1" fill-rule="evenodd"/><path fill="#54b948" d="M 31.082031 513.992188 L 84.730469 446.917969 L 86.652344 521.667969 L 115.386719 529.347656 L 117.304688 617.488281 L 61.734375 567.675781 L 31.082031 513.992188 " fill-opacity="1" fill-rule="evenodd"/><path fill="#54b948" d="M 671.070312 571.480469 L 673.007812 523.574219 L 653.816406 487.148438 L 621.273438 452.660156 L 628.917969 362.554688 L 680.652344 343.390625 L 728.546875 345.328125 L 732.382812 420.078125 L 713.226562 506.3125 L 671.070312 571.480469 " fill-opacity="1" fill-rule="evenodd"/><path fill="#cceaee" d="M 295.507812 703.753906 L 356.808594 678.816406 L 420.054688 673.074219 L 504.363281 661.554688 L 492.847656 694.171875 L 416.21875 711.402344 L 347.230469 717.175781 L 295.507812 703.753906 " fill-opacity="1" fill-rule="evenodd"/><path fill="#54b948" d="M 32.996094 257.152344 L 61.734375 280.148438 L 48.328125 343.390625 L 8.089844 370.234375 L 32.996094 257.152344 " fill-opacity="1" fill-rule="evenodd"/><path fill="#54b948" d="M 377.902344 650.070312 L 362.582031 579.160156 L 366.417969 535.058594 L 308.921875 492.890625 L 318.492188 450.757812 L 328.074219 414.304688 L 387.480469 385.589844 L 456.46875 362.554688 L 500.523438 366.394531 L 557.996094 389.398438 L 559.929688 439.242188 L 548.449219 527.410156 L 508.199219 540.800781 L 489.042969 540.800781 L 446.886719 563.835938 L 429.632812 600.226562 L 421.957031 628.972656 L 383.644531 663.492188 L 377.902344 650.070312 " fill-opacity="1" fill-rule="evenodd"/><path fill="#54b948" d="M 211.195312 328.066406 L 238.023438 358.746094 L 253.351562 374.074219 L 337.652344 412.398438 L 366.417969 399.011719 L 354.90625 389.398438 L 360.648438 351.070312 L 335.75 337.648438 L 310.839844 364.492188 L 284.011719 349.136719 L 291.671875 316.574219 L 211.195312 328.066406 " fill-opacity="1" fill-rule="evenodd"/><path fill="#54b948" d="M 272.519531 67.398438 L 331.910156 61.640625 L 354.90625 67.398438 L 343.425781 90.394531 L 307.003906 80.8125 L 284.011719 80.8125 L 272.519531 67.398438 " fill-opacity="1" fill-rule="evenodd"/><path fill="#49a942" d="M 276.347656 101.890625 L 224.613281 122.980469 L 211.195312 153.648438 L 159.464844 213.0625 L 163.292969 247.566406 L 159.464844 287.816406 L 176.710938 335.734375 L 199.703125 375.976562 L 207.367188 329.988281 L 238.023438 364.492188 L 287.84375 324.238281 L 337.652344 295.484375 L 368.324219 287.816406 L 385.578125 333.816406 L 402.800781 287.816406 L 423.894531 276.320312 L 454.53125 241.816406 L 504.363281 191.980469 L 492.847656 165.144531 L 421.957031 213.0625 L 446.886719 167.0625 L 494.78125 124.902344 L 452.628906 96.144531 L 414.3125 109.558594 L 377.902344 151.726562 L 377.902344 197.730469 L 362.582031 201.566406 L 349.164062 174.726562 L 310.839844 174.726562 L 307.003906 153.648438 L 314.65625 117.226562 L 307.003906 105.730469 L 276.347656 101.890625 " fill-opacity="1" fill-rule="evenodd"/><g clip-path="url(#23de2f4f1d)"><path fill="#000000" d="M 376 30.976562 L 320.429688 25.226562 L 262.933594 34.8125 L 209.285156 50.144531 L 174.792969 67.398438 L 140.296875 90.394531 L 105.8125 119.144531 L 69.402344 165.144531 L 48.328125 195.816406 L 27.242188 237.980469 L 11.917969 276.320312 L 2.34375 328.066406 L 0.425781 375.976562 L 6.167969 435.402344 L 21.5 487.148438 L 40.664062 538.898438 L 65.574219 579.160156 L 98.148438 617.488281 L 134.550781 650.070312 L 180.539062 678.816406 L 228.441406 698.011719 L 282.097656 713.335938 L 339.585938 722.917969 L 393.253906 724.820312 L 448.792969 719.078125 L 513.941406 701.820312 L 556.125 686.496094 L 607.855469 652.007812 L 653.816406 613.648438 L 678.746094 581.0625 L 709.386719 529.347656 L 720.902344 487.148438 L 722.804688 460.308594 L 713.226562 443.078125 L 709.386719 471.824219 L 701.710938 502.472656 L 680.652344 535.058594 L 678.746094 512.085938 L 665.332031 515.925781 L 667.234375 536.992188 L 669.167969 559.996094 L 638.496094 588.742188 L 619.339844 613.648438 L 584.832031 636.648438 L 550.351562 657.75 L 523.519531 674.976562 L 469.882812 688.398438 L 412.410156 696.074219 L 358.742188 698.011719 L 305.09375 694.171875 L 262.933594 678.816406 L 203.53125 659.683594 L 165.210938 634.746094 L 132.632812 605.96875 L 86.652344 567.675781 L 57.90625 521.667969 L 40.664062 485.246094 L 27.242188 443.078125 L 21.5 406.65625 L 19.578125 375.976562 L 25.332031 333.816406 L 32.996094 293.5625 L 50.246094 245.644531 L 78.984375 190.0625 L 107.722656 153.648438 L 136.46875 119.144531 L 176.710938 86.558594 L 224.613281 65.480469 L 266.761719 50.144531 L 326.167969 40.5625 L 376 30.976562 " fill-opacity="1" fill-rule="evenodd"/></g><path fill="#000000" d="M 433.472656 36.730469 L 498.621094 53.976562 L 544.613281 71.230469 L 590.601562 92.316406 L 630.820312 121.0625 L 686.421875 176.652344 L 715.128906 226.484375 L 732.382812 264.816406 L 743.894531 306.988281 L 749.636719 351.070312 L 745.800781 400.882812 L 734.316406 454.566406 L 728.546875 421.980469 L 718.964844 387.492188 L 720.902344 351.070312 L 717.0625 295.484375 L 705.550781 259.070312 L 688.296875 222.644531 L 669.167969 190.0625 L 644.238281 165.144531 L 594.410156 119.144531 L 552.257812 92.316406 L 506.265625 75.0625 L 454.53125 53.976562 L 433.472656 36.730469 " fill-opacity="1" fill-rule="evenodd"/><path fill="#000000" d="M 40.664062 239.898438 L 78.984375 205.394531 L 103.894531 191.980469 L 142.21875 170.898438 L 188.199219 147.898438 L 209.285156 144.0625 L 209.285156 151.726562 L 174.792969 168.980469 L 128.804688 193.902344 L 84.730469 224.566406 L 31.082031 259.070312 L 40.664062 239.898438 " fill-opacity="1" fill-rule="evenodd"/><path fill="#000000" d="M 15.75 372.167969 L 27.242188 354.910156 L 44.492188 349.136719 L 57.90625 345.328125 L 59.820312 335.734375 L 63.65625 306.988281 L 71.320312 282.070312 L 69.402344 270.5625 L 34.910156 253.3125 L 27.242188 272.484375 L 48.328125 278.234375 L 48.328125 295.484375 L 42.582031 314.652344 L 38.746094 333.816406 L 29.160156 343.390625 L 11.917969 347.230469 L 15.75 372.167969 " fill-opacity="1" fill-rule="evenodd"/><path fill="#000000" d="M 15.75 431.5625 L 46.410156 399.011719 L 84.730469 362.554688 L 124.972656 333.816406 L 163.292969 312.738281 L 203.53125 295.484375 L 247.605469 282.070312 L 132.632812 351.070312 L 98.148438 375.976562 L 73.238281 393.234375 L 44.492188 420.078125 L 17.671875 446.917969 L 15.75 431.5625 " fill-opacity="1" fill-rule="evenodd"/><path fill="#000000" d="M 36.828125 506.3125 L 59.820312 464.179688 L 84.730469 439.242188 L 98.148438 446.917969 L 92.394531 517.832031 L 111.558594 517.832031 L 123.054688 527.410156 L 126.890625 548.480469 L 128.804688 579.160156 L 159.464844 546.574219 L 193.957031 521.667969 L 232.277344 502.472656 L 272.519531 481.40625 L 326.167969 460.308594 L 376 454.566406 L 410.476562 454.566406 L 397.058594 466.050781 L 330.007812 481.40625 L 285.925781 496.730469 L 249.523438 515.925781 L 211.195312 535.058594 L 174.792969 559.996094 L 136.46875 594.515625 L 132.632812 623.230469 L 111.558594 604.066406 L 111.558594 548.480469 L 109.640625 538.898438 L 96.230469 531.21875 L 82.8125 531.21875 L 77.066406 521.667969 L 78.984375 469.921875 L 67.484375 487.148438 L 61.734375 502.472656 L 48.328125 523.574219 L 36.828125 506.3125 " fill-opacity="1" fill-rule="evenodd"/><path fill="#000000" d="M 136.46875 232.234375 L 126.890625 257.152344 L 121.140625 295.484375 L 117.304688 343.390625 L 123.054688 389.398438 L 128.804688 431.5625 L 136.46875 469.921875 L 149.878906 504.410156 L 167.125 552.316406 L 188.199219 586.835938 L 213.113281 617.488281 L 249.523438 652.007812 L 312.753906 707.59375 L 362.582031 713.335938 L 339.585938 690.332031 L 364.484375 682.65625 L 408.574219 676.914062 L 421.957031 682.65625 L 441.148438 682.65625 L 458.371094 674.976562 L 489.042969 671.136719 L 489.042969 690.332031 L 519.679688 669.234375 L 557.996094 638.585938 L 590.601562 605.96875 L 613.597656 581.0625 L 630.820312 546.574219 L 615.5 548.480469 L 605.921875 561.898438 L 586.765625 583 L 571.414062 607.90625 L 531.195312 640.488281 L 502.457031 659.683594 L 469.882812 659.683594 L 446.886719 663.492188 L 431.539062 667.332031 L 441.148438 650.070312 L 454.53125 617.488281 L 443.050781 625.164062 L 427.699219 648.167969 L 418.152344 661.554688 L 374.0625 671.136719 L 351.066406 676.914062 L 328.074219 676.914062 L 305.09375 667.332031 L 282.097656 652.007812 L 253.351562 625.164062 L 228.441406 598.324219 L 203.53125 567.671875 L 184.371094 538.898438 L 167.125 502.472656 L 155.625 467.984375 L 146.050781 437.304688 L 140.296875 399.007812 L 136.46875 352.972656 L 132.632812 303.148438 L 138.390625 268.652344 L 140.296875 247.566406 L 136.46875 232.234375 " fill-opacity="1" fill-rule="evenodd"/><path fill="#000000" d="M 270.597656 38.640625 L 236.105469 63.5625 L 213.113281 84.648438 L 174.792969 130.644531 L 155.625 176.652344 L 176.710938 163.234375 L 195.867188 132.566406 L 220.78125 101.890625 L 241.859375 78.890625 L 264.851562 59.730469 L 291.671875 40.5625 L 270.597656 38.640625 " fill-opacity="1" fill-rule="evenodd"/><path fill="#000000" d="M 337.652344 44.398438 L 368.324219 61.640625 L 391.320312 78.890625 L 410.476562 96.144531 L 431.539062 124.902344 L 454.53125 168.980469 L 467.949219 211.152344 L 485.203125 257.152344 L 494.78125 316.574219 L 494.78125 395.140625 L 492.847656 456.5 L 487.105469 490.988281 L 481.398438 529.347656 L 467.949219 569.578125 L 454.53125 605.96875 L 469.882812 594.515625 L 487.105469 556.15625 L 502.457031 502.472656 L 510.101562 439.242188 L 513.941406 395.140625 L 508.199219 329.988281 L 504.363281 272.484375 L 492.847656 230.316406 L 479.464844 190.0625 L 456.46875 136.398438 L 439.214844 103.8125 L 412.410156 75.0625 L 385.578125 57.8125 L 368.324219 42.476562 L 337.652344 44.398438 " fill-opacity="1" fill-rule="evenodd"/><path fill="#000000" d="M 301.253906 262.894531 L 356.808594 247.566406 L 412.410156 239.898438 L 454.53125 237.980469 L 498.621094 234.152344 L 554.191406 241.816406 L 596.34375 251.402344 L 671.070312 276.320312 L 697.875 293.5625 L 738.125 328.066406 L 732.382812 372.167969 L 711.320312 360.652344 L 703.644531 345.328125 L 711.320312 335.734375 L 699.808594 320.402344 L 667.234375 295.484375 L 636.5625 283.988281 L 592.507812 268.652344 L 546.515625 259.070312 L 508.199219 255.230469 L 464.144531 251.402344 L 418.152344 253.3125 L 372.160156 260.980469 L 339.585938 266.738281 L 293.59375 278.234375 L 301.253906 262.894531 " fill-opacity="1" fill-rule="evenodd"/><path fill="#000000" d="M 379.804688 385.589844 L 414.3125 372.167969 L 443.050781 360.652344 L 487.105469 358.746094 L 481.398438 372.167969 L 450.726562 372.167969 L 421.957031 381.75 L 383.644531 400.882812 L 379.804688 385.589844 " fill-opacity="1" fill-rule="evenodd"/><path fill="#000000" d="M 454.53125 460.308594 L 498.621094 454.566406 L 554.191406 458.40625 L 586.765625 467.984375 L 615.5 481.40625 L 649.980469 515.925781 L 659.589844 535.058594 L 667.234375 583 L 617.4375 625.164062 L 632.757812 590.675781 L 638.496094 561.898438 L 636.5625 531.21875 L 623.144531 508.25 L 602.085938 494.828125 L 575.25 483.3125 L 548.449219 477.566406 L 515.875 469.921875 L 475.625 469.921875 L 454.53125 471.824219 L 454.53125 460.308594 " fill-opacity="1" fill-rule="evenodd"/><path fill="#000000" d="M 529.292969 364.492188 L 538.871094 375.976562 L 563.769531 375.976562 L 573.347656 389.398438 L 571.414062 425.820312 L 563.769531 469.921875 L 559.933594 508.25 L 554.191406 531.21875 L 531.195312 542.738281 L 485.203125 542.738281 L 487.105469 531.21875 L 508.199219 535.058594 L 531.195312 525.507812 L 544.613281 510.152344 L 548.449219 471.824219 L 556.125 420.078125 L 554.191406 393.234375 L 540.773438 389.398438 L 527.355469 383.652344 L 529.292969 364.492188 " fill-opacity="1" fill-rule="evenodd"/><path fill="#000000" d="M 372.160156 628.972656 L 374.0625 657.75 L 383.644531 663.492188 L 404.734375 648.167969 L 431.539062 630.90625 L 443.050781 613.648438 L 441.148438 596.417969 L 450.726562 579.160156 L 466.046875 559.996094 L 456.46875 546.574219 L 443.050781 563.835938 L 431.539062 577.253906 L 423.894531 594.515625 L 421.957031 613.648438 L 416.21875 625.164062 L 400.898438 636.648438 L 389.382812 646.230469 L 381.738281 623.230469 L 372.160156 628.972656 " fill-opacity="1" fill-rule="evenodd"/><path fill="#000000" d="M 619.339844 134.476562 L 634.660156 168.980469 L 653.816406 197.730469 L 671.070312 228.40625 L 678.746094 247.566406 L 711.320312 241.816406 L 713.226562 255.230469 L 686.421875 262.894531 L 690.230469 299.320312 L 694.066406 349.132812 L 690.230469 395.140625 L 684.488281 425.820312 L 667.234375 473.730469 L 667.234375 454.566406 L 676.8125 395.140625 L 678.746094 347.230469 L 678.746094 310.816406 L 669.167969 270.5625 L 661.492188 239.898438 L 648.074219 213.0625 L 630.820312 190.0625 L 615.5 211.152344 L 630.820312 228.40625 L 646.171875 237.980469 L 644.238281 247.566406 L 628.917969 245.644531 L 605.921875 228.40625 L 594.410156 213.0625 L 605.921875 195.816406 L 619.339844 176.652344 L 609.761719 151.726562 L 596.34375 138.3125 L 563.769531 121.0625 L 512.039062 107.648438 L 431.539062 103.8125 L 353.003906 103.8125 L 301.253906 113.394531 L 280.179688 119.144531 L 270.597656 111.480469 L 299.335938 103.8125 L 364.484375 92.316406 L 416.21875 86.558594 L 489.042969 90.394531 L 544.613281 101.890625 L 604.019531 111.480469 L 619.339844 134.476562 " fill-opacity="1" fill-rule="evenodd"/><path fill="#000000" d="M 249.523438 377.910156 L 307.003906 399.011719 L 328.074219 406.65625 L 314.65625 437.304688 L 299.335938 479.472656 L 295.507812 496.730469 L 308.921875 508.25 L 339.585938 525.507812 L 358.742188 535.058594 L 358.742188 586.835938 L 368.324219 609.808594 L 372.160156 590.675781 L 370.226562 561.898438 L 376 544.640625 L 372.160156 525.507812 L 351.070312 515.925781 L 333.84375 502.472656 L 312.753906 490.988281 L 324.234375 443.078125 L 343.425781 420.078125 L 337.652344 400.882812 L 308.921875 383.652344 L 278.257812 372.167969 L 262.933594 364.492188 L 249.523438 377.910156 " fill-opacity="1" fill-rule="evenodd"/><path fill="#000000" d="M 239.941406 358.746094 L 236.105469 343.390625 L 226.519531 324.238281 L 215.03125 314.652344 L 193.957031 320.402344 L 186.289062 341.488281 L 180.539062 333.816406 L 169.042969 335.734375 L 169.042969 343.390625 L 186.289062 366.394531 L 199.703125 381.75 L 213.113281 377.910156 L 209.285156 364.492188 L 203.53125 347.230469 L 201.621094 333.816406 L 211.195312 329.988281 L 218.859375 345.328125 L 230.359375 362.554688 L 239.941406 368.328125 L 239.941406 358.746094 " fill-opacity="1" fill-rule="evenodd"/><path fill="#000000" d="M 236.105469 142.144531 L 213.113281 168.980469 L 190.117188 186.230469 L 169.042969 218.816406 L 176.710938 228.40625 L 176.710938 245.644531 L 170.953125 262.894531 L 167.125 285.898438 L 169.042969 322.320312 L 155.625 306.988281 L 147.964844 278.234375 L 155.625 249.484375 L 157.542969 234.152344 L 151.800781 222.644531 L 157.542969 205.394531 L 174.792969 184.316406 L 203.53125 159.398438 L 234.195312 132.566406 L 236.105469 142.144531 " fill-opacity="1" fill-rule="evenodd"/><path fill="#000000" d="M 216.953125 119.144531 L 241.859375 105.730469 L 266.761719 96.144531 L 284.011719 98.0625 L 274.429688 105.730469 L 251.4375 115.316406 L 232.277344 119.144531 L 216.953125 134.476562 L 216.953125 119.144531 " fill-opacity="1" fill-rule="evenodd"/><path fill="#000000" d="M 307.003906 119.144531 L 308.921875 130.644531 L 303.175781 144.0625 L 301.253906 159.398438 L 305.09375 172.820312 L 314.65625 182.394531 L 331.910156 184.316406 L 345.328125 182.394531 L 351.070312 201.566406 L 368.324219 209.230469 L 381.738281 201.566406 L 387.480469 184.316406 L 389.382812 155.566406 L 408.574219 132.566406 L 406.636719 111.480469 L 393.253906 119.144531 L 385.578125 134.476562 L 368.324219 153.648438 L 372.160156 172.820312 L 370.226562 191.980469 L 362.582031 186.230469 L 358.742188 168.980469 L 343.425781 159.398438 L 331.910156 168.980469 L 320.429688 163.234375 L 318.492188 145.984375 L 330.007812 119.144531 L 320.429688 113.394531 L 307.003906 119.144531 " fill-opacity="1" fill-rule="evenodd"/><path fill="#000000" d="M 462.207031 98.0625 L 487.105469 113.394531 L 508.199219 119.144531 L 506.265625 132.566406 L 475.625 155.566406 L 435.375 193.902344 L 494.78125 159.398438 L 506.265625 167.0625 L 512.039062 199.648438 L 498.621094 209.230469 L 483.300781 213.0625 L 460.304688 239.898438 L 443.050781 264.816406 L 431.539062 282.070312 L 414.3125 293.5625 L 400.898438 295.484375 L 402.800781 312.738281 L 397.058594 333.816406 L 383.644531 337.648438 L 376 329.988281 L 370.226562 316.574219 L 368.324219 303.148438 L 356.808594 295.484375 L 335.75 303.148438 L 314.65625 316.574219 L 310.839844 303.148438 L 339.585938 285.898438 L 364.484375 278.234375 L 379.804688 282.070312 L 379.804688 299.320312 L 385.578125 320.402344 L 389.382812 303.148438 L 395.15625 285.898438 L 418.152344 278.234375 L 441.148438 257.152344 L 454.53125 234.148438 L 481.398438 205.394531 L 487.105469 190.0625 L 485.203125 176.648438 L 466.046875 190.0625 L 439.210938 207.3125 L 421.957031 220.734375 L 410.476562 207.3125 L 435.375 176.648438 L 456.46875 153.648438 L 485.203125 132.566406 L 466.046875 117.226562 L 448.792969 98.0625 L 462.207031 98.0625 " fill-opacity="1" fill-rule="evenodd"/><path fill="#000000" d="M 686.421875 328.066406 L 619.339844 358.746094 L 623.144531 389.398438 L 617.4375 421.980469 L 613.597656 443.078125 L 609.761719 460.308594 L 628.917969 473.730469 L 657.65625 494.828125 L 669.167969 492.890625 L 661.492188 481.40625 L 646.171875 464.179688 L 628.917969 454.566406 L 634.660156 416.238281 L 642.335938 381.75 L 646.171875 366.394531 L 669.167969 351.070312 L 686.421875 347.230469 L 686.421875 328.066406 " fill-opacity="1" fill-rule="evenodd"/><path fill="#000000" d="M 293.59375 310.816406 L 282.097656 329.988281 L 282.097656 351.070312 L 297.425781 364.492188 L 316.589844 372.167969 L 330.007812 360.652344 L 335.75 349.132812 L 351.070312 358.746094 L 337.652344 366.394531 L 335.75 379.816406 L 343.425781 389.398438 L 366.417969 402.816406 L 370.226562 391.332031 L 360.648438 383.652344 L 358.742188 375.976562 L 366.417969 366.394531 L 368.324219 356.8125 L 360.648438 341.488281 L 347.230469 331.902344 L 331.910156 333.816406 L 320.429688 349.136719 L 310.839844 354.910156 L 295.507812 347.230469 L 297.425781 333.816406 L 305.09375 320.402344 L 293.59375 310.816406 " fill-opacity="1" fill-rule="evenodd"/><path fill="#000000" d="M 272.519531 63.5625 L 316.589844 57.8125 L 339.585938 53.976562 L 358.742188 63.5625 L 345.328125 101.890625 L 331.910156 90.394531 L 305.09375 86.558594 L 282.097656 80.8125 L 297.425781 75.0625 L 322.332031 76.984375 L 335.75 80.8125 L 345.328125 69.308594 L 324.234375 67.398438 L 305.09375 67.398438 L 270.597656 75.0625 L 272.519531 63.5625 " fill-opacity="1" fill-rule="evenodd"/><path fill="#7ed0e0" d="M 159.464844 80.8125 L 78.984375 174.726562 L 27.242188 257.152344 L 11.917969 335.734375 L 8.089844 420.078125 L 40.664062 515.925781 L 103.894531 602.164062 L 180.539062 669.234375 L 301.253906 707.59375 L 398.992188 715.238281 L 523.519531 686.496094 L 636.5625 619.421875 L 701.710938 538.898438 L 732.382812 427.753906 L 732.382812 312.738281 L 709.386719 222.644531 L 651.914062 147.898438 L 584.832031 94.226562 L 519.679688 65.480469 L 456.46875 46.308594 L 377.902344 34.8125 L 324.234375 32.894531 L 247.605469 48.230469 L 159.464844 80.8125 " fill-opacity="1" fill-rule="evenodd"/><path fill="#cceaee" d="M 500.523438 99.984375 L 456.46875 82.730469 L 404.734375 73.144531 L 356.808594 76.984375 L 326.167969 99.984375 L 330.007812 136.398438 L 372.160156 168.980469 L 435.375 201.566406 L 496.6875 251.402344 L 552.257812 308.902344 L 581.023438 366.394531 L 590.601562 410.496094 L 588.667969 458.40625 L 582.925781 479.472656 L 604.019531 487.148438 L 625.082031 458.40625 L 638.496094 412.398438 L 638.496094 368.328125 L 628.917969 297.402344 L 590.601562 201.566406 L 540.773438 134.476562 L 500.523438 99.984375 " fill-opacity="1" fill-rule="evenodd"/><path fill="#26bcd6" d="M 167.125 88.480469 L 151.800781 113.394531 L 153.714844 149.8125 L 184.371094 186.230469 L 266.761719 222.644531 L 343.425781 247.566406 L 395.15625 280.148438 L 439.210938 331.902344 L 464.144531 379.816406 L 481.398438 429.660156 L 494.78125 500.570312 L 494.78125 583 L 481.398438 638.585938 L 456.46875 678.816406 L 410.476562 707.59375 L 345.328125 711.402344 L 239.941406 692.238281 L 153.714844 653.910156 L 88.566406 594.515625 L 36.828125 512.085938 L 8.089844 391.332031 L 21.5 291.652344 L 48.328125 205.394531 L 96.230469 142.144531 L 167.125 88.480469 " fill-opacity="1" fill-rule="evenodd"/><path fill="#73c167" d="M 613.597656 121.0625 L 625.082031 178.566406 L 607.855469 213.0625 L 638.496094 239.898438 L 688.296875 303.148438 L 686.421875 337.648438 L 736.21875 366.394531 L 715.128906 249.484375 L 673.007812 170.898438 L 613.597656 121.0625 " fill-opacity="1" fill-rule="evenodd"/><path fill="#54b948" d="M 31.082031 513.992188 L 84.730469 446.917969 L 86.652344 521.667969 L 115.386719 529.347656 L 117.304688 617.488281 L 61.734375 567.675781 L 31.082031 513.992188 " fill-opacity="1" fill-rule="evenodd"/><path fill="#54b948" d="M 671.070312 571.480469 L 673.007812 523.574219 L 653.816406 487.148438 L 621.273438 452.660156 L 628.917969 362.554688 L 680.652344 343.390625 L 728.546875 345.328125 L 732.382812 420.078125 L 713.226562 506.3125 L 671.070312 571.480469 " fill-opacity="1" fill-rule="evenodd"/><path fill="#ffffff" d="M 295.507812 703.753906 L 356.808594 678.816406 L 420.054688 673.074219 L 504.363281 661.554688 L 492.847656 694.171875 L 416.21875 711.402344 L 347.230469 717.175781 L 295.507812 703.753906 " fill-opacity="1" fill-rule="evenodd"/><path fill="#54b948" d="M 32.996094 257.152344 L 61.734375 280.148438 L 48.328125 343.390625 L 8.089844 370.234375 L 32.996094 257.152344 " fill-opacity="1" fill-rule="evenodd"/><path fill="#54b948" d="M 377.902344 650.070312 L 362.582031 579.160156 L 366.417969 535.058594 L 308.921875 492.890625 L 318.492188 450.757812 L 328.074219 414.304688 L 387.480469 385.589844 L 456.46875 362.554688 L 500.523438 366.394531 L 557.996094 389.398438 L 559.929688 439.242188 L 548.449219 527.410156 L 508.199219 540.800781 L 489.042969 540.800781 L 446.886719 563.835938 L 429.632812 600.226562 L 421.957031 628.972656 L 383.644531 663.492188 L 377.902344 650.070312 " fill-opacity="1" fill-rule="evenodd"/><path fill="#54b948" d="M 211.195312 328.066406 L 238.023438 358.746094 L 253.351562 374.074219 L 337.652344 412.398438 L 366.417969 399.011719 L 354.90625 389.398438 L 360.648438 351.070312 L 335.75 337.648438 L 310.839844 364.492188 L 284.011719 349.136719 L 291.671875 316.574219 L 211.195312 328.066406 " fill-opacity="1" fill-rule="evenodd"/><path fill="#54b948" d="M 272.519531 67.398438 L 331.910156 61.640625 L 354.90625 67.398438 L 343.425781 90.394531 L 307.003906 80.8125 L 284.011719 80.8125 L 272.519531 67.398438 " fill-opacity="1" fill-rule="evenodd"/><path fill="#49a942" d="M 276.347656 101.890625 L 224.613281 122.980469 L 211.195312 153.648438 L 159.464844 213.0625 L 163.292969 247.566406 L 159.464844 287.816406 L 176.710938 335.734375 L 199.703125 375.976562 L 207.367188 329.988281 L 238.023438 364.492188 L 287.84375 324.238281 L 337.652344 295.484375 L 368.324219 287.816406 L 385.578125 333.816406 L 402.800781 287.816406 L 423.894531 276.320312 L 454.53125 241.816406 L 504.363281 191.980469 L 492.847656 165.144531 L 421.957031 213.0625 L 446.886719 167.0625 L 494.78125 124.902344 L 452.628906 96.144531 L 414.3125 109.558594 L 377.902344 151.726562 L 377.902344 197.730469 L 362.582031 201.566406 L 349.164062 174.726562 L 310.839844 174.726562 L 307.003906 153.648438 L 314.65625 117.226562 L 307.003906 105.730469 L 276.347656 101.890625 " fill-opacity="1" fill-rule="evenodd"/><g clip-path="url(#2961416593)"><path fill="#000000" d="M 376 30.976562 L 320.429688 25.226562 L 262.933594 34.8125 L 209.285156 50.144531 L 174.792969 67.398438 L 140.296875 90.394531 L 105.8125 119.144531 L 69.402344 165.144531 L 48.328125 195.816406 L 27.242188 237.980469 L 11.917969 276.320312 L 2.34375 328.066406 L 0.425781 375.976562 L 6.167969 435.402344 L 21.5 487.148438 L 40.664062 538.898438 L 65.574219 579.160156 L 98.148438 617.488281 L 134.550781 650.070312 L 180.539062 678.816406 L 228.441406 698.011719 L 282.097656 713.335938 L 339.585938 722.917969 L 393.253906 724.820312 L 448.792969 719.078125 L 513.941406 701.820312 L 556.125 686.496094 L 607.855469 652.007812 L 653.816406 613.648438 L 678.746094 581.0625 L 709.386719 529.347656 L 720.902344 487.148438 L 722.804688 460.308594 L 713.226562 443.078125 L 709.386719 471.824219 L 701.710938 502.472656 L 680.652344 535.058594 L 678.746094 512.085938 L 665.332031 515.925781 L 667.234375 536.992188 L 669.167969 559.996094 L 638.496094 588.742188 L 619.339844 613.648438 L 584.832031 636.648438 L 550.351562 657.75 L 523.519531 674.976562 L 469.882812 688.398438 L 412.410156 696.074219 L 358.742188 698.011719 L 305.09375 694.171875 L 262.933594 678.816406 L 203.53125 659.683594 L 165.210938 634.746094 L 132.632812 605.96875 L 86.652344 567.675781 L 57.90625 521.667969 L 40.664062 485.246094 L 27.242188 443.078125 L 21.5 406.65625 L 19.578125 375.976562 L 25.332031 333.816406 L 32.996094 293.5625 L 50.246094 245.644531 L 78.984375 190.0625 L 107.722656 153.648438 L 136.46875 119.144531 L 176.710938 86.558594 L 224.613281 65.480469 L 266.761719 50.144531 L 326.167969 40.5625 L 376 30.976562 " fill-opacity="1" fill-rule="evenodd"/></g><path fill="#000000" d="M 433.472656 36.730469 L 498.621094 53.976562 L 544.613281 71.230469 L 590.601562 92.316406 L 630.820312 121.0625 L 686.421875 176.652344 L 715.128906 226.484375 L 732.382812 264.816406 L 743.894531 306.988281 L 749.636719 351.070312 L 745.800781 400.882812 L 734.316406 454.566406 L 728.546875 421.980469 L 718.964844 387.492188 L 720.902344 351.070312 L 717.0625 295.484375 L 705.550781 259.070312 L 688.296875 222.644531 L 669.167969 190.0625 L 644.238281 165.144531 L 594.410156 119.144531 L 552.257812 92.316406 L 506.265625 75.0625 L 454.53125 53.976562 L 433.472656 36.730469 " fill-opacity="1" fill-rule="evenodd"/><path fill="#000000" d="M 40.664062 239.898438 L 78.984375 205.394531 L 103.894531 191.980469 L 142.21875 170.898438 L 188.199219 147.898438 L 209.285156 144.0625 L 209.285156 151.726562 L 174.792969 168.980469 L 128.804688 193.902344 L 84.730469 224.566406 L 31.082031 259.070312 L 40.664062 239.898438 " fill-opacity="1" fill-rule="evenodd"/><path fill="#000000" d="M 15.75 372.167969 L 27.242188 354.910156 L 44.492188 349.136719 L 57.90625 345.328125 L 59.820312 335.734375 L 63.65625 306.988281 L 71.320312 282.070312 L 69.402344 270.5625 L 34.910156 253.3125 L 27.242188 272.484375 L 48.328125 278.234375 L 48.328125 295.484375 L 42.582031 314.652344 L 38.746094 333.816406 L 29.160156 343.390625 L 11.917969 347.230469 L 15.75 372.167969 " fill-opacity="1" fill-rule="evenodd"/><path fill="#000000" d="M 15.75 431.5625 L 46.410156 399.011719 L 84.730469 362.554688 L 124.972656 333.816406 L 163.292969 312.738281 L 203.53125 295.484375 L 247.605469 282.070312 L 132.632812 351.070312 L 98.148438 375.976562 L 73.238281 393.234375 L 44.492188 420.078125 L 17.671875 446.917969 L 15.75 431.5625 " fill-opacity="1" fill-rule="evenodd"/><path fill="#000000" d="M 36.828125 506.3125 L 59.820312 464.179688 L 84.730469 439.242188 L 98.148438 446.917969 L 92.394531 517.832031 L 111.558594 517.832031 L 123.054688 527.410156 L 126.890625 548.480469 L 128.804688 579.160156 L 159.464844 546.574219 L 193.957031 521.667969 L 232.277344 502.472656 L 272.519531 481.40625 L 326.167969 460.308594 L 376 454.566406 L 410.476562 454.566406 L 397.058594 466.050781 L 330.007812 481.40625 L 285.925781 496.730469 L 249.523438 515.925781 L 211.195312 535.058594 L 174.792969 559.996094 L 136.46875 594.515625 L 132.632812 623.230469 L 111.558594 604.066406 L 111.558594 548.480469 L 109.640625 538.898438 L 96.230469 531.21875 L 82.8125 531.21875 L 77.066406 521.667969 L 78.984375 469.921875 L 67.484375 487.148438 L 61.734375 502.472656 L 48.328125 523.574219 L 36.828125 506.3125 " fill-opacity="1" fill-rule="evenodd"/><path fill="#000000" d="M 136.46875 232.234375 L 126.890625 257.152344 L 121.140625 295.484375 L 117.304688 343.390625 L 123.054688 389.398438 L 128.804688 431.5625 L 136.46875 469.921875 L 149.878906 504.410156 L 167.125 552.316406 L 188.199219 586.835938 L 213.113281 617.488281 L 249.523438 652.007812 L 312.753906 707.59375 L 362.582031 713.335938 L 339.585938 690.332031 L 364.484375 682.65625 L 408.574219 676.914062 L 421.957031 682.65625 L 441.148438 682.65625 L 458.371094 674.976562 L 489.042969 671.136719 L 489.042969 690.332031 L 519.679688 669.234375 L 557.996094 638.585938 L 590.601562 605.96875 L 613.597656 581.0625 L 630.820312 546.574219 L 615.5 548.480469 L 605.921875 561.898438 L 586.765625 583 L 571.414062 607.90625 L 531.195312 640.488281 L 502.457031 659.683594 L 469.882812 659.683594 L 446.886719 663.492188 L 431.539062 667.332031 L 441.148438 650.070312 L 454.53125 617.488281 L 443.050781 625.164062 L 427.699219 648.167969 L 418.152344 661.554688 L 374.0625 671.136719 L 351.066406 676.914062 L 328.074219 676.914062 L 305.09375 667.332031 L 282.097656 652.007812 L 253.351562 625.164062 L 228.441406 598.324219 L 203.53125 567.671875 L 184.371094 538.898438 L 167.125 502.472656 L 155.625 467.984375 L 146.050781 437.304688 L 140.296875 399.007812 L 136.46875 352.972656 L 132.632812 303.148438 L 138.390625 268.652344 L 140.296875 247.566406 L 136.46875 232.234375 " fill-opacity="1" fill-rule="evenodd"/><path fill="#000000" d="M 270.597656 38.640625 L 236.105469 63.5625 L 213.113281 84.648438 L 174.792969 130.644531 L 155.625 176.652344 L 176.710938 163.234375 L 195.867188 132.566406 L 220.78125 101.890625 L 241.859375 78.890625 L 264.851562 59.730469 L 291.671875 40.5625 L 270.597656 38.640625 " fill-opacity="1" fill-rule="evenodd"/><path fill="#000000" d="M 337.652344 44.398438 L 368.324219 61.640625 L 391.320312 78.890625 L 410.476562 96.144531 L 431.539062 124.902344 L 454.53125 168.980469 L 467.949219 211.152344 L 485.203125 257.152344 L 494.78125 316.574219 L 494.78125 395.140625 L 492.847656 456.5 L 487.105469 490.988281 L 481.398438 529.347656 L 467.949219 569.578125 L 454.53125 605.96875 L 469.882812 594.515625 L 487.105469 556.15625 L 502.457031 502.472656 L 510.101562 439.242188 L 513.941406 395.140625 L 508.199219 329.988281 L 504.363281 272.484375 L 492.847656 230.316406 L 479.464844 190.0625 L 456.46875 136.398438 L 439.214844 103.8125 L 412.410156 75.0625 L 385.578125 57.8125 L 368.324219 42.476562 L 337.652344 44.398438 " fill-opacity="1" fill-rule="evenodd"/><path fill="#000000" d="M 301.253906 262.894531 L 356.808594 247.566406 L 412.410156 239.898438 L 454.53125 237.980469 L 498.621094 234.152344 L 554.191406 241.816406 L 596.34375 251.402344 L 671.070312 276.320312 L 697.875 293.5625 L 738.125 328.066406 L 732.382812 372.167969 L 711.320312 360.652344 L 703.644531 345.328125 L 711.320312 335.734375 L 699.808594 320.402344 L 667.234375 295.484375 L 636.5625 283.988281 L 592.507812 268.652344 L 546.515625 259.070312 L 508.199219 255.230469 L 464.144531 251.402344 L 418.152344 253.3125 L 372.160156 260.980469 L 339.585938 266.738281 L 293.59375 278.234375 L 301.253906 262.894531 " fill-opacity="1" fill-rule="evenodd"/><path fill="#000000" d="M 379.804688 385.589844 L 414.3125 372.167969 L 443.050781 360.652344 L 487.105469 358.746094 L 481.398438 372.167969 L 450.726562 372.167969 L 421.957031 381.75 L 383.644531 400.882812 L 379.804688 385.589844 " fill-opacity="1" fill-rule="evenodd"/><path fill="#000000" d="M 454.53125 460.308594 L 498.621094 454.566406 L 554.191406 458.40625 L 586.765625 467.984375 L 615.5 481.40625 L 649.980469 515.925781 L 659.589844 535.058594 L 667.234375 583 L 617.4375 625.164062 L 632.757812 590.675781 L 638.496094 561.898438 L 636.5625 531.21875 L 623.144531 508.25 L 602.085938 494.828125 L 575.25 483.3125 L 548.449219 477.566406 L 515.875 469.921875 L 475.625 469.921875 L 454.53125 471.824219 L 454.53125 460.308594 " fill-opacity="1" fill-rule="evenodd"/><path fill="#000000" d="M 529.292969 364.492188 L 538.871094 375.976562 L 563.769531 375.976562 L 573.347656 389.398438 L 571.414062 425.820312 L 563.769531 469.921875 L 559.933594 508.25 L 554.191406 531.21875 L 531.195312 542.738281 L 485.203125 542.738281 L 487.105469 531.21875 L 508.199219 535.058594 L 531.195312 525.507812 L 544.613281 510.152344 L 548.449219 471.824219 L 556.125 420.078125 L 554.191406 393.234375 L 540.773438 389.398438 L 527.355469 383.652344 L 529.292969 364.492188 " fill-opacity="1" fill-rule="evenodd"/><path fill="#000000" d="M 372.160156 628.972656 L 374.0625 657.75 L 383.644531 663.492188 L 404.734375 648.167969 L 431.539062 630.90625 L 443.050781 613.648438 L 441.148438 596.417969 L 450.726562 579.160156 L 466.046875 559.996094 L 456.46875 546.574219 L 443.050781 563.835938 L 431.539062 577.253906 L 423.894531 594.515625 L 421.957031 613.648438 L 416.21875 625.164062 L 400.898438 636.648438 L 389.382812 646.230469 L 381.738281 623.230469 L 372.160156 628.972656 " fill-opacity="1" fill-rule="evenodd"/><path fill="#000000" d="M 619.339844 134.476562 L 634.660156 168.980469 L 653.816406 197.730469 L 671.070312 228.40625 L 678.746094 247.566406 L 711.320312 241.816406 L 713.226562 255.230469 L 686.421875 262.894531 L 690.230469 299.320312 L 694.066406 349.132812 L 690.230469 395.140625 L 684.488281 425.820312 L 667.234375 473.730469 L 667.234375 454.566406 L 676.8125 395.140625 L 678.746094 347.230469 L 678.746094 310.816406 L 669.167969 270.5625 L 661.492188 239.898438 L 648.074219 213.0625 L 630.820312 190.0625 L 615.5 211.152344 L 630.820312 228.40625 L 646.171875 237.980469 L 644.238281 247.566406 L 628.917969 245.644531 L 605.921875 228.40625 L 594.410156 213.0625 L 605.921875 195.816406 L 619.339844 176.652344 L 609.761719 151.726562 L 596.34375 138.3125 L 563.769531 121.0625 L 512.039062 107.648438 L 431.539062 103.8125 L 353.003906 103.8125 L 301.253906 113.394531 L 280.179688 119.144531 L 270.597656 111.480469 L 299.335938 103.8125 L 364.484375 92.316406 L 416.21875 86.558594 L 489.042969 90.394531 L 544.613281 101.890625 L 604.019531 111.480469 L 619.339844 134.476562 " fill-opacity="1" fill-rule="evenodd"/><path fill="#000000" d="M 249.523438 377.910156 L 307.003906 399.011719 L 328.074219 406.65625 L 314.65625 437.304688 L 299.335938 479.472656 L 295.507812 496.730469 L 308.921875 508.25 L 339.585938 525.507812 L 358.742188 535.058594 L 358.742188 586.835938 L 368.324219 609.808594 L 372.160156 590.675781 L 370.226562 561.898438 L 376 544.640625 L 372.160156 525.507812 L 351.070312 515.925781 L 333.84375 502.472656 L 312.753906 490.988281 L 324.234375 443.078125 L 343.425781 420.078125 L 337.652344 400.882812 L 308.921875 383.652344 L 278.257812 372.167969 L 262.933594 364.492188 L 249.523438 377.910156 " fill-opacity="1" fill-rule="evenodd"/><path fill="#000000" d="M 239.941406 358.746094 L 236.105469 343.390625 L 226.519531 324.238281 L 215.03125 314.652344 L 193.957031 320.402344 L 186.289062 341.488281 L 180.539062 333.816406 L 169.042969 335.734375 L 169.042969 343.390625 L 186.289062 366.394531 L 199.703125 381.75 L 213.113281 377.910156 L 209.285156 364.492188 L 203.53125 347.230469 L 201.621094 333.816406 L 211.195312 329.988281 L 218.859375 345.328125 L 230.359375 362.554688 L 239.941406 368.328125 L 239.941406 358.746094 " fill-opacity="1" fill-rule="evenodd"/><path fill="#000000" d="M 236.105469 142.144531 L 213.113281 168.980469 L 190.117188 186.230469 L 169.042969 218.816406 L 176.710938 228.40625 L 176.710938 245.644531 L 170.953125 262.894531 L 167.125 285.898438 L 169.042969 322.320312 L 155.625 306.988281 L 147.964844 278.234375 L 155.625 249.484375 L 157.542969 234.152344 L 151.800781 222.644531 L 157.542969 205.394531 L 174.792969 184.316406 L 203.53125 159.398438 L 234.195312 132.566406 L 236.105469 142.144531 " fill-opacity="1" fill-rule="evenodd"/><path fill="#000000" d="M 216.953125 119.144531 L 241.859375 105.730469 L 266.761719 96.144531 L 284.011719 98.0625 L 274.429688 105.730469 L 251.4375 115.316406 L 232.277344 119.144531 L 216.953125 134.476562 L 216.953125 119.144531 " fill-opacity="1" fill-rule="evenodd"/><path fill="#000000" d="M 307.003906 119.144531 L 308.921875 130.644531 L 303.175781 144.0625 L 301.253906 159.398438 L 305.09375 172.820312 L 314.65625 182.394531 L 331.910156 184.316406 L 345.328125 182.394531 L 351.070312 201.566406 L 368.324219 209.230469 L 381.738281 201.566406 L 387.480469 184.316406 L 389.382812 155.566406 L 408.574219 132.566406 L 406.636719 111.480469 L 393.253906 119.144531 L 385.578125 134.476562 L 368.324219 153.648438 L 372.160156 172.820312 L 370.226562 191.980469 L 362.582031 186.230469 L 358.742188 168.980469 L 343.425781 159.398438 L 331.910156 168.980469 L 320.429688 163.234375 L 318.492188 145.984375 L 330.007812 119.144531 L 320.429688 113.394531 L 307.003906 119.144531 " fill-opacity="1" fill-rule="evenodd"/><path fill="#000000" d="M 462.207031 98.0625 L 487.105469 113.394531 L 508.199219 119.144531 L 506.265625 132.566406 L 475.625 155.566406 L 435.375 193.902344 L 494.78125 159.398438 L 506.265625 167.0625 L 512.039062 199.648438 L 498.621094 209.230469 L 483.300781 213.0625 L 460.304688 239.898438 L 443.050781 264.816406 L 431.539062 282.070312 L 414.3125 293.5625 L 400.898438 295.484375 L 402.800781 312.738281 L 397.058594 333.816406 L 383.644531 337.648438 L 376 329.988281 L 370.226562 316.574219 L 368.324219 303.148438 L 356.808594 295.484375 L 335.75 303.148438 L 314.65625 316.574219 L 310.839844 303.148438 L 339.585938 285.898438 L 364.484375 278.234375 L 379.804688 282.070312 L 379.804688 299.320312 L 385.578125 320.402344 L 389.382812 303.148438 L 395.15625 285.898438 L 418.152344 278.234375 L 441.148438 257.152344 L 454.53125 234.148438 L 481.398438 205.394531 L 487.105469 190.0625 L 485.203125 176.648438 L 466.046875 190.0625 L 439.210938 207.3125 L 421.957031 220.734375 L 410.476562 207.3125 L 435.375 176.648438 L 456.46875 153.648438 L 485.203125 132.566406 L 466.046875 117.226562 L 448.792969 98.0625 L 462.207031 98.0625 " fill-opacity="1" fill-rule="evenodd"/><path fill="#000000" d="M 686.421875 328.066406 L 619.339844 358.746094 L 623.144531 389.398438 L 617.4375 421.980469 L 613.597656 443.078125 L 609.761719 460.308594 L 628.917969 473.730469 L 657.65625 494.828125 L 669.167969 492.890625 L 661.492188 481.40625 L 646.171875 464.179688 L 628.917969 454.566406 L 634.660156 416.238281 L 642.335938 381.75 L 646.171875 366.394531 L 669.167969 351.070312 L 686.421875 347.230469 L 686.421875 328.066406 " fill-opacity="1" fill-rule="evenodd"/><path fill="#000000" d="M 293.59375 310.816406 L 282.097656 329.988281 L 282.097656 351.070312 L 297.425781 364.492188 L 316.589844 372.167969 L 330.007812 360.652344 L 335.75 349.132812 L 351.070312 358.746094 L 337.652344 366.394531 L 335.75 379.816406 L 343.425781 389.398438 L 366.417969 402.816406 L 370.226562 391.332031 L 360.648438 383.652344 L 358.742188 375.976562 L 366.417969 366.394531 L 368.324219 356.8125 L 360.648438 341.488281 L 347.230469 331.902344 L 331.910156 333.816406 L 320.429688 349.136719 L 310.839844 354.910156 L 295.507812 347.230469 L 297.425781 333.816406 L 305.09375 320.402344 L 293.59375 310.816406 " fill-opacity="1" fill-rule="evenodd"/><path fill="#000000" d="M 272.519531 63.5625 L 316.589844 57.8125 L 339.585938 53.976562 L 358.742188 63.5625 L 345.328125 101.890625 L 331.910156 90.394531 L 305.09375 86.558594 L 282.097656 80.8125 L 297.425781 75.0625 L 322.332031 76.984375 L 335.75 80.8125 L 345.328125 69.308594 L 324.234375 67.398438 L 305.09375 67.398438 L 270.597656 75.0625 L 272.519531 63.5625 " fill-opacity="1" fill-rule="evenodd"/><path fill="#ffffff" d="M 603.203125 394.378906 C 603.203125 394.113281 603.46875 393.179688 603.46875 393.046875 C 603.335938 391.316406 603.203125 387.71875 601.605469 386.519531 C 600.003906 385.320312 597.074219 386.785156 594.542969 388.785156 C 595.476562 390.515625 595.476562 392.511719 594.941406 394.378906 C 595.476562 394.644531 595.875 394.777344 596.410156 395.042969 C 596.410156 395.042969 598.40625 395.445312 598.671875 395.578125 C 599.339844 395.710938 599.605469 395.710938 599.605469 395.710938 C 599.605469 395.710938 599.871094 395.710938 600.539062 395.578125 C 602.003906 395.445312 602.136719 395.578125 603.203125 394.777344 C 602.804688 394.910156 603.070312 394.644531 603.203125 394.378906 Z M 596.675781 309.117188 C 595.34375 296.59375 592.8125 283.804688 592.679688 271.285156 C 592.679688 262.890625 592.542969 254.363281 591.078125 246.105469 C 590.8125 244.507812 590.414062 240.375 588.949219 239.710938 C 585.882812 238.378906 581.222656 238.378906 578.824219 241.042969 C 578.421875 241.574219 577.890625 241.976562 577.492188 242.242188 C 577.757812 243.039062 578.023438 243.972656 578.023438 244.90625 C 578.421875 279.808594 594.144531 312.449219 594.011719 347.351562 C 594.011719 347.351562 594.011719 347.351562 594.144531 347.351562 C 595.875 347.21875 597.605469 346.953125 599.339844 346.550781 C 598.9375 334.164062 598.007812 321.640625 596.675781 309.117188 Z M 526.066406 347.351562 C 525.003906 330.566406 522.605469 313.515625 517.277344 297.527344 C 512.746094 283.804688 506.21875 269.152344 492.628906 262.222656 C 480.507812 256.097656 470.78125 260.09375 464.652344 271.550781 C 464.652344 273.679688 464.519531 275.8125 464.519531 278.078125 C 464.386719 285.671875 464.519531 293.398438 465.320312 300.992188 C 466.785156 315.910156 468.648438 330.964844 471.3125 345.621094 C 473.445312 357.875 476.242188 370.53125 481.707031 381.855469 C 485.703125 390.117188 492.761719 400.105469 503.289062 398.640625 C 513.277344 397.175781 518.875 385.453125 521.9375 377.191406 C 525.402344 367.46875 526.734375 357.609375 526.066406 347.351562 Z M 526.066406 347.351562 " fill-opacity="1" fill-rule="nonzero"/><path fill="#ffffff" d="M 662.617188 272.480469 C 657.289062 244.238281 648.363281 212.265625 626.382812 192.152344 C 601.335938 169.238281 564.835938 165.640625 532.328125 166.972656 C 494.894531 168.4375 457.726562 174.832031 420.292969 178.027344 C 398.578125 179.894531 376.726562 181.226562 354.878906 180.960938 C 333.832031 180.558594 312.914062 178.164062 292 176.164062 C 250.96875 172.167969 208.605469 170.835938 169.835938 187.355469 C 141.195312 199.609375 117.347656 221.324219 102.292969 248.636719 C 86.441406 277.542969 78.847656 310.847656 80.710938 343.753906 C 82.710938 382.121094 96.03125 418.09375 115.882812 450.597656 C 116.414062 451.398438 116.683594 452.195312 116.816406 452.863281 C 119.082031 456.460938 118.679688 462.054688 113.484375 464.1875 C 102.027344 468.980469 97.898438 483.902344 96.300781 495.09375 C 94.433594 507.617188 94.566406 521.335938 99.496094 533.195312 C 106.292969 549.3125 118.28125 563.835938 134.132812 571.5625 C 138.664062 573.828125 143.460938 575.957031 148.253906 577.554688 C 145.859375 573.691406 143.859375 569.5625 142.527344 565.167969 C 138.265625 552.246094 135.734375 536.125 139.863281 522.667969 C 149.054688 492.429688 179.296875 478.574219 207.40625 470.3125 C 209.9375 469.515625 212.066406 470.046875 213.800781 471.246094 C 228.988281 471.511719 244.175781 472.980469 259.226562 473.910156 C 274.546875 474.84375 289.867188 475.910156 305.1875 476.84375 C 337.027344 478.972656 368.734375 480.171875 400.707031 478.441406 C 441.339844 476.308594 481.4375 470.179688 521.804688 464.320312 C 555.375 459.390625 591.347656 454.328125 621.320312 437.140625 C 635.175781 429.148438 647.296875 419.023438 655.023438 404.902344 C 662.351562 391.582031 666.480469 376.925781 668.347656 361.738281 C 671.8125 332.296875 668.214844 301.65625 662.617188 272.480469 Z M 211.667969 396.910156 C 211.667969 404.769531 199.546875 408.5 197.414062 399.839844 C 192.21875 378.125 192.085938 355.746094 187.957031 333.898438 C 184.089844 336.429688 179.828125 338.160156 174.765625 338.960938 C 167.972656 340.023438 161.042969 339.492188 154.25 338.824219 C 155.316406 349.75 155.980469 360.808594 156.78125 371.730469 C 157.316406 379.058594 158.511719 386.785156 158.378906 394.113281 C 158.246094 399.707031 157.179688 405.570312 159.3125 410.898438 C 162.910156 419.691406 149.054688 424.488281 145.457031 415.695312 C 142.925781 409.699219 143.59375 403.703125 143.726562 397.441406 C 143.859375 390.117188 142.792969 382.65625 142.261719 375.328125 C 141.328125 362.671875 140.660156 350.015625 139.328125 337.492188 C 133.734375 335.230469 132.933594 326.703125 137.730469 324.171875 C 135.066406 302.722656 131.734375 281.007812 131.601562 259.292969 C 131.601562 249.835938 146.125 248.769531 146.257812 258.226562 C 146.390625 280.34375 149.855469 302.324219 152.519531 324.171875 C 164.242188 325.238281 176.5 326.171875 183.957031 317.378906 C 179.695312 300.859375 175.300781 281.40625 183.027344 266.085938 C 186.089844 259.960938 195.546875 261.292969 196.746094 267.820312 C 199.144531 271.683594 197.414062 276.480469 194.214844 278.609375 C 193.015625 285.003906 193.949219 291.933594 194.882812 298.058594 C 195.546875 302.058594 196.347656 306.054688 197.28125 309.917969 C 200.34375 311.648438 202.210938 315.246094 200.210938 319.242188 C 200.078125 319.507812 199.945312 319.773438 199.8125 320.042969 C 200.210938 321.375 200.476562 322.707031 200.878906 324.039062 C 206.339844 344.953125 205.804688 366.800781 209.804688 387.984375 C 210.867188 389.050781 211.667969 390.648438 211.667969 392.78125 Z M 241.777344 311.117188 C 242.308594 316.046875 242.707031 321.109375 243.109375 326.171875 C 256.964844 326.035156 270.683594 325.105469 284.40625 327.636719 C 293.730469 329.367188 290.933594 343.753906 281.609375 342.023438 C 269.21875 339.757812 256.695312 340.691406 244.175781 340.824219 C 244.839844 351.082031 245.371094 361.472656 246.039062 371.730469 C 246.570312 378.792969 246.839844 385.851562 247.503906 392.914062 C 248.039062 398.773438 248.171875 406.5 251.765625 411.5625 C 253.101562 413.296875 252.566406 413.296875 254.566406 413.828125 C 257.097656 414.496094 259.628906 415.027344 262.160156 415.160156 C 263.890625 415.292969 270.550781 415.5625 271.085938 414.09375 C 274.949219 405.4375 288.003906 411.964844 284.273438 420.625 C 278.8125 433.011719 258.027344 431.28125 247.902344 426.882812 C 233.648438 420.625 233.117188 400.242188 232.449219 387.050781 C 231.25 364.003906 229.785156 340.957031 227.789062 317.910156 C 226.1875 298.460938 220.859375 278.078125 225.257812 258.628906 C 225.523438 257.5625 225.921875 256.628906 226.457031 255.828125 C 226.589844 253.433594 228.054688 251.167969 231.386719 250.367188 C 241.644531 247.96875 252.433594 247.171875 262.957031 247.835938 C 272.417969 248.371094 283.339844 250.234375 289.203125 258.492188 C 294.664062 266.222656 282.542969 274.347656 277.078125 266.753906 C 273.617188 261.957031 262.558594 262.222656 257.363281 262.222656 C 251.367188 262.222656 245.238281 262.492188 239.246094 263.554688 C 236.3125 279.410156 240.042969 295.664062 241.777344 311.117188 Z M 356.746094 422.089844 C 341.425781 423.6875 327.304688 417.824219 323.171875 401.839844 C 320.640625 391.980469 320.242188 381.722656 318.777344 371.730469 C 317.046875 359.742188 315.3125 347.617188 313.582031 335.628906 C 309.984375 310.714844 306.519531 285.9375 304.921875 260.757812 C 304.257812 251.300781 318.910156 250.234375 319.578125 259.691406 C 322.109375 299.527344 329.300781 338.824219 334.496094 378.390625 C 335.5625 386.652344 334.496094 405.167969 345.6875 407.300781 C 350.75 408.234375 358.742188 408.5 363.140625 405.300781 C 367.003906 402.503906 367.402344 397.175781 367.402344 392.78125 C 367.535156 383.453125 382.191406 382.253906 382.058594 391.714844 C 381.921875 408.367188 374.332031 420.222656 356.746094 422.089844 Z M 444.671875 386.785156 C 443.605469 398.507812 448.535156 419.691406 430.683594 421.023438 C 412.832031 422.355469 401.242188 409.03125 396.976562 393.046875 C 391.117188 371.464844 388.453125 348.550781 384.855469 326.570312 C 380.324219 299.792969 375.796875 273.015625 369.269531 246.636719 C 367.003906 237.578125 380.859375 232.648438 383.121094 241.839844 C 393.914062 285.40625 400.308594 330.035156 407.902344 374.128906 C 409.632812 383.855469 411.5 403.703125 423.886719 405.96875 C 429.617188 407.035156 430.148438 407.699219 430.148438 401.707031 C 430.148438 395.84375 429.617188 389.980469 430.148438 384.121094 C 431.082031 374.660156 445.46875 377.59375 444.671875 386.785156 Z M 533.394531 387.585938 C 528.867188 397.441406 521.671875 408.101562 510.882812 411.699219 C 500.222656 415.292969 487.832031 412.496094 479.839844 404.503906 C 462.65625 387.183594 458.257812 359.476562 455.0625 336.429688 C 452.53125 318.308594 449.332031 300.058594 449.867188 281.675781 C 450 275.546875 448.933594 267.6875 450.796875 261.824219 C 451.996094 257.960938 455.0625 255.296875 458.390625 254.898438 C 462.65625 250.234375 467.851562 246.636719 474.378906 245.171875 C 483.703125 243.039062 493.960938 245.4375 501.820312 250.632812 C 522.605469 264.222656 530.863281 287.402344 535.925781 310.851562 C 541.253906 336.292969 544.453125 363.207031 533.394531 387.585938 Z M 567.898438 231.449219 C 576.027344 222.390625 592.679688 221.324219 600.804688 230.917969 C 606.800781 237.84375 606.800781 250.5 607.066406 259.160156 C 608.398438 290.066406 613.859375 320.707031 613.992188 351.75 C 613.992188 355.078125 612.394531 358.144531 609.0625 359.207031 C 604.535156 360.675781 600.003906 362.007812 595.210938 362.273438 C 591.480469 362.539062 589.082031 360.40625 588.148438 357.742188 C 584.019531 358.808594 579.222656 356.945312 579.355469 351.613281 C 580.289062 315.644531 563.769531 282.207031 563.371094 246.371094 C 563.371094 243.308594 564.835938 241.042969 566.964844 239.84375 C 565.632812 237.179688 565.367188 234.113281 567.898438 231.449219 Z M 613.328125 405.167969 C 603.070312 414.628906 579.222656 408.234375 579.621094 395.179688 C 576.824219 393.445312 575.226562 389.980469 577.492188 386.253906 C 583.617188 376.394531 600.539062 365.203125 611.328125 375.460938 C 618.523438 382.390625 621.453125 397.574219 613.328125 405.167969 Z M 616.65625 209.734375 C 616.789062 211.46875 616.257812 209.46875 615.726562 208.804688 C 615.058594 208.003906 614.257812 207.203125 613.460938 206.539062 C 610.796875 204.140625 608 201.742188 604.933594 199.742188 C 599.871094 196.28125 594.542969 193.75 588.816406 191.75 C 571.230469 185.621094 550.3125 190.953125 532.328125 192.683594 C 521.003906 193.75 509.546875 195.347656 498.226562 196.8125 C 487.832031 198.144531 477.042969 198.546875 466.652344 200.542969 C 460.125 201.742188 453.464844 202.007812 446.933594 202.675781 C 442.007812 203.074219 434.277344 202.941406 430.28125 205.339844 C 422.15625 210.136719 413.898438 198.011719 422.023438 193.214844 C 428.550781 189.484375 436.675781 188.953125 444.003906 188.285156 C 451.996094 187.621094 459.859375 186.554688 467.851562 185.757812 C 492.363281 183.359375 517.007812 180.027344 541.519531 177.097656 C 560.972656 174.832031 582.554688 172.035156 600.9375 180.695312 C 611.328125 185.621094 629.847656 195.878906 631.3125 208.667969 C 632.378906 217.996094 617.722656 219.0625 616.65625 209.734375 Z M 616.65625 209.734375 " fill-opacity="1" fill-rule="nonzero"/><g clip-path="url(#fc1a2c7366)"><path fill="#000000" d="M 684.199219 334.960938 C 683.933594 305.386719 679.40625 274.878906 671.675781 246.371094 C 664.085938 217.996094 650.230469 189.21875 625.050781 172.566406 C 596.273438 153.515625 560.4375 150.984375 527 152.585938 C 489.164062 154.316406 451.730469 160.84375 414.03125 163.90625 C 392.316406 165.773438 370.46875 166.707031 348.617188 166.171875 C 327.304688 165.640625 306.253906 162.574219 284.9375 160.710938 C 244.308594 157.113281 203.277344 157.644531 165.042969 173.367188 C 135.867188 185.355469 112.152344 206.40625 94.96875 232.515625 C 74.585938 263.421875 65.660156 301.125 65.925781 337.761719 C 66.191406 379.191406 80.445312 419.023438 101.363281 454.460938 C 90.570312 462.453125 85.109375 475.777344 82.578125 488.964844 C 79.378906 504.816406 79.78125 522.667969 85.773438 537.855469 C 93.636719 557.839844 108.6875 574.625 127.738281 584.484375 C 138.929688 590.34375 158.378906 599.003906 172.234375 595.007812 C 175.03125 595.40625 177.296875 594.074219 178.496094 592.078125 C 185.15625 587.015625 178.496094 576.492188 171.300781 579.421875 C 162.109375 575.425781 157.714844 564.765625 155.050781 555.574219 C 152.117188 545.183594 151.320312 532.660156 155.316406 522.402344 C 163.574219 501.089844 188.089844 491.363281 208.738281 484.96875 C 209.671875 485.367188 210.734375 485.632812 211.800781 485.632812 C 221.925781 485.632812 232.050781 486.964844 242.175781 487.367188 C 253.632812 487.898438 265.089844 488.566406 276.679688 489.363281 C 297.863281 490.695312 319.042969 492.296875 340.226562 493.226562 C 382.988281 495.226562 425.753906 492.164062 468.117188 486.699219 C 504.085938 482.171875 540.589844 477.507812 575.890625 469.25 C 607.597656 461.789062 641.171875 448.734375 661.285156 421.957031 C 679.804688 397.441406 684.332031 365.203125 684.199219 334.960938 Z M 668.214844 362.007812 C 666.347656 377.191406 662.21875 391.847656 654.890625 405.167969 C 647.03125 419.289062 635.042969 429.546875 621.1875 437.410156 C 591.210938 454.59375 555.242188 459.65625 521.671875 464.585938 C 481.4375 470.449219 441.339844 476.441406 400.574219 478.707031 C 368.734375 480.4375 336.894531 479.238281 305.054688 477.109375 C 289.734375 476.042969 274.414062 474.976562 259.09375 474.175781 C 243.90625 473.246094 228.71875 471.78125 213.667969 471.511719 C 212.066406 470.3125 209.804688 469.78125 207.273438 470.582031 C 179.164062 478.972656 148.921875 492.695312 139.730469 522.9375 C 135.597656 536.257812 138.128906 552.378906 142.394531 565.433594 C 143.859375 569.828125 145.722656 573.960938 148.121094 577.824219 C 143.328125 576.222656 138.53125 574.09375 134 571.828125 C 118.148438 563.96875 106.15625 549.3125 99.496094 533.328125 C 94.566406 521.472656 94.566406 507.75 96.300781 495.226562 C 97.898438 484.035156 102.027344 469.113281 113.484375 464.320312 C 118.546875 462.1875 119.082031 456.460938 116.816406 452.996094 C 116.683594 452.195312 116.28125 451.398438 115.882812 450.730469 C 96.03125 418.09375 82.710938 382.121094 80.710938 343.886719 C 78.980469 310.984375 86.441406 277.679688 102.292969 248.902344 C 117.347656 221.59375 141.195312 199.742188 169.835938 187.621094 C 208.605469 171.101562 250.96875 172.433594 292 176.429688 C 313.050781 178.429688 333.832031 180.960938 354.878906 181.226562 C 376.726562 181.625 398.578125 180.292969 420.292969 178.296875 C 457.59375 175.097656 494.761719 168.703125 532.328125 167.238281 C 564.835938 165.90625 601.335938 169.503906 626.515625 192.417969 C 648.496094 212.265625 657.289062 244.238281 662.617188 272.480469 C 668.214844 301.65625 671.8125 332.296875 668.214844 362.007812 Z M 668.214844 362.007812 " fill-opacity="1" fill-rule="nonzero"/></g><path fill="#000000" d="M 209.804688 388.117188 C 205.804688 366.933594 206.207031 345.085938 200.878906 324.171875 C 200.476562 322.839844 200.210938 321.507812 199.8125 320.175781 C 199.945312 319.910156 200.078125 319.640625 200.210938 319.375 C 202.210938 315.378906 200.34375 311.78125 197.28125 310.050781 C 196.347656 306.054688 195.546875 302.191406 194.882812 298.195312 C 193.949219 292.066406 192.882812 285.136719 194.214844 278.742188 C 197.414062 276.613281 199.277344 271.816406 196.746094 267.953125 C 195.546875 261.425781 186.089844 260.226562 183.027344 266.222656 C 175.300781 281.542969 179.695312 300.992188 183.957031 317.511719 C 176.5 326.304688 164.242188 325.371094 152.519531 324.304688 C 149.855469 302.457031 146.390625 280.34375 146.257812 258.359375 C 146.257812 248.902344 131.601562 250.101562 131.601562 259.425781 C 131.734375 281.140625 134.933594 302.722656 137.730469 324.304688 C 132.933594 326.835938 133.734375 335.363281 139.328125 337.625 C 140.660156 350.148438 141.328125 362.804688 142.261719 375.460938 C 142.792969 382.789062 143.859375 390.25 143.726562 397.574219 C 143.59375 403.96875 143.058594 409.832031 145.457031 415.828125 C 149.054688 424.488281 162.910156 419.691406 159.3125 411.03125 C 157.179688 405.703125 158.246094 399.839844 158.378906 394.246094 C 158.511719 386.917969 157.316406 379.191406 156.78125 371.863281 C 155.980469 360.808594 155.316406 349.882812 154.25 338.960938 C 161.179688 339.492188 167.972656 340.023438 174.765625 339.09375 C 179.695312 338.292969 184.089844 336.5625 187.957031 334.03125 C 192.085938 355.878906 192.21875 378.257812 197.414062 399.972656 C 199.410156 408.5 211.667969 404.769531 211.667969 397.042969 L 211.667969 393.046875 C 211.667969 390.78125 210.867188 389.183594 209.804688 388.117188 Z M 284.273438 327.636719 C 270.550781 325.105469 256.828125 326.035156 242.976562 326.171875 C 242.574219 321.109375 242.175781 316.179688 241.644531 311.117188 C 240.042969 295.664062 236.179688 279.277344 238.976562 263.824219 C 244.839844 262.757812 251.101562 262.492188 257.097656 262.492188 C 262.292969 262.492188 273.347656 262.089844 276.8125 267.019531 C 282.273438 274.746094 294.398438 266.488281 288.9375 258.761719 C 283.074219 250.5 272.148438 248.636719 262.691406 248.101562 C 252.167969 247.4375 241.375 248.234375 231.117188 250.632812 C 227.921875 251.433594 226.457031 253.566406 226.1875 256.097656 C 225.65625 256.894531 225.257812 257.828125 224.992188 258.894531 C 220.59375 278.34375 225.921875 298.59375 227.523438 318.175781 C 229.386719 341.089844 230.851562 364.269531 232.183594 387.316406 C 232.851562 400.507812 233.382812 420.890625 247.636719 427.152344 C 257.761719 431.546875 278.542969 433.277344 284.007812 420.890625 C 287.871094 412.230469 274.679688 405.703125 270.816406 414.363281 C 270.152344 415.828125 263.625 415.5625 261.890625 415.425781 C 259.359375 415.292969 256.828125 414.761719 254.296875 414.09375 C 252.300781 413.5625 252.699219 413.5625 251.5 411.832031 C 247.902344 406.769531 247.636719 399.175781 247.238281 393.179688 C 246.707031 386.117188 246.304688 379.058594 245.773438 371.996094 C 245.105469 361.738281 244.574219 351.480469 243.90625 341.089844 C 256.429688 340.957031 268.953125 340.023438 281.34375 342.289062 C 290.800781 343.753906 293.597656 329.367188 284.273438 327.636719 Z M 367.535156 392.648438 C 367.402344 397.175781 367.136719 402.371094 363.273438 405.167969 C 358.875 408.367188 350.882812 408.234375 345.820312 407.167969 C 334.628906 405.035156 335.695312 386.519531 334.628906 378.257812 C 329.433594 338.691406 322.242188 299.394531 319.710938 259.558594 C 319.042969 250.101562 304.523438 251.300781 305.054688 260.625 C 306.652344 285.671875 310.117188 310.582031 313.714844 335.496094 C 315.445312 347.484375 317.3125 359.609375 318.910156 371.597656 C 320.242188 381.589844 320.777344 391.847656 323.308594 401.707031 C 327.4375 417.691406 341.558594 423.554688 356.878906 421.957031 C 374.464844 420.089844 382.058594 408.234375 382.324219 391.449219 C 382.324219 382.121094 367.667969 383.320312 367.535156 392.648438 Z M 430.28125 384.121094 C 429.75 389.980469 430.28125 395.84375 430.28125 401.707031 C 430.28125 407.832031 429.617188 407.035156 424.019531 405.96875 C 411.632812 403.703125 409.632812 383.855469 408.035156 374.128906 C 400.308594 329.898438 394.046875 285.40625 383.257812 241.839844 C 380.992188 232.648438 367.136719 237.578125 369.402344 246.636719 C 375.929688 273.015625 380.589844 299.792969 384.988281 326.570312 C 388.71875 348.683594 391.25 371.464844 397.109375 393.046875 C 401.375 409.03125 412.964844 422.355469 430.816406 421.023438 C 448.667969 419.691406 443.738281 398.375 444.804688 386.785156 C 445.46875 377.59375 431.082031 374.660156 430.28125 384.121094 Z M 535.925781 310.847656 C 530.863281 287.535156 522.605469 264.222656 501.820312 250.632812 C 493.828125 245.4375 483.703125 243.039062 474.378906 245.171875 C 467.984375 246.636719 462.65625 250.234375 458.390625 254.898438 C 454.929688 255.429688 451.996094 257.960938 450.796875 261.824219 C 448.933594 267.6875 450 275.679688 449.867188 281.675781 C 449.332031 300.058594 452.53125 318.308594 455.0625 336.429688 C 458.257812 359.609375 462.65625 387.316406 479.839844 404.503906 C 487.832031 412.496094 500.222656 415.292969 510.878906 411.699219 C 521.671875 408.101562 529 397.441406 533.394531 387.585938 C 544.453125 363.207031 541.253906 336.292969 535.925781 310.847656 Z M 521.804688 377.191406 C 518.742188 385.585938 513.144531 397.175781 503.152344 398.640625 C 492.628906 400.242188 485.570312 390.25 481.574219 381.855469 C 476.109375 370.53125 473.3125 357.875 471.179688 345.621094 C 468.648438 330.832031 466.652344 315.777344 465.1875 300.992188 C 464.519531 293.398438 464.253906 285.804688 464.386719 278.078125 C 464.386719 275.8125 464.519531 273.679688 464.519531 271.550781 C 470.515625 260.09375 480.375 256.097656 492.496094 262.222656 C 506.085938 269.152344 512.613281 283.804688 517.140625 297.527344 C 522.472656 313.515625 524.867188 330.566406 525.933594 347.351562 C 526.734375 357.609375 525.402344 367.46875 521.804688 377.191406 Z M 607.066406 259.027344 C 606.667969 250.367188 606.800781 237.710938 600.804688 230.785156 C 592.679688 221.324219 576.027344 222.390625 567.898438 231.316406 C 565.5 233.980469 565.632812 237.179688 567.101562 239.578125 C 564.96875 240.777344 563.371094 243.039062 563.503906 246.105469 C 563.902344 281.941406 580.421875 315.378906 579.488281 351.347656 C 579.355469 356.8125 584.152344 358.675781 588.28125 357.476562 C 589.347656 360.140625 591.746094 362.273438 595.34375 362.007812 C 600.136719 361.738281 604.667969 360.40625 609.195312 358.941406 C 612.527344 357.875 614.125 354.679688 614.125 351.480469 C 613.859375 320.574219 608.398438 289.933594 607.066406 259.027344 Z M 594.144531 347.484375 C 594.144531 347.484375 594.011719 347.484375 594.144531 347.484375 C 594.144531 312.582031 578.421875 279.941406 578.023438 245.039062 C 578.023438 243.972656 577.757812 243.171875 577.492188 242.375 C 578.023438 241.976562 578.421875 241.574219 578.824219 241.175781 C 581.222656 238.511719 585.882812 238.378906 588.949219 239.84375 C 590.414062 240.507812 590.8125 244.640625 591.078125 246.238281 C 592.542969 254.496094 592.542969 263.023438 592.679688 271.417969 C 592.8125 283.9375 595.34375 296.726562 596.675781 309.25 C 598.007812 321.773438 599.074219 334.296875 599.339844 346.820312 C 597.605469 347.085938 595.875 347.351562 594.144531 347.484375 Z M 611.328125 375.460938 C 600.539062 365.203125 583.617188 376.261719 577.492188 386.253906 C 575.226562 389.980469 576.824219 393.3125 579.621094 395.179688 C 579.089844 408.367188 602.9375 414.761719 613.328125 405.167969 C 621.453125 397.574219 618.523438 382.390625 611.328125 375.460938 Z M 603.203125 394.644531 C 602.136719 395.578125 602.003906 395.3125 600.539062 395.445312 C 599.871094 395.445312 599.605469 395.578125 599.605469 395.578125 C 599.605469 395.578125 599.339844 395.445312 598.671875 395.445312 C 598.273438 395.445312 596.40625 394.910156 596.40625 394.910156 C 595.875 394.777344 595.476562 394.511719 594.941406 394.246094 C 595.476562 392.378906 595.476562 390.382812 594.542969 388.648438 C 597.074219 386.652344 600.003906 385.1875 601.605469 386.386719 C 603.203125 387.585938 603.335938 391.179688 603.46875 392.914062 C 603.46875 393.179688 603.203125 393.980469 603.203125 394.246094 C 603.070312 394.644531 602.804688 394.910156 603.203125 394.644531 Z M 631.3125 208.667969 C 629.847656 195.746094 611.195312 185.488281 600.9375 180.695312 C 582.554688 172.035156 560.972656 174.699219 541.523438 177.097656 C 517.007812 180.027344 492.496094 183.359375 467.851562 185.753906 C 459.859375 186.554688 451.996094 187.488281 444.003906 188.285156 C 436.675781 188.953125 428.550781 189.484375 422.023438 193.214844 C 413.898438 198.011719 422.023438 210.136719 430.28125 205.339844 C 434.277344 202.941406 442.007812 203.074219 446.933594 202.675781 C 453.464844 202.007812 460.125 201.742188 466.652344 200.542969 C 476.910156 198.679688 487.699219 198.277344 498.226562 196.8125 C 509.546875 195.347656 520.871094 193.882812 532.328125 192.683594 C 550.3125 190.953125 571.230469 185.621094 588.816406 191.75 C 594.675781 193.75 599.871094 196.28125 604.933594 199.742188 C 607.863281 201.742188 610.796875 204.140625 613.460938 206.539062 C 614.261719 207.203125 615.058594 208.003906 615.726562 208.804688 C 616.257812 209.46875 616.925781 211.335938 616.65625 209.734375 C 617.722656 219.0625 632.378906 217.996094 631.3125 208.667969 Z M 631.3125 208.667969 " fill-opacity="1" fill-rule="nonzero"/></svg>