<svg xmlns="http://www.w3.org/2000/svg" xmlns:xlink="http://www.w3.org/1999/xlink" width="1000" zoomAndPan="magnify" viewBox="0 0 750 749.999995" height="1000" preserveAspectRatio="xMidYMid meet" version="1.0"><defs><clipPath id="668a0e003e"><path d="M 154.492188 61.316406 L 524.992188 61.316406 L 524.992188 588 L 154.492188 588 Z M 154.492188 61.316406 " clip-rule="nonzero"/></clipPath></defs><path fill="#b7b9bb" d="M 642.921875 -0.0390625 L 107.183594 -0.0390625 C 49.140625 -0.0390625 1.621094 46.746094 0.195312 104.464844 C 0.175781 105.339844 0.0585938 106.203125 0.0585938 107.09375 L 0.0585938 642.8125 C 0.0585938 701.746094 48.257812 749.957031 107.183594 749.957031 L 642.921875 749.957031 C 700.960938 749.957031 748.492188 703.144531 749.910156 645.453125 L 749.910156 104.464844 C 748.492188 46.746094 700.941406 -0.0390625 642.921875 -0.0390625 " fill-opacity="1" fill-rule="nonzero"/><path fill="#c8bba1" d="M 667.511719 700.4375 L 588.976562 711.167969 L 581.425781 687.046875 L 599.550781 677.679688 L 588.976562 656.234375 L 619.183594 636.15625 L 667.511719 700.4375 M 610.972656 616.757812 C 591.265625 633.128906 578.71875 651.898438 573.671875 672.859375 C 567.246094 699.652344 576.085938 728.570312 585.851562 749.957031 L 600.320312 749.957031 L 596.523438 741.980469 L 631.273438 737.953125 L 632.644531 749.957031 L 642.921875 749.957031 C 646.160156 749.957031 649.34375 749.742188 652.527344 749.441406 L 647.890625 735.273438 L 687.140625 724.542969 L 693.082031 737.371094 C 695.972656 735.808594 698.777344 734.140625 701.503906 732.335938 C 674.390625 687.949219 643.976562 649.1875 610.972656 616.757812 " fill-opacity="1" fill-rule="nonzero"/><path fill="#c8bba1" d="M 89.441406 1.5625 C 70.683594 4.726562 53.546875 12.742188 39.410156 24.367188 L 82.175781 33.070312 L 89.441406 1.5625 " fill-opacity="1" fill-rule="nonzero"/><path fill="#c8bba1" d="M 26.464844 275.160156 C 17.828125 273.347656 8.945312 271.472656 0.0585938 269.589844 L 0.0585938 303.933594 L 18.921875 307.933594 L 26.464844 275.160156 " fill-opacity="1" fill-rule="nonzero"/><path fill="#c8bba1" d="M 141.902344 45.242188 L 166.25 8.042969 C 153.09375 5.242188 140.339844 2.542969 128.25 -0.046875 L 112.925781 -0.046875 L 104.261719 37.574219 L 141.902344 45.242188 " fill-opacity="1" fill-rule="nonzero"/><path fill="#c8bba1" d="M 733.441406 699.582031 C 736.605469 694.554688 739.378906 689.265625 741.6875 683.734375 C 739.71875 684.125 738.488281 684.375 738.488281 684.375 L 679.582031 604.007812 L 749.910156 562.144531 L 749.910156 543.558594 L 649.605469 595.089844 C 679.816406 625.511719 708.007812 660.609375 733.441406 699.582031 " fill-opacity="1" fill-rule="nonzero"/><path fill="#c8bba1" d="M 379.210938 38.882812 C 406.34375 44.328125 433.660156 52.683594 449.730469 76.808594 C 452.660156 81.195312 455.078125 85.949219 457.019531 91.0625 L 477.746094 8.839844 C 475.871094 5.675781 474.027344 2.746094 472.222656 -0.046875 L 448.933594 -0.046875 L 442.492188 30.675781 L 419.832031 15.964844 L 422.644531 -0.046875 L 400.402344 -0.046875 L 391.136719 28.007812 L 259.558594 -0.046875 L 197.761719 -0.046875 L 197.179688 0.835938 C 266.542969 15.554688 340.546875 31.132812 379.210938 38.882812 " fill-opacity="1" fill-rule="nonzero"/><path fill="#c8bba1" d="M 65.863281 104.007812 L 77.652344 52.761719 L 22.785156 41.59375 C 21.15625 43.707031 19.574219 45.832031 18.097656 48.054688 L 6.917969 91.800781 L 65.863281 104.007812 " fill-opacity="1" fill-rule="nonzero"/><path fill="#c8bba1" d="M 43.929688 199.265625 L 0.0585938 190.269531 L 0.0585938 211.523438 L 16.605469 211.523438 L 16.605469 234.296875 L 0.0585938 234.296875 L 0.0585938 249.464844 C 10.277344 251.5625 20.640625 253.675781 30.925781 255.78125 L 43.929688 199.265625 " fill-opacity="1" fill-rule="nonzero"/><path fill="#c8bba1" d="M 308.242188 122.273438 L 341.160156 130.335938 L 344.496094 119.59375 L 418.734375 137.800781 L 415.125 149.40625 L 382.21875 141.351562 L 378.878906 152.082031 L 304.644531 133.878906 L 308.242188 122.273438 M 286.933594 132.492188 L 259.730469 132.492188 L 259.730469 124.457031 L 203.875 124.457031 L 203.875 99 L 280.898438 99 L 280.898438 115.070312 L 286.933594 115.070312 L 286.933594 132.492188 M 344.207031 161.632812 L 433.929688 182.632812 L 447.488281 128.84375 C 447.488281 128.589844 447.496094 128.328125 447.527344 128.074219 L 156.488281 68.8125 L 145.824219 120.554688 L 344.03125 161.585938 L 344.207031 161.632812 " fill-opacity="1" fill-rule="nonzero"/><path fill="#c8bba1" d="M 217.140625 155.945312 L 204.535156 211.296875 L 268.882812 224.601562 C 265.828125 220.855469 263.246094 216.90625 261.199219 212.675781 C 252.367188 194.375 255.761719 176.128906 259.691406 164.757812 L 217.140625 155.945312 " fill-opacity="1" fill-rule="nonzero"/><path fill="#c8bba1" d="M 43.785156 161.960938 L 9.042969 161.960938 L 9.042969 128.472656 L 43.785156 128.472656 L 43.785156 161.960938 M 61.339844 123.707031 L 1.890625 111.414062 L 0.0585938 118.574219 L 0.0585938 169.007812 L 48.589844 179.042969 L 61.339844 123.707031 " fill-opacity="1" fill-rule="nonzero"/><path fill="#c8bba1" d="M 548.207031 45.425781 L 563.296875 45.425781 L 563.296875 104.359375 L 548.207031 104.359375 L 548.207031 45.425781 M 567.820312 100.339844 L 590.488281 100.339844 L 590.488281 136.507812 L 567.820312 136.507812 L 567.820312 100.339844 M 542.113281 137.867188 C 543.316406 150.878906 543.957031 164.253906 544.0625 177.945312 C 545.199219 176.820312 546.382812 175.695312 547.605469 174.558594 C 571.671875 152.519531 600.746094 143.953125 632.042969 149.53125 C 604.453125 94.34375 572.632812 44.367188 536.71875 -0.046875 L 503.199219 -0.046875 L 502.414062 3.039062 C 517.980469 29.617188 536.195312 73.316406 542.113281 137.867188 " fill-opacity="1" fill-rule="nonzero"/><path fill="#c8bba1" d="M 134.375 64.320312 L 99.730469 57.265625 L 87.917969 108.578125 L 123.746094 115.992188 L 134.375 64.320312 " fill-opacity="1" fill-rule="nonzero"/><path fill="#c8bba1" d="M 423.605469 245.019531 C 437.367188 245.019531 448.527344 254.910156 448.527344 267.105469 C 448.527344 279.316406 437.367188 289.203125 423.605469 289.203125 C 409.847656 289.203125 398.695312 279.316406 398.695312 267.105469 C 398.695312 254.910156 409.847656 245.019531 423.605469 245.019531 M 423.605469 301.933594 C 445.257812 301.933594 462.871094 286.320312 462.871094 267.105469 C 462.871094 247.902344 445.257812 232.296875 423.605469 232.296875 C 401.957031 232.296875 384.34375 247.902344 384.34375 267.105469 C 384.34375 286.320312 401.957031 301.933594 423.605469 301.933594 " fill-opacity="1" fill-rule="nonzero"/><path fill="#c8bba1" d="M 551.457031 668.859375 C 553.914062 658.613281 557.816406 648.839844 563.121094 639.542969 L 348.292969 749.957031 L 367.109375 749.957031 L 394.164062 733.945312 C 394.164062 733.945312 521.015625 707.152344 527.0625 704.464844 C 533.089844 701.785156 537.621094 723.222656 537.621094 723.222656 C 537.621094 723.222656 489.148438 736.1875 437.222656 749.957031 L 477.890625 749.957031 L 513.476562 740.621094 L 516.96875 749.957031 L 560.132812 749.957031 C 551.351562 728.929688 544.101562 699.816406 551.457031 668.859375 " fill-opacity="1" fill-rule="nonzero"/><path fill="#c8bba1" d="M 15.90625 421.539062 L 90.054688 419.929688 L 91.113281 404.625 L 19.953125 403.898438 L 15.90625 421.539062 " fill-opacity="1" fill-rule="nonzero"/><path fill="#c8bba1" d="M 144.960938 232.949219 L 163.109375 232.949219 L 163.109375 262.429688 L 144.960938 262.429688 L 144.960938 232.949219 M 122.824219 274.335938 L 172.648438 283.738281 L 185.261719 228.269531 L 126.8125 216.277344 L 122.824219 274.335938 " fill-opacity="1" fill-rule="nonzero"/><path fill="#c8bba1" d="M 189.824219 208.25 L 202.429688 152.917969 L 141.75 140.359375 L 130.308594 195.925781 L 189.824219 208.25 " fill-opacity="1" fill-rule="nonzero"/><path fill="#c8bba1" d="M 672.691406 4.269531 C 663.222656 1.503906 653.253906 -0.046875 642.921875 -0.046875 L 630.90625 -0.046875 L 643.355469 17.28125 L 672.691406 4.269531 " fill-opacity="1" fill-rule="nonzero"/><path fill="#c8bba1" d="M 113.792969 404.859375 L 112.78125 419.441406 L 132.878906 418.996094 L 123.105469 404.933594 L 113.792969 404.859375 " fill-opacity="1" fill-rule="nonzero"/><path fill="#c8bba1" d="M 300.519531 648.21875 L 344.324219 636.15625 L 351.875 668.277344 L 311.105469 680.347656 L 300.519531 648.21875 M 294.492188 634.816406 L 283.894531 609.363281 L 326.207031 595.953125 L 332.242188 624.105469 L 294.492188 634.816406 M 264.273438 542.386719 L 282.402344 534.351562 L 289.949219 561.125 L 314.125 555.785156 L 323.179688 587.925781 L 282.402344 597.292969 L 264.273438 542.386719 M 226.523438 610.703125 L 223.496094 601.320312 L 243.136719 595.953125 L 234.066406 578.5625 L 191.792969 589.277344 L 184.234375 563.820312 L 246.144531 543.722656 L 268.804688 604.007812 L 226.523438 610.703125 M 80.03125 645.53125 L 67.949219 653.574219 L 33.207031 646.871094 L 22.648438 625.441406 L 64.929688 598.640625 L 176.695312 566.492188 L 190.289062 606.683594 L 80.03125 645.53125 M 116.265625 711.167969 L 96.632812 701.785156 L 84.5625 654.894531 L 122.3125 640.183594 L 116.265625 711.167969 M 67.949219 736.625 L 37.738281 708.492188 L 67.949219 660.269531 L 89.085938 703.125 L 67.949219 736.625 M 28.6875 689.734375 L 31.703125 656.234375 L 51.324219 664.296875 L 28.6875 689.734375 M 336.277344 526.09375 L 362.003906 610.828125 L 340.789062 615.894531 L 315.066406 531.167969 L 336.277344 526.09375 M 377.726562 642.542969 L 350.398438 516.183594 L 349.863281 516.078125 L 350.144531 515.019531 L 349.816406 513.476562 L 350.574219 513.359375 L 352.679688 504.984375 C 335.132812 505.964844 317.929688 508.730469 301.246094 513.359375 C 238.304688 530.796875 100.46875 574.332031 0.0585938 606.453125 L 0.0585938 628.265625 L 15.089844 622.765625 L 25.65625 649.527344 L 0.15625 644.511719 C 0.203125 647.984375 0.398438 651.410156 0.777344 654.796875 L 21.136719 658.914062 L 18.117188 701.785156 L 17.710938 701.4375 C 33.050781 724.714844 57.1875 741.785156 85.328125 747.667969 L 95.128906 717.855469 L 122.3125 736.625 L 89.335938 748.335938 C 95.160156 749.308594 101.097656 749.957031 107.183594 749.957031 L 145.28125 749.957031 L 129.859375 724.542969 L 132.878906 637.496094 L 196.316406 614.71875 L 220.480469 620.085938 L 270.320312 609.363281 L 299.015625 691.074219 L 223.320312 749.957031 L 256.285156 749.957031 L 342.160156 705.949219 C 354.851562 684.230469 366.679688 663.085938 377.726562 642.542969 " fill-opacity="1" fill-rule="nonzero"/><path fill="#c8bba1" d="M 45.300781 345.46875 L 57.378906 345.46875 L 57.378906 373.621094 L 45.300781 373.621094 L 45.300781 345.46875 M 72.472656 349.496094 L 81.542969 349.496094 L 81.542969 377.628906 L 72.472656 377.628906 L 72.472656 349.496094 M 24.570312 383.839844 L 92.511719 384.546875 L 95.546875 340.507812 L 36.59375 331.601562 L 24.570312 383.839844 " fill-opacity="1" fill-rule="nonzero"/><path fill="#c8bba1" d="M 83.398438 128.28125 L 70.664062 183.601562 L 108.222656 191.367188 L 119.671875 135.78125 L 83.398438 128.28125 " fill-opacity="1" fill-rule="nonzero"/><path fill="#c8bba1" d="M 53.003906 260.277344 C 69.792969 263.679688 85.921875 266.960938 100.449219 269.902344 L 104.445312 211.6875 L 66.015625 203.796875 L 53.003906 260.277344 " fill-opacity="1" fill-rule="nonzero"/><path fill="#c8bba1" d="M 41.125 311.929688 L 96.925781 320.324219 L 99.019531 290.222656 C 88.289062 288.019531 69.976562 284.253906 48.519531 279.78125 L 41.125 311.929688 " fill-opacity="1" fill-rule="nonzero"/><path fill="#c8bba1" d="M 303.546875 212.851562 L 312.609375 186.078125 L 332.242188 187.417969 L 327.710938 202.148438 L 369.992188 211.523438 L 365.457031 230.269531 L 303.546875 212.851562 M 366.992188 244.894531 C 376.636719 225.640625 398.386719 212.191406 423.605469 212.191406 C 424.566406 212.191406 425.527344 212.21875 426.460938 212.25 L 428.980469 202.253906 L 338.578125 181.078125 L 281.839844 169.335938 C 278.828125 177.410156 275.550781 191.503906 282.101562 204.933594 C 289.417969 219.90625 307.300781 231.027344 335.296875 238.015625 L 335.210938 238.316406 L 366.992188 244.894531 " fill-opacity="1" fill-rule="nonzero"/><path fill="#c8bba1" d="M 582.929688 273.144531 L 555.746094 273.144531 L 555.746094 247.679688 L 582.929688 247.679688 L 582.929688 273.144531 M 542.113281 227.960938 C 540.753906 244.632812 538.648438 261.75 535.835938 279.257812 L 595.632812 291.386719 L 596.757812 291.550781 L 605.851562 239.519531 L 542.113281 227.960938 " fill-opacity="1" fill-rule="nonzero"/><path fill="#c8bba1" d="M 519.433594 138.625 C 515.582031 98.664062 505.132812 65.269531 493.339844 39 L 474.660156 113.207031 C 482.917969 115.539062 494.214844 119.769531 505.335938 127.125 C 509.972656 130.199219 514.816406 133.996094 519.433594 138.625 " fill-opacity="1" fill-rule="nonzero"/><path fill="#c8bba1" d="M 629.75 210.171875 L 602.582031 210.171875 L 602.582031 203.476562 L 579.902344 203.476562 L 579.902344 191.425781 L 602.582031 191.425781 L 602.582031 186.078125 L 629.75 186.078125 L 629.75 210.171875 M 643.269531 172.734375 L 632.933594 170.335938 C 607.0625 164.117188 583.851562 170.25 563.878906 188.542969 C 556.4375 195.34375 550.835938 202.605469 546.976562 208.347656 L 667.9375 230.261719 C 660.195312 210.5625 651.953125 191.355469 643.269531 172.734375 " fill-opacity="1" fill-rule="nonzero"/><path fill="#c8bba1" d="M 491.769531 143.214844 C 483.878906 137.992188 475.835938 134.800781 469.679688 132.910156 L 455.84375 187.777344 L 520.890625 203.011719 C 521.054688 199.226562 521.171875 195.519531 521.257812 191.878906 C 518.667969 170.851562 508.808594 154.507812 491.769531 143.214844 " fill-opacity="1" fill-rule="nonzero"/><path fill="#c8bba1" d="M 185.757812 416.472656 L 362.429688 417.824219 L 351.875 452.640625 C 351.875 452.640625 256.722656 460.675781 225.011719 482.101562 L 185.757812 416.472656 M 205.378906 476.757812 L 164.621094 476.757812 L 164.621094 460.675781 L 205.378906 460.675781 L 205.378906 476.757812 M 151.007812 508.886719 L 123.824219 508.886719 L 123.824219 464.714844 L 151.007812 464.714844 L 151.007812 508.886719 M 110.238281 520.957031 L 83.046875 520.957031 L 83.046875 467.382812 L 110.238281 467.382812 L 110.238281 520.957031 M 63.425781 531.679688 L 40.765625 531.679688 L 40.765625 507.566406 L 63.425781 507.566406 L 63.425781 531.679688 M 362.886719 464.429688 L 377.238281 407.546875 L 150.007812 405.21875 L 173.675781 437.902344 L 0.0585938 441.878906 L 0.0585938 457.996094 L 58.886719 457.996094 L 58.886719 487.46875 L 0.0585938 487.46875 L 0.0585938 506.238281 L 19.621094 506.238281 L 19.621094 522.296875 L 0.0585938 522.296875 L 0.0585938 563.742188 C 99.175781 532.089844 227.300781 491.730469 287.71875 474.96875 C 312.066406 468.226562 337.296875 464.789062 362.886719 464.429688 " fill-opacity="1" fill-rule="nonzero"/><path fill="#c8bba1" d="M 650.886719 453.980469 L 632.78125 445.945312 L 628.246094 464.714844 L 646.375 468.703125 L 635.796875 490.15625 L 585.957031 480.773438 L 608.617188 425.847656 L 669.023438 400.394531 L 693.1875 405.761719 L 650.886719 453.980469 M 741.503906 488.808594 L 721.875 502.199219 L 661.464844 488.808594 L 681.097656 457.996094 L 741.503906 488.808594 M 617.679688 550.429688 L 572.34375 515.601562 L 582.929688 496.851562 L 696.1875 514.273438 L 617.679688 550.429688 M 495.347656 479.425781 L 501.386719 456.648438 L 587.460938 429.875 L 557.253906 510.246094 L 495.347656 479.425781 M 530.070312 380.304688 L 632.78125 400.394531 L 508.925781 443.257812 C 508.925781 443.257812 528.566406 384.324219 530.070312 380.304688 M 733.226562 406.265625 L 516 369.019531 C 505.820312 405.703125 492.863281 443.800781 477.210938 483.179688 C 500.007812 490.960938 522.617188 501.066406 544.722656 513.554688 C 569.644531 527.671875 593.914062 545.015625 617.253906 565.003906 L 749.910156 497.058594 L 749.910156 472.371094 L 685.628906 447.292969 L 709.792969 416.472656 L 749.910156 463.585938 L 749.910156 447.789062 C 745.425781 439.425781 743.300781 432.273438 742.6875 430 L 733.226562 406.265625 " fill-opacity="1" fill-rule="nonzero"/><path fill="#c8bba1" d="M 590.992188 311.066406 L 532.351562 299.160156 C 529.246094 315.597656 525.527344 332.367188 521.179688 349.445312 L 584.703125 360.335938 L 593.265625 311.398438 L 591.382812 311.144531 L 590.992188 311.066406 " fill-opacity="1" fill-rule="nonzero"/><path fill="#c8bba1" d="M 620.6875 242.207031 L 611.671875 293.609375 L 694.285156 305.03125 C 688.492188 286.5625 682.328125 268.542969 675.816406 250.902344 L 669.558594 251.066406 L 620.6875 242.207031 " fill-opacity="1" fill-rule="nonzero"/><path fill="#c8bba1" d="M 448.527344 216.847656 C 470.292969 225.371094 485.519531 244.679688 485.519531 267.105469 C 485.519531 267.746094 485.5 268.378906 485.460938 269.027344 L 513.457031 274.707031 C 516.347656 256.539062 518.386719 239.46875 519.636719 223.488281 L 450.914062 207.386719 L 448.527344 216.847656 " fill-opacity="1" fill-rule="nonzero"/><path fill="#c8bba1" d="M 691.957031 230.375 L 749.910156 228.851562 L 749.910156 197.519531 L 670.617188 179.109375 C 678.070312 195.761719 685.203125 212.851562 691.957031 230.375 " fill-opacity="1" fill-rule="nonzero"/><path fill="#c8bba1" d="M 718.855469 74.878906 L 729.820312 44.832031 C 725.667969 39.050781 720.921875 33.703125 715.742188 28.851562 L 688.644531 74.878906 L 669.023438 80.253906 L 661.464844 69.53125 L 682.609375 57.476562 L 673.546875 44.078125 L 641.832031 57.476562 L 603.746094 -0.046875 L 564.269531 -0.046875 C 597.261719 42.40625 626.773438 89.472656 652.566406 141.011719 C 659.386719 121.429688 670.324219 107.542969 685.238281 99.652344 C 706.667969 88.316406 728.277344 93.898438 731.335938 94.769531 L 749.558594 99.71875 C 749.140625 93.808594 748.355469 87.996094 746.996094 82.378906 L 718.855469 74.878906 " fill-opacity="1" fill-rule="nonzero"/><path fill="#c8bba1" d="M 14.390625 327.640625 L 0.0585938 324.59375 L 0.0585938 381.65625 L 1.855469 382.140625 L 14.390625 327.640625 " fill-opacity="1" fill-rule="nonzero"/><path fill="#c8bba1" d="M 696.574219 117.050781 C 684.472656 123.601562 675.691406 137.839844 670.964844 158.410156 L 749.910156 176.75 L 749.910156 159.273438 L 711.316406 159.273438 L 711.316406 136.507812 L 749.910156 136.507812 L 749.910156 120.816406 L 724.152344 113.839844 C 723.679688 113.695312 709.976562 109.8125 696.574219 117.050781 " fill-opacity="1" fill-rule="nonzero"/><path fill="#c8bba1" d="M 629.75 333.433594 L 641.832031 333.433594 L 641.832031 356.183594 L 629.75 356.183594 L 629.75 333.433594 M 654.042969 336.746094 L 667.121094 337.773438 L 664.550781 363.128906 L 651.46875 362.089844 L 654.042969 336.746094 M 685.628906 349.496094 L 699.214844 349.496094 L 699.214844 370.933594 L 685.628906 370.933594 L 685.628906 349.496094 M 599.550781 362.878906 L 724.472656 384.292969 L 701.359375 326.339844 L 608.1875 313.464844 L 599.550781 362.878906 " fill-opacity="1" fill-rule="nonzero"/><path fill="#c8bba1" d="M 720.621094 314.355469 L 748.578125 384.480469 L 749.910156 383.945312 L 749.910156 361.265625 L 723.378906 275.820312 L 749.910156 287.835938 L 749.910156 268.796875 L 720.359375 257.0625 L 749.910156 256.472656 L 749.910156 248.960938 L 699.398438 250.28125 C 706.96875 271.085938 714.050781 292.445312 720.621094 314.355469 " fill-opacity="1" fill-rule="nonzero"/><path fill="#c8bba1" d="M 119.398438 323.722656 L 388.148438 364.265625 L 392.785156 345.808594 L 121.410156 294.609375 L 119.398438 323.722656 " fill-opacity="1" fill-rule="nonzero"/><path fill="#c8bba1" d="M 423.605469 322.03125 C 423.082031 322.03125 422.546875 322.003906 422.015625 321.992188 L 419.898438 330.378906 L 498.746094 345.253906 C 503.238281 327.5625 506.957031 310.667969 509.972656 294.617188 L 480.570312 288.640625 C 471.109375 308.273438 449.136719 322.03125 423.605469 322.03125 " fill-opacity="1" fill-rule="nonzero"/><path fill="#c8bba1" d="M 373.289062 515.339844 L 394.066406 611.429688 C 411.542969 577.398438 426.730469 545.082031 439.976562 514.339844 C 418.519531 508.652344 397.074219 505.460938 375.929688 504.78125 L 373.289062 515.339844 " fill-opacity="1" fill-rule="nonzero"/><path fill="#c8bba1" d="M 518 605.335938 L 454.5625 573.195312 L 474.203125 537.039062 C 474.203125 537.039062 531.585938 559.792969 560.269531 587.925781 L 518 605.335938 M 421.335938 654.894531 L 450.03125 586.585938 L 502.910156 617.386719 L 421.335938 654.894531 M 461.558594 520.917969 C 438.472656 574.351562 410.632812 629.976562 378.152344 687.519531 L 576.523438 585.898438 C 558.398438 571.253906 539.648438 558.378906 520.347656 547.449219 C 501.035156 536.515625 481.347656 527.710938 461.558594 520.917969 " fill-opacity="1" fill-rule="nonzero"/><path fill="#c8bba1" d="M 400.199219 85.601562 L 379.0625 85.601562 L 379.0625 64.171875 L 400.199219 64.171875 L 400.199219 85.601562 M 348.980469 77.234375 L 217.964844 50.570312 L 223.378906 29.683594 L 354.375 56.351562 L 348.980469 77.234375 M 436.726562 83.628906 C 422.917969 62.894531 398.074219 56.402344 375.882812 51.945312 C 336.328125 44.019531 259.9375 27.917969 189.242188 12.9375 L 164.988281 49.949219 L 445.90625 107.125 C 444.199219 98.117188 441.160156 90.257812 436.726562 83.628906 " fill-opacity="1" fill-rule="nonzero"/><path fill="#c8bba1" d="M 466.082031 449.351562 L 392.929688 437.445312 L 385.984375 464.9375 C 409.089844 466.304688 432.398438 470.226562 455.609375 476.582031 C 459.257812 467.363281 462.792969 458.242188 466.082031 449.351562 " fill-opacity="1" fill-rule="nonzero"/><path fill="#c8bba1" d="M 135.90625 362.886719 L 163.109375 362.886719 L 163.109375 374.949219 L 135.90625 374.949219 L 135.90625 362.886719 M 115.179688 384.761719 L 382.296875 387.507812 L 383.199219 383.898438 L 117.992188 343.90625 L 115.179688 384.761719 " fill-opacity="1" fill-rule="nonzero"/><path fill="#c8bba1" d="M 283.894531 291.882812 L 223.496094 278.5 L 228.027344 259.75 L 288.4375 273.144531 L 283.894531 291.882812 M 361.683594 267.105469 C 361.683594 266.242188 361.714844 265.351562 361.75 264.476562 L 200.003906 231.28125 L 187.398438 286.535156 L 397.734375 326.195312 L 399.851562 317.8125 C 377.472656 309.554688 361.683594 289.929688 361.683594 267.105469 " fill-opacity="1" fill-rule="nonzero"/><path fill="#c8bba1" d="M 410.515625 367.632812 L 410.730469 367.652344 C 416.5625 368.148438 462.363281 372.851562 483.0625 399.996094 C 486.886719 387.945312 490.359375 376.210938 493.542969 364.828125 L 414.941406 349.992188 L 410.515625 367.632812 " fill-opacity="1" fill-rule="nonzero"/><path fill="#c8bba1" d="M 408.332031 387.625 L 407.371094 387.527344 L 405.566406 387.265625 L 397.859375 417.832031 L 470.371094 429.613281 C 470.371094 422.820312 468.457031 416.851562 464.585938 411.632812 C 449.320312 390.933594 408.738281 387.660156 408.332031 387.625 " fill-opacity="1" fill-rule="nonzero"/><path fill="#29abe2" d="M 352.679688 504.984375 L 362.886719 464.429688 C 337.296875 464.789062 312.066406 468.226562 287.71875 474.96875 C 227.300781 491.730469 99.175781 532.089844 0.0585938 563.742188 L 0.0585938 606.453125 C 100.46875 574.332031 238.304688 530.796875 301.246094 513.359375 C 317.929688 508.730469 335.132812 505.964844 352.679688 504.984375 " fill-opacity="1" fill-rule="nonzero"/><path fill="#29abe2" d="M 617.144531 611.769531 C 614.980469 613.390625 612.984375 615.078125 610.972656 616.757812 C 643.976562 649.1875 674.390625 687.949219 701.503906 732.335938 C 714.371094 723.84375 725.222656 712.625 733.441406 699.582031 C 708.007812 660.609375 679.816406 625.511719 649.605469 595.089844 L 617.144531 611.769531 " fill-opacity="1" fill-rule="nonzero"/><path fill="#29abe2" d="M 520.347656 547.449219 C 539.648438 558.378906 558.398438 571.253906 576.523438 585.898438 L 617.253906 565.003906 C 593.914062 545.015625 569.644531 527.671875 544.722656 513.554688 C 522.617188 501.066406 500.007812 490.960938 477.210938 483.179688 C 472.253906 495.628906 467.042969 508.207031 461.558594 520.917969 C 481.347656 527.710938 501.035156 536.515625 520.347656 547.449219 " fill-opacity="1" fill-rule="nonzero"/><path fill="#29abe2" d="M 439.976562 514.339844 C 445.519531 501.460938 450.71875 488.886719 455.609375 476.582031 C 432.398438 470.226562 409.089844 466.304688 385.984375 464.9375 L 375.929688 504.78125 C 397.074219 505.460938 418.519531 508.652344 439.976562 514.339844 " fill-opacity="1" fill-rule="nonzero"/><path fill="#c8bba1" d="M 573.671875 672.859375 C 578.71875 651.898438 591.265625 633.128906 610.972656 616.757812 C 599.757812 605.734375 588.285156 595.390625 576.523438 585.898438 L 378.152344 687.519531 C 410.632812 629.976562 438.472656 574.351562 461.558594 520.917969 C 454.367188 518.453125 447.175781 516.261719 439.976562 514.339844 C 426.730469 545.082031 411.542969 577.398438 394.066406 611.429688 L 373.289062 515.339844 L 375.929688 504.78125 C 368.148438 504.5 360.382812 504.558594 352.679688 504.984375 L 350.574219 513.359375 L 349.816406 513.476562 L 350.144531 515.019531 L 349.863281 516.078125 L 350.398438 516.183594 L 377.726562 642.542969 C 366.679688 663.085938 354.851562 684.230469 342.160156 705.949219 L 256.285156 749.957031 L 348.292969 749.957031 L 563.121094 639.542969 C 557.816406 648.839844 553.914062 658.613281 551.457031 668.859375 C 544.101562 699.816406 551.351562 728.929688 560.132812 749.957031 L 585.851562 749.957031 C 576.085938 728.570312 567.246094 699.652344 573.671875 672.859375 " fill-opacity="1" fill-rule="nonzero"/><path fill="#f4f2ed" d="M 585.851562 749.957031 L 560.132812 749.957031 C 553.882812 735.003906 548.421875 715.964844 548.421875 695.089844 C 548.429688 686.597656 549.332031 677.808594 551.457031 668.859375 C 553.914062 658.613281 557.816406 648.839844 563.121094 639.542969 L 348.292969 749.957031 L 256.285156 749.957031 L 342.160156 705.949219 C 354.851562 684.230469 366.679688 663.085938 377.726562 642.542969 L 350.398438 516.183594 L 349.863281 516.078125 L 350.144531 515.019531 L 349.816406 513.476562 L 350.574219 513.359375 L 352.679688 504.984375 C 352.832031 504.976562 352.980469 504.964844 353.132812 504.957031 C 353.230469 504.957031 353.328125 504.945312 353.433594 504.945312 C 357.742188 504.714844 362.082031 504.605469 366.417969 504.605469 C 366.429688 504.605469 366.429688 504.605469 366.4375 504.605469 C 366.4375 504.605469 366.4375 504.605469 366.449219 504.605469 C 369.496094 504.605469 372.550781 504.664062 375.609375 504.773438 C 375.714844 504.773438 375.824219 504.773438 375.929688 504.78125 L 373.289062 515.339844 L 394.066406 611.429688 C 411.542969 577.398438 426.730469 545.082031 439.976562 514.339844 C 447.175781 516.261719 454.367188 518.453125 461.558594 520.917969 C 438.472656 574.351562 410.632812 629.976562 378.152344 687.519531 L 576.523438 585.898438 C 588.285156 595.390625 599.757812 605.734375 610.972656 616.757812 C 591.265625 633.128906 578.71875 651.898438 573.671875 672.859375 C 572.15625 679.183594 571.488281 685.636719 571.488281 692.082031 C 571.476562 712.898438 578.398438 733.625 585.851562 749.957031 " fill-opacity="1" fill-rule="nonzero"/><path fill="#c8bba1" d="M 675.816406 250.902344 C 682.328125 268.542969 688.492188 286.5625 694.285156 305.03125 L 611.671875 293.609375 L 620.6875 242.207031 L 669.558594 251.066406 L 675.816406 250.902344 M 701.359375 326.339844 L 724.472656 384.292969 L 599.550781 362.878906 L 608.1875 313.464844 L 701.359375 326.339844 M 595.632812 291.386719 L 535.835938 279.257812 C 538.648438 261.75 540.753906 244.632812 542.113281 227.960938 L 605.851562 239.519531 L 596.757812 291.550781 L 595.632812 291.386719 M 584.703125 360.335938 L 521.179688 349.445312 C 525.527344 332.367188 529.246094 315.597656 532.351562 299.160156 L 590.992188 311.066406 L 591.382812 311.144531 L 593.265625 311.398438 L 584.703125 360.335938 M 455.84375 187.777344 L 469.679688 132.910156 C 475.835938 134.800781 483.878906 137.992188 491.769531 143.214844 C 508.808594 154.507812 518.667969 170.851562 521.257812 191.878906 C 521.171875 195.519531 521.054688 199.226562 520.890625 203.011719 L 455.84375 187.777344 M 513.457031 274.707031 L 485.460938 269.027344 C 485.5 268.378906 485.519531 267.746094 485.519531 267.105469 C 485.519531 244.679688 470.292969 225.371094 448.527344 216.847656 L 450.914062 207.386719 L 519.636719 223.488281 C 518.386719 239.46875 516.347656 256.539062 513.457031 274.707031 M 498.746094 345.253906 L 419.898438 330.378906 L 422.015625 321.992188 C 422.546875 322.003906 423.082031 322.03125 423.605469 322.03125 C 449.136719 322.03125 471.109375 308.273438 480.570312 288.640625 L 509.972656 294.617188 C 506.957031 310.667969 503.238281 327.5625 498.746094 345.253906 M 483.0625 399.996094 C 462.363281 372.851562 416.5625 368.148438 410.730469 367.652344 L 410.515625 367.632812 L 414.941406 349.992188 L 493.542969 364.828125 C 490.359375 376.210938 486.886719 387.945312 483.0625 399.996094 M 397.859375 417.832031 L 405.566406 387.265625 L 407.371094 387.527344 L 408.332031 387.625 C 408.738281 387.660156 449.320312 390.933594 464.585938 411.632812 C 468.457031 416.851562 470.371094 422.820312 470.371094 429.613281 L 397.859375 417.832031 M 187.398438 286.535156 L 200.003906 231.28125 L 361.75 264.476562 C 361.714844 265.351562 361.683594 266.242188 361.683594 267.105469 C 361.683594 289.929688 377.472656 309.554688 399.851562 317.8125 L 397.734375 326.195312 L 187.398438 286.535156 M 388.148438 364.265625 L 119.398438 323.722656 L 121.410156 294.609375 L 392.785156 345.808594 L 388.148438 364.265625 M 382.296875 387.507812 L 115.179688 384.761719 L 117.992188 343.90625 L 383.199219 383.898438 L 382.296875 387.507812 M 112.78125 419.441406 L 113.792969 404.859375 L 123.105469 404.933594 L 132.878906 418.996094 L 112.78125 419.441406 M 70.664062 183.601562 L 83.398438 128.28125 L 119.671875 135.78125 L 108.222656 191.367188 L 70.664062 183.601562 M 100.449219 269.902344 C 85.921875 266.960938 69.792969 263.679688 53.003906 260.277344 L 66.015625 203.796875 L 104.445312 211.6875 L 100.449219 269.902344 M 96.925781 320.324219 L 41.125 311.929688 L 48.519531 279.78125 C 69.976562 284.253906 88.289062 288.019531 99.019531 290.222656 L 96.925781 320.324219 M 92.511719 384.546875 L 24.570312 383.839844 L 36.59375 331.601562 L 95.546875 340.507812 L 92.511719 384.546875 M 90.054688 419.929688 L 15.90625 421.539062 L 19.953125 403.898438 L 91.113281 404.625 L 90.054688 419.929688 M 99.730469 57.265625 L 134.375 64.320312 L 123.746094 115.992188 L 87.917969 108.578125 L 99.730469 57.265625 M 185.261719 228.269531 L 172.648438 283.738281 L 122.824219 274.335938 L 126.8125 216.277344 L 185.261719 228.269531 M 202.429688 152.917969 L 189.824219 208.25 L 130.308594 195.925781 L 141.75 140.359375 L 202.429688 152.917969 M 261.199219 212.675781 C 263.246094 216.90625 265.828125 220.855469 268.882812 224.601562 L 204.535156 211.296875 L 217.140625 155.945312 L 259.691406 164.757812 C 255.761719 176.128906 252.367188 194.375 261.199219 212.675781 M 423.605469 232.296875 C 445.257812 232.296875 462.871094 247.902344 462.871094 267.105469 C 462.871094 286.320312 445.257812 301.933594 423.605469 301.933594 C 401.957031 301.933594 384.34375 286.320312 384.34375 267.105469 C 384.34375 247.902344 401.957031 232.296875 423.605469 232.296875 M 282.101562 204.933594 C 275.550781 191.503906 278.828125 177.410156 281.839844 169.335938 L 338.578125 181.078125 L 428.980469 202.253906 L 426.460938 212.25 C 425.527344 212.21875 424.566406 212.191406 423.605469 212.191406 C 398.386719 212.191406 376.636719 225.640625 366.992188 244.894531 L 335.210938 238.316406 L 335.296875 238.015625 C 307.300781 231.027344 289.417969 219.90625 282.101562 204.933594 M 156.488281 68.8125 L 447.527344 128.074219 C 447.496094 128.328125 447.488281 128.589844 447.488281 128.84375 L 433.929688 182.632812 L 344.207031 161.632812 L 344.03125 161.585938 L 145.824219 120.554688 L 156.488281 68.8125 M 189.242188 12.9375 C 259.9375 27.917969 336.328125 44.019531 375.882812 51.945312 C 398.074219 56.402344 422.917969 62.894531 436.726562 83.628906 C 441.160156 90.257812 444.199219 98.117188 445.90625 107.125 L 164.988281 49.949219 L 189.242188 12.9375 M 493.339844 39 C 505.132812 65.269531 515.582031 98.664062 519.433594 138.625 C 514.816406 133.996094 509.972656 130.199219 505.335938 127.125 C 494.214844 119.769531 482.917969 115.539062 474.660156 113.207031 L 493.339844 39 M 563.878906 188.542969 C 583.851562 170.25 607.0625 164.117188 632.933594 170.335938 L 643.269531 172.734375 C 651.953125 191.355469 660.195312 210.5625 667.9375 230.261719 L 546.976562 208.347656 C 550.835938 202.605469 556.4375 195.34375 563.878906 188.542969 M 685.238281 99.652344 C 670.324219 107.542969 659.386719 121.429688 652.566406 141.011719 C 626.773438 89.472656 597.261719 42.40625 564.269531 -0.046875 L 536.71875 -0.046875 C 572.632812 44.367188 604.453125 94.34375 632.042969 149.53125 C 600.746094 143.953125 571.671875 152.519531 547.605469 174.558594 C 546.382812 175.695312 545.199219 176.820312 544.0625 177.945312 C 543.957031 164.253906 543.316406 150.878906 542.113281 137.867188 C 536.195312 73.316406 517.980469 29.617188 502.414062 3.039062 L 503.199219 -0.046875 L 472.222656 -0.046875 C 474.027344 2.746094 475.871094 5.675781 477.746094 8.839844 L 457.019531 91.0625 C 455.078125 85.949219 452.660156 81.195312 449.730469 76.808594 C 433.660156 52.683594 406.34375 44.328125 379.210938 38.882812 C 340.546875 31.132812 266.542969 15.554688 197.179688 0.835938 L 197.761719 -0.046875 L 128.25 -0.046875 C 140.339844 2.542969 153.09375 5.242188 166.25 8.042969 L 141.902344 45.242188 L 104.261719 37.574219 L 112.925781 -0.046875 L 107.183594 -0.046875 C 101.136719 -0.046875 95.226562 0.582031 89.441406 1.5625 L 82.175781 33.070312 L 39.410156 24.367188 C 33.238281 29.453125 27.707031 35.273438 22.785156 41.59375 L 77.652344 52.761719 L 65.863281 104.007812 L 6.917969 91.800781 L 18.097656 48.054688 C 7.269531 64.328125 0.707031 83.667969 0.195312 104.457031 C 0.175781 105.328125 0.0585938 106.203125 0.0585938 107.085938 L 0.0585938 118.574219 L 1.890625 111.414062 L 61.339844 123.707031 L 48.589844 179.042969 L 0.0585938 169.007812 L 0.0585938 190.269531 L 43.929688 199.265625 L 30.925781 255.78125 C 20.640625 253.675781 10.277344 251.5625 0.0585938 249.464844 L 0.0585938 269.589844 C 8.945312 271.472656 17.828125 273.347656 26.464844 275.160156 L 18.921875 307.933594 L 0.0585938 303.933594 L 0.0585938 324.59375 L 14.390625 327.640625 L 1.855469 382.140625 L 0.0585938 381.65625 L 0.0585938 441.878906 L 173.675781 437.902344 L 150.007812 405.21875 L 377.238281 407.546875 L 362.886719 464.429688 C 370.5625 464.316406 378.257812 464.488281 385.984375 464.9375 L 392.929688 437.445312 L 466.082031 449.351562 C 462.792969 458.242188 459.257812 467.363281 455.609375 476.582031 C 462.820312 478.550781 470.019531 480.734375 477.210938 483.179688 C 492.863281 443.800781 505.820312 405.703125 516 369.019531 L 733.226562 406.265625 L 742.6875 430 C 743.300781 432.273438 745.425781 439.425781 749.910156 447.789062 L 749.910156 383.945312 L 748.578125 384.480469 L 720.621094 314.355469 C 714.050781 292.445312 706.96875 271.085938 699.398438 250.28125 L 749.910156 248.960938 L 749.910156 228.851562 L 691.957031 230.375 C 685.203125 212.851562 678.070312 195.761719 670.617188 179.109375 L 749.910156 197.519531 L 749.910156 176.75 L 670.964844 158.410156 C 675.691406 137.839844 684.472656 123.601562 696.574219 117.050781 C 709.976562 109.8125 723.679688 113.695312 724.152344 113.839844 L 749.910156 120.816406 L 749.910156 104.457031 C 749.878906 102.855469 749.675781 101.292969 749.558594 99.71875 L 731.335938 94.769531 C 728.277344 93.898438 706.667969 88.316406 685.238281 99.652344 " fill-opacity="1" fill-rule="nonzero"/><path fill="#f4f2ed" d="M 477.210938 483.179688 C 470.019531 480.734375 462.820312 478.550781 455.609375 476.582031 C 459.257812 467.363281 462.792969 458.242188 466.082031 449.351562 L 392.929688 437.445312 L 385.984375 464.9375 C 385.796875 464.925781 385.605469 464.90625 385.421875 464.898438 C 385.410156 464.898438 385.410156 464.898438 385.410156 464.898438 C 385.148438 464.886719 384.886719 464.867188 384.625 464.859375 C 384.585938 464.859375 384.558594 464.847656 384.507812 464.847656 C 378.839844 464.546875 373.183594 464.394531 367.546875 464.394531 C 367.535156 464.394531 367.535156 464.394531 367.527344 464.394531 C 365.972656 464.394531 364.429688 464.402344 362.886719 464.429688 L 377.238281 407.546875 L 150.007812 405.21875 L 173.675781 437.902344 L 0.0585938 441.878906 L 0.0585938 381.65625 L 1.855469 382.140625 L 14.390625 327.640625 L 0.0585938 324.59375 L 0.0585938 303.933594 L 18.921875 307.933594 L 26.464844 275.160156 C 17.828125 273.347656 8.945312 271.472656 0.0585938 269.589844 L 0.0585938 249.464844 C 10.277344 251.5625 20.640625 253.675781 30.925781 255.78125 L 43.929688 199.265625 L 0.0585938 190.269531 L 0.0585938 169.007812 L 48.589844 179.042969 L 61.339844 123.707031 L 1.890625 111.414062 L 0.0585938 118.574219 L 0.0585938 107.085938 C 0.0585938 106.203125 0.175781 105.328125 0.195312 104.457031 C 0.707031 83.667969 7.269531 64.328125 18.097656 48.054688 L 6.917969 91.800781 L 65.863281 104.007812 L 77.652344 52.761719 L 22.785156 41.59375 C 27.707031 35.273438 33.238281 29.453125 39.410156 24.367188 L 82.175781 33.070312 L 89.441406 1.5625 C 95.226562 0.582031 101.136719 -0.046875 107.183594 -0.046875 L 112.925781 -0.046875 L 104.261719 37.574219 L 141.902344 45.242188 L 166.25 8.042969 C 153.09375 5.242188 140.339844 2.542969 128.25 -0.046875 L 197.761719 -0.046875 L 197.179688 0.835938 C 266.542969 15.554688 340.546875 31.132812 379.210938 38.882812 C 406.34375 44.328125 433.660156 52.683594 449.730469 76.808594 C 452.660156 81.195312 455.078125 85.949219 457.019531 91.0625 L 477.746094 8.839844 C 475.871094 5.675781 474.027344 2.746094 472.222656 -0.046875 L 503.199219 -0.046875 L 502.414062 3.039062 C 517.980469 29.617188 536.195312 73.316406 542.113281 137.867188 C 543.316406 150.878906 543.957031 164.253906 544.0625 177.945312 C 545.199219 176.820312 546.382812 175.695312 547.605469 174.558594 C 566.90625 156.886719 589.421875 147.871094 613.730469 147.871094 C 619.738281 147.871094 625.839844 148.425781 632.042969 149.53125 C 604.453125 94.34375 572.632812 44.367188 536.71875 -0.046875 L 564.269531 -0.046875 C 597.261719 42.40625 626.773438 89.472656 652.566406 141.011719 C 659.386719 121.429688 670.324219 107.542969 685.238281 99.652344 C 695.652344 94.140625 706.105469 92.625 714.460938 92.625 C 723.289062 92.625 729.761719 94.324219 731.335938 94.769531 L 749.558594 99.71875 C 749.675781 101.292969 749.878906 102.855469 749.910156 104.457031 L 749.910156 120.816406 L 724.152344 113.839844 C 724.144531 113.839844 724.132812 113.839844 724.132812 113.828125 C 723.757812 113.722656 719.953125 112.675781 714.535156 112.675781 C 714.527344 112.675781 714.527344 112.675781 714.527344 112.675781 C 714.519531 112.675781 714.507812 112.675781 714.5 112.675781 C 709.472656 112.675781 703.058594 113.585938 696.699219 116.992188 C 696.652344 117.011719 696.613281 117.03125 696.574219 117.050781 C 684.472656 123.601562 675.691406 137.839844 670.964844 158.410156 L 749.910156 176.75 L 749.910156 197.519531 L 670.617188 179.109375 C 678.070312 195.761719 685.203125 212.851562 691.957031 230.375 L 749.910156 228.851562 L 749.910156 248.960938 L 699.398438 250.28125 C 706.96875 271.085938 714.050781 292.445312 720.621094 314.355469 L 748.578125 384.480469 L 749.910156 383.945312 L 749.910156 447.789062 C 745.425781 439.425781 743.300781 432.273438 742.6875 430 L 733.226562 406.265625 L 516 369.019531 C 505.820312 405.703125 492.863281 443.800781 477.210938 483.179688 M 470.371094 429.613281 C 470.371094 422.820312 468.457031 416.851562 464.585938 411.632812 C 449.320312 390.933594 408.738281 387.660156 408.332031 387.625 L 407.371094 387.527344 L 405.566406 387.265625 L 397.859375 417.832031 L 470.371094 429.613281 M 15.90625 421.539062 L 90.054688 419.929688 L 91.113281 404.625 L 19.953125 403.898438 L 15.90625 421.539062 M 112.78125 419.441406 L 132.878906 418.996094 L 123.105469 404.933594 L 113.792969 404.859375 L 112.78125 419.441406 M 410.515625 367.632812 L 410.730469 367.652344 C 416.5625 368.148438 462.363281 372.851562 483.0625 399.996094 C 486.886719 387.945312 490.359375 376.210938 493.542969 364.828125 L 414.941406 349.992188 L 410.515625 367.632812 M 115.179688 384.761719 L 382.296875 387.507812 L 383.199219 383.898438 L 117.992188 343.90625 L 115.179688 384.761719 M 24.570312 383.839844 L 92.511719 384.546875 L 95.546875 340.507812 L 36.59375 331.601562 L 24.570312 383.839844 M 724.472656 384.292969 L 701.359375 326.339844 L 608.1875 313.464844 L 599.550781 362.878906 L 724.472656 384.292969 M 119.398438 323.722656 L 388.148438 364.265625 L 392.785156 345.808594 L 121.410156 294.609375 L 119.398438 323.722656 M 521.179688 349.445312 L 584.703125 360.335938 L 593.265625 311.398438 L 591.382812 311.144531 L 590.992188 311.066406 L 532.351562 299.160156 C 529.246094 315.597656 525.527344 332.367188 521.179688 349.445312 M 419.898438 330.378906 L 498.746094 345.253906 C 503.238281 327.5625 506.957031 310.667969 509.972656 294.617188 L 480.570312 288.640625 C 471.109375 308.273438 449.136719 322.03125 423.605469 322.03125 C 423.082031 322.03125 422.546875 322.003906 422.015625 321.992188 L 419.898438 330.378906 M 187.398438 286.535156 L 397.734375 326.195312 L 399.851562 317.8125 C 377.472656 309.554688 361.683594 289.929688 361.683594 267.105469 C 361.683594 266.242188 361.714844 265.351562 361.75 264.476562 L 200.003906 231.28125 L 187.398438 286.535156 M 41.125 311.929688 L 96.925781 320.324219 L 99.019531 290.222656 C 88.289062 288.019531 69.976562 284.253906 48.519531 279.78125 L 41.125 311.929688 M 611.671875 293.609375 L 694.285156 305.03125 C 688.492188 286.5625 682.328125 268.542969 675.816406 250.902344 L 669.558594 251.066406 L 620.6875 242.207031 L 611.671875 293.609375 M 384.34375 267.105469 C 384.34375 286.320312 401.957031 301.933594 423.605469 301.933594 C 445.257812 301.933594 462.871094 286.320312 462.871094 267.105469 C 462.871094 247.902344 445.257812 232.296875 423.605469 232.296875 C 401.957031 232.296875 384.34375 247.902344 384.34375 267.105469 M 535.835938 279.257812 L 595.632812 291.386719 L 596.757812 291.550781 L 605.851562 239.519531 L 542.113281 227.960938 C 540.753906 244.632812 538.648438 261.75 535.835938 279.257812 M 122.824219 274.335938 L 172.648438 283.738281 L 185.261719 228.269531 L 126.8125 216.277344 L 122.824219 274.335938 M 485.460938 269.027344 L 513.457031 274.707031 C 516.347656 256.539062 518.386719 239.46875 519.636719 223.488281 L 450.914062 207.386719 L 448.527344 216.847656 C 470.292969 225.371094 485.519531 244.679688 485.519531 267.105469 C 485.519531 267.746094 485.5 268.378906 485.460938 269.027344 M 53.003906 260.277344 C 69.792969 263.679688 85.921875 266.960938 100.449219 269.902344 L 104.445312 211.6875 L 66.015625 203.796875 L 53.003906 260.277344 M 335.210938 238.316406 L 366.992188 244.894531 C 376.636719 225.640625 398.386719 212.191406 423.605469 212.191406 C 424.566406 212.191406 425.527344 212.21875 426.460938 212.25 L 428.980469 202.253906 L 338.578125 181.078125 L 281.839844 169.335938 C 280.109375 173.976562 278.296875 180.59375 278.296875 187.929688 C 278.304688 193.375 279.316406 199.207031 282.101562 204.933594 C 289.417969 219.90625 307.300781 231.027344 335.296875 238.015625 L 335.210938 238.316406 M 667.9375 230.261719 C 660.195312 210.5625 651.953125 191.355469 643.269531 172.734375 L 632.933594 170.335938 C 632.828125 170.308594 632.722656 170.289062 632.613281 170.257812 C 632.535156 170.238281 632.449219 170.222656 632.371094 170.203125 C 626.042969 168.726562 619.882812 167.988281 613.886719 167.988281 C 613.875 167.988281 613.875 167.988281 613.875 167.988281 C 613.875 167.988281 613.867188 167.988281 613.867188 167.988281 C 595.554688 167.988281 578.816406 174.867188 563.878906 188.542969 C 556.4375 195.34375 550.835938 202.605469 546.976562 208.347656 L 667.9375 230.261719 M 268.882812 224.601562 C 265.828125 220.855469 263.246094 216.90625 261.199219 212.675781 C 257.09375 204.175781 255.628906 195.675781 255.636719 187.871094 C 255.636719 178.894531 257.585938 170.84375 259.691406 164.757812 L 217.140625 155.945312 L 204.535156 211.296875 L 268.882812 224.601562 M 130.308594 195.925781 L 189.824219 208.25 L 202.429688 152.917969 L 141.75 140.359375 L 130.308594 195.925781 M 455.84375 187.777344 L 520.890625 203.011719 C 521.054688 199.226562 521.171875 195.519531 521.257812 191.878906 C 518.667969 170.851562 508.808594 154.507812 491.769531 143.214844 C 483.878906 137.992188 475.835938 134.800781 469.679688 132.910156 L 455.84375 187.777344 M 70.664062 183.601562 L 108.222656 191.367188 L 119.671875 135.78125 L 83.398438 128.28125 L 70.664062 183.601562 M 145.824219 120.554688 L 344.03125 161.585938 L 344.207031 161.632812 L 433.929688 182.632812 L 447.488281 128.84375 C 447.488281 128.589844 447.496094 128.328125 447.527344 128.074219 L 156.488281 68.8125 L 145.824219 120.554688 M 519.433594 138.625 C 515.582031 98.664062 505.132812 65.269531 493.339844 39 L 474.660156 113.207031 C 482.917969 115.539062 494.214844 119.769531 505.335938 127.125 C 509.972656 130.199219 514.816406 133.996094 519.433594 138.625 M 87.917969 108.578125 L 123.746094 115.992188 L 134.375 64.320312 L 99.730469 57.265625 L 87.917969 108.578125 M 445.90625 107.125 C 444.199219 98.117188 441.160156 90.257812 436.726562 83.628906 C 422.917969 62.894531 398.074219 56.402344 375.882812 51.945312 C 336.328125 44.019531 259.9375 27.917969 189.242188 12.9375 L 164.988281 49.949219 L 445.90625 107.125 " fill-opacity="1" fill-rule="nonzero"/><path fill="#c8bba1" d="M 649.605469 595.089844 L 749.910156 543.558594 L 749.910156 497.058594 L 617.253906 565.003906 C 628.265625 574.429688 639.058594 584.480469 649.605469 595.089844 " fill-opacity="1" fill-rule="nonzero"/><path fill="#f4f2ed" d="M 649.605469 595.089844 C 639.058594 584.480469 628.265625 574.429688 617.253906 565.003906 L 749.910156 497.058594 L 749.910156 543.558594 L 649.605469 595.089844 " fill-opacity="1" fill-rule="nonzero"/><path fill="#29abe2" d="M 461.558594 520.917969 C 467.042969 508.207031 472.253906 495.628906 477.210938 483.179688 C 470.019531 480.734375 462.820312 478.550781 455.609375 476.582031 C 450.71875 488.886719 445.519531 501.460938 439.976562 514.339844 C 447.175781 516.261719 454.367188 518.453125 461.558594 520.917969 " fill-opacity="1" fill-rule="nonzero"/><path fill="#49effa" d="M 461.558594 520.917969 C 454.367188 518.453125 447.175781 516.261719 439.976562 514.339844 C 445.519531 501.460938 450.71875 488.886719 455.609375 476.582031 C 462.820312 478.550781 470.019531 480.734375 477.210938 483.179688 C 472.253906 495.628906 467.042969 508.207031 461.558594 520.917969 " fill-opacity="1" fill-rule="nonzero"/><path fill="#29abe2" d="M 375.929688 504.78125 L 385.984375 464.9375 C 378.257812 464.488281 370.5625 464.316406 362.886719 464.429688 L 352.679688 504.984375 C 360.382812 504.558594 368.148438 504.5 375.929688 504.78125 " fill-opacity="1" fill-rule="nonzero"/><path fill="#49effa" d="M 352.679688 504.984375 L 362.886719 464.429688 C 364.429688 464.402344 365.984375 464.394531 367.527344 464.394531 C 373.660156 464.394531 379.8125 464.578125 385.984375 464.9375 L 375.929688 504.78125 C 375.824219 504.773438 375.714844 504.773438 375.609375 504.773438 C 372.550781 504.664062 369.496094 504.605469 366.449219 504.605469 C 366.4375 504.605469 366.4375 504.605469 366.4375 504.605469 C 366.429688 504.605469 366.429688 504.605469 366.417969 504.605469 C 362.082031 504.605469 357.742188 504.714844 353.433594 504.945312 C 353.183594 504.957031 352.929688 504.964844 352.679688 504.984375 " fill-opacity="1" fill-rule="nonzero"/><path fill="#29abe2" d="M 610.972656 616.757812 C 612.984375 615.078125 614.980469 613.390625 617.144531 611.769531 L 649.605469 595.089844 C 639.058594 584.480469 628.265625 574.429688 617.253906 565.003906 L 576.523438 585.898438 C 588.285156 595.390625 599.757812 605.734375 610.972656 616.757812 " fill-opacity="1" fill-rule="nonzero"/><path fill="#49effa" d="M 610.972656 616.757812 C 599.757812 605.734375 588.285156 595.390625 576.523438 585.898438 L 617.253906 565.003906 C 628.265625 574.429688 639.058594 584.480469 649.605469 595.089844 L 617.144531 611.769531 C 614.980469 613.390625 612.984375 615.078125 610.972656 616.757812 " fill-opacity="1" fill-rule="nonzero"/><path fill="#009245" d="M 15.089844 622.765625 L 0.0585938 628.265625 L 0.0585938 642.8125 C 0.0585938 643.386719 0.136719 643.949219 0.15625 644.511719 L 25.65625 649.527344 L 15.089844 622.765625 " fill-opacity="1" fill-rule="nonzero"/><path fill="#009245" d="M 64.929688 598.640625 L 22.648438 625.441406 L 33.207031 646.871094 L 67.949219 653.574219 L 80.03125 645.53125 L 190.289062 606.683594 L 176.695312 566.492188 L 64.929688 598.640625 " fill-opacity="1" fill-rule="nonzero"/><path fill="#009245" d="M 31.703125 656.234375 L 28.6875 689.734375 L 51.324219 664.296875 Z M 31.703125 656.234375 " fill-opacity="1" fill-rule="nonzero"/><path fill="#009245" d="M 37.738281 708.492188 L 67.949219 736.625 L 89.085938 703.125 L 67.949219 660.269531 L 37.738281 708.492188 " fill-opacity="1" fill-rule="nonzero"/><path fill="#009245" d="M 96.632812 701.785156 L 116.265625 711.167969 L 122.3125 640.183594 L 84.5625 654.894531 L 96.632812 701.785156 " fill-opacity="1" fill-rule="nonzero"/><path fill="#009245" d="M 21.136719 658.914062 L 0.777344 654.796875 C 2.707031 671.859375 8.683594 687.703125 17.710938 701.4375 L 18.117188 701.785156 L 21.136719 658.914062 " fill-opacity="1" fill-rule="nonzero"/><path fill="#009245" d="M 95.128906 717.855469 L 85.328125 747.667969 C 86.640625 747.9375 88.015625 748.09375 89.335938 748.335938 L 122.3125 736.625 L 95.128906 717.855469 " fill-opacity="1" fill-rule="nonzero"/><path fill="#009245" d="M 270.320312 609.363281 L 220.480469 620.085938 L 196.316406 614.71875 L 132.878906 637.496094 L 129.859375 724.542969 L 145.28125 749.957031 L 223.320312 749.957031 L 299.015625 691.074219 L 270.320312 609.363281 " fill-opacity="1" fill-rule="nonzero"/><path fill="#009245" d="M 184.234375 563.820312 L 191.792969 589.277344 L 234.066406 578.5625 L 243.136719 595.953125 L 223.496094 601.320312 L 226.523438 610.703125 L 268.804688 604.007812 L 246.144531 543.722656 L 184.234375 563.820312 " fill-opacity="1" fill-rule="nonzero"/><path fill="#009245" d="M 314.125 555.785156 L 289.949219 561.125 L 282.402344 534.351562 L 264.273438 542.386719 L 282.402344 597.292969 L 323.179688 587.925781 L 314.125 555.785156 " fill-opacity="1" fill-rule="nonzero"/><path fill="#009245" d="M 326.207031 595.953125 L 283.894531 609.363281 L 294.492188 634.816406 L 332.242188 624.105469 L 326.207031 595.953125 " fill-opacity="1" fill-rule="nonzero"/><path fill="#009245" d="M 344.324219 636.15625 L 300.519531 648.21875 L 311.105469 680.347656 L 351.875 668.277344 L 344.324219 636.15625 " fill-opacity="1" fill-rule="nonzero"/><path fill="#009245" d="M 673.546875 44.078125 L 682.609375 57.476562 L 661.464844 69.53125 L 669.023438 80.253906 L 688.644531 74.878906 L 715.742188 28.851562 C 703.648438 17.566406 688.976562 9.015625 672.691406 4.269531 L 643.355469 17.28125 L 630.90625 -0.046875 L 603.746094 -0.046875 L 641.832031 57.476562 L 673.546875 44.078125 " fill-opacity="1" fill-rule="nonzero"/><path fill="#009245" d="M 749.910156 361.265625 L 749.910156 287.835938 L 723.378906 275.820312 Z M 749.910156 361.265625 " fill-opacity="1" fill-rule="nonzero"/><path fill="#009245" d="M 530.070312 380.304688 C 528.566406 384.324219 508.925781 443.257812 508.925781 443.257812 L 632.78125 400.394531 L 530.070312 380.304688 " fill-opacity="1" fill-rule="nonzero"/><path fill="#009245" d="M 501.386719 456.648438 L 495.347656 479.425781 L 557.253906 510.246094 L 587.460938 429.875 L 501.386719 456.648438 " fill-opacity="1" fill-rule="nonzero"/><path fill="#009245" d="M 608.617188 425.847656 L 585.957031 480.773438 L 635.796875 490.15625 L 646.375 468.703125 L 628.246094 464.714844 L 632.78125 445.945312 L 650.886719 453.980469 L 693.1875 405.761719 L 669.023438 400.394531 L 608.617188 425.847656 " fill-opacity="1" fill-rule="nonzero"/><path fill="#009245" d="M 572.34375 515.601562 L 617.679688 550.429688 L 696.1875 514.273438 L 582.929688 496.851562 L 572.34375 515.601562 " fill-opacity="1" fill-rule="nonzero"/><path fill="#009245" d="M 661.464844 488.808594 L 721.875 502.199219 L 741.503906 488.808594 L 681.097656 457.996094 L 661.464844 488.808594 " fill-opacity="1" fill-rule="nonzero"/><path fill="#009245" d="M 685.628906 447.292969 L 749.910156 472.371094 L 749.910156 463.585938 L 709.792969 416.472656 L 685.628906 447.292969 " fill-opacity="1" fill-rule="nonzero"/><path fill="#009245" d="M 749.910156 268.796875 L 749.910156 256.472656 L 720.359375 257.0625 Z M 749.910156 268.796875 " fill-opacity="1" fill-rule="nonzero"/><path fill="#009245" d="M 362.429688 417.824219 L 185.757812 416.472656 L 225.011719 482.101562 C 256.722656 460.675781 351.875 452.640625 351.875 452.640625 L 362.429688 417.824219 " fill-opacity="1" fill-rule="nonzero"/><path fill="#009245" d="M 400.402344 -0.046875 L 259.558594 -0.046875 L 391.136719 28.007812 Z M 400.402344 -0.046875 " fill-opacity="1" fill-rule="nonzero"/><path fill="#009245" d="M 442.492188 30.675781 L 448.933594 -0.046875 L 422.644531 -0.046875 L 419.832031 15.964844 L 442.492188 30.675781 " fill-opacity="1" fill-rule="nonzero"/><path fill="#009245" d="M 746.996094 82.378906 C 743.738281 68.667969 737.808594 55.972656 729.820312 44.832031 L 718.855469 74.878906 L 746.996094 82.378906 " fill-opacity="1" fill-rule="nonzero"/><path fill="#009245" d="M 738.488281 684.375 C 738.488281 684.375 739.71875 684.125 741.6875 683.734375 C 746.648438 671.859375 749.589844 658.972656 749.910156 645.453125 L 749.910156 562.144531 L 679.582031 604.007812 L 738.488281 684.375 " fill-opacity="1" fill-rule="nonzero"/><path fill="#009245" d="M 599.550781 677.679688 L 581.425781 687.046875 L 588.976562 711.167969 L 667.511719 700.4375 L 619.183594 636.15625 L 588.976562 656.234375 L 599.550781 677.679688 " fill-opacity="1" fill-rule="nonzero"/><path fill="#009245" d="M 647.890625 735.273438 L 652.527344 749.441406 C 667.054688 748.140625 680.777344 743.949219 693.082031 737.371094 L 687.140625 724.542969 L 647.890625 735.273438 " fill-opacity="1" fill-rule="nonzero"/><path fill="#009245" d="M 596.523438 741.980469 L 600.320312 749.957031 L 632.644531 749.957031 L 631.273438 737.953125 L 596.523438 741.980469 " fill-opacity="1" fill-rule="nonzero"/><path fill="#009245" d="M 477.890625 749.957031 L 516.96875 749.957031 L 513.476562 740.621094 Z M 477.890625 749.957031 " fill-opacity="1" fill-rule="nonzero"/><path fill="#009245" d="M 527.0625 704.464844 C 521.015625 707.152344 394.164062 733.945312 394.164062 733.945312 L 367.109375 749.957031 L 437.222656 749.957031 C 489.148438 736.1875 537.621094 723.222656 537.621094 723.222656 C 537.621094 723.222656 533.089844 701.785156 527.0625 704.464844 " fill-opacity="1" fill-rule="nonzero"/><path fill="#009245" d="M 454.5625 573.195312 L 518 605.335938 L 560.269531 587.925781 C 531.585938 559.792969 474.203125 537.039062 474.203125 537.039062 L 454.5625 573.195312 " fill-opacity="1" fill-rule="nonzero"/><path fill="#009245" d="M 421.335938 654.894531 L 502.910156 617.386719 L 450.03125 586.585938 Z M 421.335938 654.894531 " fill-opacity="1" fill-rule="nonzero"/><path fill="#009245" d="M 423.605469 289.203125 C 437.367188 289.203125 448.527344 279.316406 448.527344 267.105469 C 448.527344 254.910156 437.367188 245.019531 423.605469 245.019531 C 409.847656 245.019531 398.695312 254.910156 398.695312 267.105469 C 398.695312 279.316406 409.847656 289.203125 423.605469 289.203125 " fill-opacity="1" fill-rule="nonzero"/><path fill="#808080" d="M 382.21875 141.351562 L 415.125 149.40625 L 418.734375 137.800781 L 344.496094 119.59375 L 341.160156 130.347656 L 308.242188 122.273438 L 304.644531 133.878906 L 378.878906 152.082031 L 382.21875 141.351562 " fill-opacity="1" fill-rule="nonzero"/><path fill="#808080" d="M 19.621094 506.238281 L 0.0585938 506.238281 L 0.0585938 522.296875 L 19.621094 522.296875 L 19.621094 506.238281 " fill-opacity="1" fill-rule="nonzero"/><path fill="#808080" d="M 369.992188 211.523438 L 327.710938 202.148438 L 332.242188 187.417969 L 312.609375 186.078125 L 303.546875 212.851562 L 365.457031 230.269531 L 369.992188 211.523438 " fill-opacity="1" fill-rule="nonzero"/><path fill="#808080" d="M 40.765625 531.679688 L 63.425781 531.679688 L 63.425781 507.566406 L 40.765625 507.566406 L 40.765625 531.679688 " fill-opacity="1" fill-rule="nonzero"/><path fill="#808080" d="M 58.886719 457.996094 L 0.0585938 457.996094 L 0.0585938 487.46875 L 58.886719 487.46875 L 58.886719 457.996094 " fill-opacity="1" fill-rule="nonzero"/><path fill="#808080" d="M 83.046875 520.957031 L 110.238281 520.957031 L 110.238281 467.382812 L 83.046875 467.382812 L 83.046875 520.957031 " fill-opacity="1" fill-rule="nonzero"/><path fill="#808080" d="M 223.496094 278.5 L 283.894531 291.882812 L 288.4375 273.144531 L 228.027344 259.75 L 223.496094 278.5 " fill-opacity="1" fill-rule="nonzero"/><path fill="#808080" d="M 16.605469 211.523438 L 0.0585938 211.523438 L 0.0585938 234.296875 L 16.605469 234.296875 L 16.605469 211.523438 " fill-opacity="1" fill-rule="nonzero"/><path fill="#808080" d="M 280.898438 115.070312 L 280.898438 99 L 203.875 99 L 203.875 124.457031 L 259.730469 124.457031 L 259.730469 115.070312 L 280.898438 115.070312 " fill-opacity="1" fill-rule="nonzero"/><path fill="#808080" d="M 590.488281 100.339844 L 567.820312 100.339844 L 567.820312 136.507812 L 590.488281 136.507812 L 590.488281 100.339844 " fill-opacity="1" fill-rule="nonzero"/><path fill="#808080" d="M 555.746094 273.144531 L 582.929688 273.144531 L 582.929688 247.679688 L 555.746094 247.679688 L 555.746094 273.144531 " fill-opacity="1" fill-rule="nonzero"/><path fill="#808080" d="M 641.832031 333.433594 L 629.75 333.433594 L 629.75 356.183594 L 641.832031 356.183594 L 641.832031 333.433594 " fill-opacity="1" fill-rule="nonzero"/><path fill="#808080" d="M 667.121094 337.773438 L 654.042969 336.746094 L 651.46875 362.089844 L 664.550781 363.128906 L 667.121094 337.773438 " fill-opacity="1" fill-rule="nonzero"/><path fill="#808080" d="M 699.214844 349.496094 L 685.628906 349.496094 L 685.628906 370.933594 L 699.214844 370.933594 L 699.214844 349.496094 " fill-opacity="1" fill-rule="nonzero"/><path fill="#808080" d="M 362.003906 610.828125 L 336.277344 526.09375 L 315.066406 531.167969 L 340.789062 615.894531 L 362.003906 610.828125 " fill-opacity="1" fill-rule="nonzero"/><path fill="#808080" d="M 163.109375 362.886719 L 135.90625 362.886719 L 135.90625 374.949219 L 163.109375 374.949219 L 163.109375 362.886719 " fill-opacity="1" fill-rule="nonzero"/><path fill="#808080" d="M 163.109375 232.949219 L 144.960938 232.949219 L 144.960938 262.429688 L 163.109375 262.429688 L 163.109375 232.949219 " fill-opacity="1" fill-rule="nonzero"/><path fill="#808080" d="M 217.964844 50.570312 L 348.980469 77.234375 L 354.375 56.351562 L 223.378906 29.683594 L 217.964844 50.570312 " fill-opacity="1" fill-rule="nonzero"/><path fill="#808080" d="M 123.824219 508.886719 L 151.007812 508.886719 L 151.007812 464.714844 L 123.824219 464.714844 L 123.824219 508.886719 " fill-opacity="1" fill-rule="nonzero"/><path fill="#808080" d="M 711.316406 159.273438 L 749.910156 159.273438 L 749.910156 136.507812 L 711.316406 136.507812 L 711.316406 159.273438 " fill-opacity="1" fill-rule="nonzero"/><path fill="#808080" d="M 602.582031 191.425781 L 616.15625 191.425781 L 616.15625 203.476562 L 602.582031 203.476562 L 602.582031 210.171875 L 629.75 210.171875 L 629.75 186.078125 L 602.582031 186.078125 L 602.582031 191.425781 " fill-opacity="1" fill-rule="nonzero"/><path fill="#808080" d="M 563.296875 45.425781 L 548.207031 45.425781 L 548.207031 104.359375 L 563.296875 104.359375 L 563.296875 45.425781 " fill-opacity="1" fill-rule="nonzero"/><path fill="#808080" d="M 616.15625 191.425781 L 579.902344 191.425781 L 579.902344 203.476562 L 616.15625 203.476562 L 616.15625 191.425781 " fill-opacity="1" fill-rule="nonzero"/><path fill="#808080" d="M 259.730469 115.070312 L 259.730469 132.492188 L 286.933594 132.492188 L 286.933594 115.070312 L 259.730469 115.070312 " fill-opacity="1" fill-rule="nonzero"/><path fill="#808080" d="M 379.0625 85.601562 L 400.199219 85.601562 L 400.199219 64.171875 L 379.0625 64.171875 L 379.0625 85.601562 " fill-opacity="1" fill-rule="nonzero"/><path fill="#808080" d="M 57.378906 345.46875 L 45.300781 345.46875 L 45.300781 373.621094 L 57.378906 373.621094 L 57.378906 345.46875 " fill-opacity="1" fill-rule="nonzero"/><path fill="#808080" d="M 81.542969 349.496094 L 72.472656 349.496094 L 72.472656 377.628906 L 81.542969 377.628906 L 81.542969 349.496094 " fill-opacity="1" fill-rule="nonzero"/><path fill="#808080" d="M 9.042969 161.960938 L 43.785156 161.960938 L 43.785156 128.472656 L 9.042969 128.472656 L 9.042969 161.960938 " fill-opacity="1" fill-rule="nonzero"/><path fill="#808080" d="M 164.621094 476.757812 L 205.378906 476.757812 L 205.378906 460.675781 L 164.621094 460.675781 L 164.621094 476.757812 " fill-opacity="1" fill-rule="nonzero"/><path fill="#ff3131" d="M 339.796875 73.214844 C 435.953125 73.214844 513.871094 151.164062 513.871094 247.289062 C 513.871094 319.382812 384.527344 495.664062 339.796875 576.296875 C 296.910156 498.910156 165.722656 315.148438 165.722656 247.289062 C 165.722656 151.164062 243.675781 73.214844 339.796875 73.214844 Z M 417.601562 240.730469 C 417.601562 197.890625 382.660156 162.949219 339.796875 162.949219 C 296.96875 162.949219 262.023438 197.890625 262.023438 240.730469 C 262.023438 283.558594 296.96875 318.503906 339.796875 318.503906 C 382.660156 318.503906 417.601562 283.558594 417.601562 240.730469 Z M 417.601562 240.730469 " fill-opacity="1" fill-rule="nonzero"/><g clip-path="url(#668a0e003e)"><path fill="#000000" d="M 339.796875 587.5625 C 339.796875 587.5625 339.796875 587.5625 339.792969 587.5625 C 335.699219 587.5625 331.929688 585.339844 329.941406 581.757812 C 318.566406 561.230469 301.070312 533.394531 280.808594 501.160156 C 224.515625 411.609375 154.457031 300.15625 154.457031 247.289062 C 154.457031 145.09375 237.601562 61.949219 339.796875 61.949219 C 441.992188 61.949219 525.136719 145.09375 525.136719 247.289062 C 525.136719 302.910156 459.03125 406.90625 400.710938 498.65625 C 380.667969 530.1875 361.738281 559.96875 349.644531 581.761719 C 347.660156 585.339844 343.890625 587.5625 339.796875 587.5625 Z M 339.796875 84.480469 C 250.023438 84.480469 176.988281 157.515625 176.988281 247.289062 C 176.988281 293.664062 248.019531 406.664062 299.882812 489.171875 C 315.207031 513.546875 328.960938 535.429688 339.808594 553.734375 C 351.464844 534.128906 366.253906 510.863281 381.695312 486.570312 C 432.722656 406.296875 502.605469 296.355469 502.605469 247.289062 C 502.605469 157.515625 429.570312 84.480469 339.796875 84.480469 Z M 339.796875 84.480469 " fill-opacity="1" fill-rule="nonzero"/></g><path fill="#000000" d="M 339.796875 329.769531 C 290.703125 329.769531 250.761719 289.828125 250.761719 240.730469 C 250.761719 191.632812 290.703125 151.683594 339.796875 151.683594 C 388.910156 151.683594 428.867188 191.632812 428.867188 240.730469 C 428.867188 289.828125 388.910156 329.769531 339.796875 329.769531 Z M 339.796875 174.214844 C 303.125 174.214844 273.289062 204.054688 273.289062 240.730469 C 273.289062 277.402344 303.125 307.238281 339.796875 307.238281 C 376.488281 307.238281 406.335938 277.402344 406.335938 240.730469 C 406.335938 204.054688 376.488281 174.214844 339.796875 174.214844 Z M 339.796875 174.214844 " fill-opacity="1" fill-rule="nonzero"/></svg>