<svg xmlns="http://www.w3.org/2000/svg" xmlns:xlink="http://www.w3.org/1999/xlink" width="1000" zoomAndPan="magnify" viewBox="0 0 750 749.999995" height="1000" preserveAspectRatio="xMidYMid meet" version="1.0"><defs><g/><clipPath id="dc37cd6afc"><path d="M 87.953125 2 L 661.703125 2 L 661.703125 749 L 87.953125 749 Z M 87.953125 2 " clip-rule="nonzero"/></clipPath><clipPath id="8a1c9b8382"><path d="M 29.113281 474.042969 L 714 474.042969 L 714 712.300781 L 29.113281 712.300781 Z M 29.113281 474.042969 " clip-rule="nonzero"/></clipPath><clipPath id="3c450433ef"><path d="M 64.363281 474.042969 L 678.585938 474.042969 C 698.054688 474.042969 713.835938 489.828125 713.835938 509.292969 L 713.835938 677.050781 C 713.835938 696.519531 698.054688 712.300781 678.585938 712.300781 L 64.363281 712.300781 C 44.894531 712.300781 29.113281 696.519531 29.113281 677.050781 L 29.113281 509.292969 C 29.113281 489.828125 44.894531 474.042969 64.363281 474.042969 Z M 64.363281 474.042969 " clip-rule="nonzero"/></clipPath><clipPath id="4322e09f8a"><path d="M 29.113281 474.042969 L 713.863281 474.042969 L 713.863281 712.542969 L 29.113281 712.542969 Z M 29.113281 474.042969 " clip-rule="nonzero"/></clipPath><clipPath id="0739bada1e"><path d="M 64.363281 474.042969 L 678.578125 474.042969 C 698.042969 474.042969 713.828125 489.828125 713.828125 509.292969 L 713.828125 677.050781 C 713.828125 696.515625 698.042969 712.296875 678.578125 712.296875 L 64.363281 712.296875 C 44.894531 712.296875 29.113281 696.515625 29.113281 677.050781 L 29.113281 509.292969 C 29.113281 489.828125 44.894531 474.042969 64.363281 474.042969 Z M 64.363281 474.042969 " clip-rule="nonzero"/></clipPath></defs><g clip-path="url(#dc37cd6afc)"><path fill="#ff5757" d="M 128.210938 2.308594 C 105.703125 2.308594 87.777344 20.453125 87.777344 42.960938 L 87.777344 707.746094 C 87.777344 730.257812 105.703125 748.398438 128.210938 748.398438 L 621.789062 748.398438 C 644.296875 748.398438 662.21875 730.257812 662.21875 707.746094 L 662.21875 208.222656 L 513.527344 208.222656 C 483.082031 208.222656 456.527344 186.015625 456.527344 156.523438 L 456.527344 2.3125 L 128.214844 2.3125 Z M 484.804688 2.308594 L 484.804688 156.519531 C 484.804688 168.640625 496.34375 179.941406 513.527344 179.941406 L 662.21875 179.941406 L 484.800781 2.304688 Z M 484.804688 2.308594 " fill-opacity="1" fill-rule="nonzero"/></g><path fill="#ffffff" d="M 176.5 187.269531 L 420.359375 187.269531 C 421.179688 187.269531 421.992188 187.347656 422.796875 187.507812 C 423.601562 187.667969 424.382812 187.90625 425.140625 188.21875 C 425.898438 188.535156 426.621094 188.917969 427.300781 189.375 C 427.984375 189.828125 428.613281 190.347656 429.195312 190.925781 C 429.773438 191.507812 430.292969 192.136719 430.75 192.820312 C 431.203125 193.503906 431.589844 194.222656 431.902344 194.980469 C 432.214844 195.738281 432.453125 196.519531 432.613281 197.324219 C 432.773438 198.128906 432.855469 198.941406 432.855469 199.761719 L 432.855469 218.503906 C 432.855469 219.324219 432.773438 220.136719 432.613281 220.941406 C 432.453125 221.746094 432.214844 222.527344 431.902344 223.285156 C 431.589844 224.042969 431.203125 224.761719 430.75 225.445312 C 430.292969 226.125 429.773438 226.757812 429.195312 227.335938 C 428.613281 227.917969 427.984375 228.4375 427.300781 228.890625 C 426.621094 229.347656 425.898438 229.730469 425.140625 230.046875 C 424.382812 230.359375 423.601562 230.597656 422.796875 230.757812 C 421.992188 230.917969 421.179688 230.996094 420.359375 230.996094 L 176.5 230.996094 C 175.679688 230.996094 174.867188 230.917969 174.0625 230.757812 C 173.257812 230.597656 172.476562 230.359375 171.71875 230.046875 C 170.960938 229.730469 170.242188 229.347656 169.558594 228.890625 C 168.878906 228.4375 168.246094 227.917969 167.667969 227.335938 C 167.085938 226.757812 166.570312 226.125 166.113281 225.445312 C 165.65625 224.761719 165.273438 224.042969 164.957031 223.285156 C 164.644531 222.527344 164.40625 221.746094 164.246094 220.941406 C 164.085938 220.136719 164.007812 219.324219 164.007812 218.503906 L 164.007812 199.761719 C 164.007812 198.941406 164.085938 198.128906 164.246094 197.324219 C 164.40625 196.519531 164.644531 195.738281 164.957031 194.980469 C 165.273438 194.222656 165.65625 193.503906 166.113281 192.820312 C 166.570312 192.136719 167.085938 191.507812 167.667969 190.925781 C 168.246094 190.347656 168.878906 189.828125 169.558594 189.375 C 170.242188 188.917969 170.960938 188.535156 171.71875 188.21875 C 172.476562 187.90625 173.257812 187.667969 174.0625 187.507812 C 174.867188 187.347656 175.679688 187.269531 176.5 187.269531 Z M 176.5 187.269531 " fill-opacity="1" fill-rule="nonzero"/><path fill="#ffffff" d="M 176.5 391.089844 L 573.5 391.089844 C 574.320312 391.089844 575.132812 391.171875 575.9375 391.332031 C 576.742188 391.492188 577.523438 391.726562 578.28125 392.042969 C 579.039062 392.355469 579.757812 392.742188 580.4375 393.195312 C 581.121094 393.652344 581.753906 394.171875 582.332031 394.75 C 582.914062 395.332031 583.429688 395.960938 583.886719 396.644531 C 584.34375 397.324219 584.726562 398.046875 585.039062 398.804688 C 585.355469 399.5625 585.589844 400.34375 585.75 401.148438 C 585.910156 401.953125 585.992188 402.765625 585.992188 403.585938 L 585.992188 422.328125 C 585.992188 423.148438 585.910156 423.960938 585.75 424.765625 C 585.589844 425.570312 585.355469 426.351562 585.039062 427.109375 C 584.726562 427.867188 584.339844 428.585938 583.886719 429.269531 C 583.429688 429.949219 582.914062 430.582031 582.332031 431.160156 C 581.753906 431.742188 581.121094 432.257812 580.4375 432.714844 C 579.757812 433.171875 579.039062 433.554688 578.28125 433.867188 C 577.523438 434.183594 576.742188 434.417969 575.9375 434.578125 C 575.132812 434.738281 574.320312 434.820312 573.5 434.820312 L 176.5 434.820312 C 175.679688 434.820312 174.867188 434.738281 174.0625 434.578125 C 173.257812 434.417969 172.476562 434.183594 171.71875 433.867188 C 170.960938 433.554688 170.242188 433.171875 169.558594 432.714844 C 168.878906 432.257812 168.246094 431.742188 167.667969 431.160156 C 167.085938 430.582031 166.570312 429.949219 166.113281 429.269531 C 165.65625 428.585938 165.273438 427.867188 164.957031 427.109375 C 164.644531 426.351562 164.40625 425.570312 164.246094 424.765625 C 164.085938 423.960938 164.007812 423.148438 164.007812 422.328125 L 164.007812 403.585938 C 164.007812 402.765625 164.085938 401.953125 164.246094 401.148438 C 164.40625 400.34375 164.644531 399.5625 164.957031 398.804688 C 165.273438 398.046875 165.65625 397.324219 166.113281 396.644531 C 166.570312 395.960938 167.085938 395.332031 167.667969 394.75 C 168.246094 394.171875 168.878906 393.652344 169.558594 393.195312 C 170.242188 392.742188 170.960938 392.355469 171.71875 392.042969 C 172.476562 391.726562 173.257812 391.492188 174.0625 391.332031 C 174.867188 391.171875 175.679688 391.089844 176.5 391.089844 Z M 176.5 391.089844 " fill-opacity="1" fill-rule="nonzero"/><path fill="#ffffff" d="M 176.5 289.175781 L 420.359375 289.175781 C 421.179688 289.175781 421.992188 289.257812 422.796875 289.417969 C 423.601562 289.578125 424.382812 289.8125 425.140625 290.128906 C 425.898438 290.441406 426.621094 290.824219 427.300781 291.28125 C 427.984375 291.738281 428.613281 292.253906 429.195312 292.835938 C 429.773438 293.414062 430.292969 294.046875 430.75 294.730469 C 431.203125 295.410156 431.589844 296.128906 431.902344 296.886719 C 432.214844 297.644531 432.453125 298.425781 432.613281 299.230469 C 432.773438 300.035156 432.855469 300.847656 432.855469 301.667969 L 432.855469 320.410156 C 432.855469 321.230469 432.773438 322.042969 432.613281 322.847656 C 432.453125 323.652344 432.214844 324.433594 431.902344 325.191406 C 431.589844 325.949219 431.203125 326.671875 430.75 327.351562 C 430.292969 328.035156 429.773438 328.664062 429.195312 329.246094 C 428.613281 329.824219 427.984375 330.34375 427.300781 330.800781 C 426.621094 331.253906 425.898438 331.640625 425.140625 331.953125 C 424.382812 332.269531 423.601562 332.503906 422.796875 332.664062 C 421.992188 332.824219 421.179688 332.90625 420.359375 332.90625 L 176.5 332.90625 C 175.679688 332.90625 174.867188 332.824219 174.0625 332.664062 C 173.257812 332.503906 172.476562 332.269531 171.71875 331.953125 C 170.960938 331.640625 170.242188 331.253906 169.558594 330.800781 C 168.878906 330.34375 168.246094 329.824219 167.667969 329.246094 C 167.085938 328.664062 166.570312 328.035156 166.113281 327.351562 C 165.65625 326.671875 165.273438 325.949219 164.957031 325.191406 C 164.644531 324.433594 164.40625 323.652344 164.246094 322.847656 C 164.085938 322.042969 164.007812 321.230469 164.007812 320.410156 L 164.007812 301.667969 C 164.007812 300.847656 164.085938 300.035156 164.246094 299.230469 C 164.40625 298.425781 164.644531 297.644531 164.957031 296.886719 C 165.273438 296.128906 165.65625 295.410156 166.113281 294.730469 C 166.570312 294.046875 167.085938 293.414062 167.667969 292.835938 C 168.246094 292.253906 168.878906 291.738281 169.558594 291.28125 C 170.242188 290.824219 170.960938 290.441406 171.71875 290.128906 C 172.476562 289.8125 173.257812 289.578125 174.0625 289.417969 C 174.867188 289.257812 175.679688 289.175781 176.5 289.175781 Z M 176.5 289.175781 " fill-opacity="1" fill-rule="nonzero"/><path fill="#ffffff" d="M 176.5 493 L 573.5 493 C 574.320312 493 575.132812 493.078125 575.9375 493.238281 C 576.742188 493.398438 577.523438 493.636719 578.28125 493.949219 C 579.039062 494.265625 579.757812 494.648438 580.4375 495.105469 C 581.121094 495.5625 581.753906 496.078125 582.332031 496.660156 C 582.914062 497.238281 583.429688 497.871094 583.886719 498.550781 C 584.34375 499.234375 584.726562 499.953125 585.039062 500.710938 C 585.355469 501.46875 585.589844 502.25 585.75 503.054688 C 585.910156 503.859375 585.992188 504.671875 585.992188 505.492188 L 585.992188 524.234375 C 585.992188 525.054688 585.910156 525.867188 585.75 526.671875 C 585.589844 527.476562 585.355469 528.257812 585.039062 529.015625 C 584.726562 529.773438 584.339844 530.492188 583.886719 531.175781 C 583.429688 531.859375 582.914062 532.488281 582.332031 533.070312 C 581.753906 533.648438 581.121094 534.167969 580.4375 534.621094 C 579.757812 535.078125 579.039062 535.464844 578.28125 535.777344 C 577.523438 536.089844 576.742188 536.328125 575.9375 536.488281 C 575.132812 536.648438 574.320312 536.726562 573.5 536.726562 L 176.5 536.726562 C 175.679688 536.726562 174.867188 536.648438 174.0625 536.488281 C 173.257812 536.328125 172.476562 536.089844 171.71875 535.777344 C 170.960938 535.464844 170.242188 535.078125 169.558594 534.621094 C 168.878906 534.167969 168.246094 533.648438 167.667969 533.070312 C 167.085938 532.488281 166.570312 531.859375 166.113281 531.175781 C 165.65625 530.492188 165.273438 529.773438 164.957031 529.015625 C 164.644531 528.257812 164.40625 527.476562 164.246094 526.671875 C 164.085938 525.867188 164.007812 525.054688 164.007812 524.234375 L 164.007812 505.492188 C 164.007812 504.671875 164.085938 503.859375 164.246094 503.054688 C 164.40625 502.25 164.644531 501.46875 164.957031 500.710938 C 165.273438 499.953125 165.65625 499.234375 166.113281 498.550781 C 166.570312 497.871094 167.085938 497.238281 167.667969 496.660156 C 168.246094 496.078125 168.878906 495.5625 169.558594 495.105469 C 170.242188 494.648438 170.960938 494.265625 171.71875 493.949219 C 172.476562 493.636719 173.257812 493.398438 174.0625 493.238281 C 174.867188 493.078125 175.679688 493 176.5 493 Z M 176.5 493 " fill-opacity="1" fill-rule="nonzero"/><path fill="#ffffff" d="M 176.5 594.90625 L 573.5 594.90625 C 574.320312 594.90625 575.132812 594.988281 575.9375 595.148438 C 576.742188 595.308594 577.523438 595.542969 578.28125 595.859375 C 579.039062 596.171875 579.757812 596.558594 580.4375 597.011719 C 581.121094 597.46875 581.753906 597.988281 582.332031 598.566406 C 582.914062 599.148438 583.429688 599.777344 583.886719 600.460938 C 584.34375 601.140625 584.726562 601.863281 585.039062 602.621094 C 585.355469 603.378906 585.589844 604.160156 585.75 604.964844 C 585.910156 605.765625 585.992188 606.578125 585.992188 607.398438 L 585.992188 626.144531 C 585.992188 626.964844 585.910156 627.777344 585.75 628.582031 C 585.589844 629.382812 585.355469 630.164062 585.039062 630.921875 C 584.726562 631.679688 584.339844 632.402344 583.886719 633.082031 C 583.429688 633.765625 582.914062 634.398438 582.332031 634.976562 C 581.753906 635.558594 581.121094 636.074219 580.4375 636.53125 C 579.757812 636.984375 579.039062 637.371094 578.28125 637.683594 C 577.523438 638 576.742188 638.234375 575.9375 638.394531 C 575.132812 638.554688 574.320312 638.636719 573.5 638.636719 L 176.5 638.636719 C 175.679688 638.636719 174.867188 638.554688 174.0625 638.394531 C 173.257812 638.234375 172.476562 638 171.71875 637.683594 C 170.960938 637.371094 170.242188 636.984375 169.558594 636.53125 C 168.878906 636.074219 168.246094 635.558594 167.667969 634.976562 C 167.085938 634.398438 166.570312 633.765625 166.113281 633.082031 C 165.65625 632.402344 165.273438 631.679688 164.957031 630.921875 C 164.644531 630.164062 164.40625 629.382812 164.246094 628.582031 C 164.085938 627.777344 164.007812 626.964844 164.007812 626.144531 L 164.007812 607.398438 C 164.007812 606.578125 164.085938 605.765625 164.246094 604.964844 C 164.40625 604.160156 164.644531 603.378906 164.957031 602.621094 C 165.273438 601.863281 165.65625 601.140625 166.113281 600.460938 C 166.570312 599.777344 167.085938 599.148438 167.667969 598.566406 C 168.246094 597.988281 168.878906 597.46875 169.558594 597.011719 C 170.242188 596.558594 170.960938 596.171875 171.71875 595.859375 C 172.476562 595.542969 173.257812 595.308594 174.0625 595.148438 C 174.867188 594.988281 175.679688 594.90625 176.5 594.90625 Z M 176.5 594.90625 " fill-opacity="1" fill-rule="nonzero"/><g clip-path="url(#8a1c9b8382)"><g clip-path="url(#3c450433ef)"><path fill="#f2f2f2" d="M 29.113281 474.042969 L 714.101562 474.042969 L 714.101562 712.300781 L 29.113281 712.300781 Z M 29.113281 474.042969 " fill-opacity="1" fill-rule="nonzero"/></g></g><g clip-path="url(#4322e09f8a)"><g clip-path="url(#0739bada1e)"><path stroke-linecap="butt" transform="matrix(0.75, 0, 0, 0.75, 29.112322, 474.044853)" fill="none" stroke-linejoin="miter" d="M 47.001281 -0.0025122 L 865.954446 -0.0025122 C 891.907572 -0.0025122 912.954448 21.044364 912.954448 46.99749 L 912.954448 270.674584 C 912.954448 296.627711 891.907572 317.669378 865.954446 317.669378 L 47.001281 317.669378 C 21.042946 317.669378 0.00127853 296.627711 0.00127853 270.674584 L 0.00127853 46.99749 C 0.00127853 21.044364 21.042946 -0.0025122 47.001281 -0.0025122 Z M 47.001281 -0.0025122 " stroke="#000000" stroke-width="10" stroke-opacity="1" stroke-miterlimit="4"/></g></g><g fill="#000000" fill-opacity="1"><g transform="translate(232.526104, 643.544845)"><g><path d="M 19.296875 0.4375 L 16.703125 0.28125 L 12.234375 -1.15625 L 10.65625 -3.890625 L 10.796875 -30.53125 L 10.515625 -33.265625 L 10.65625 -70.546875 L 10.359375 -73.28125 L 10.9375 -79.046875 L 10.796875 -96.46875 L 12.09375 -98.765625 L 15.125 -100.359375 L 18.140625 -100.9375 L 20.734375 -100.5 L 23.90625 -100.359375 L 32.828125 -100.9375 L 35.703125 -100.5 L 44.484375 -100.359375 L 47.65625 -100.78125 L 52.265625 -100.9375 L 56.578125 -100.78125 L 59.46875 -99.78125 L 62.34375 -99.78125 L 64.796875 -98.765625 L 70.546875 -97.046875 L 75.296875 -93.875 L 81.78125 -88.265625 L 85.234375 -83.515625 L 87.96875 -78.609375 L 89.703125 -73.28125 L 90.140625 -70.125 L 90.703125 -67.671875 L 90.421875 -55.859375 L 89.5625 -53.5625 L 89.125 -50.390625 L 86.671875 -44.78125 L 83.65625 -40.171875 L 81.78125 -38.015625 L 79.90625 -36.140625 L 77.890625 -33.84375 L 75.734375 -32.109375 L 62.0625 -26.640625 L 47.234375 -25.484375 L 44.203125 -26.0625 L 41.03125 -25.765625 L 37.71875 -24.1875 L 36.421875 -21.59375 L 36.578125 -18.28125 L 36.28125 -15.546875 L 36.578125 -10.21875 L 36.421875 -7.0625 L 36.578125 -4.171875 L 35.28125 -1.15625 L 32.25 0 L 28.9375 0.28125 L 26.34375 0.140625 Z M 40.890625 -48.8125 L 44.34375 -49.09375 L 51.6875 -48.953125 L 56.15625 -49.53125 L 58.453125 -50.25 L 60.765625 -51.984375 L 62.640625 -54.28125 L 63.921875 -56.578125 L 64.9375 -59.171875 L 65.21875 -63.0625 L 64.9375 -67.09375 L 64.5 -69.6875 L 63.0625 -72.5625 L 61.1875 -74.4375 L 58.890625 -76.03125 L 56.015625 -77.3125 L 41.03125 -77.75 L 38.015625 -76.3125 L 36.578125 -73.578125 L 36.578125 -67.671875 L 36.28125 -64.65625 L 36.71875 -52.984375 L 38.015625 -50.53125 Z M 40.890625 -48.8125 "/></g></g></g><g fill="#000000" fill-opacity="1"><g transform="translate(327.262637, 643.544845)"><g><path d="M 44.34375 0.4375 L 38.4375 -0.140625 L 35.5625 0.28125 L 18 0 L 15.125 0.28125 L 12.234375 -1.15625 L 10.796875 -5.609375 L 10.796875 -12.953125 L 10.515625 -15.6875 L 10.65625 -96.1875 L 11.953125 -99.203125 L 15.125 -100.5 L 18 -100.359375 L 20.59375 -100.78125 L 53.421875 -100.5 L 61.90625 -99.203125 L 64.9375 -98.484375 L 67.390625 -97.328125 L 70.265625 -96.75 L 73 -95.171875 L 80.34375 -90.28125 L 87.96875 -81.78125 L 92.875 -74.15625 L 94.015625 -71.421875 L 95.890625 -65.9375 L 97.90625 -54.5625 L 98.046875 -50.390625 L 97.625 -45.78125 L 97.625 -42.765625 L 97.1875 -39.890625 L 96.328125 -37.4375 L 95.75 -34.40625 L 95.03125 -31.671875 L 92.71875 -26.0625 L 91 -23.75 L 89.5625 -20.875 L 82.5 -11.8125 L 72.859375 -5.328125 L 66.09375 -2.453125 L 60.1875 -1.4375 L 56.015625 -0.140625 L 53.125 -0.140625 L 48.671875 0.4375 Z M 43.921875 -23.1875 L 48.234375 -23.328125 L 54.421875 -24.046875 L 58.609375 -25.34375 L 63.5 -28.515625 L 68.828125 -34.5625 L 71.265625 -39.890625 L 72.71875 -49.96875 L 70.40625 -62.640625 L 69.109375 -65.21875 L 67.671875 -67.671875 L 65.515625 -70.265625 L 63.359375 -72.28125 L 61.1875 -73.859375 L 58.609375 -75.15625 L 52.984375 -76.75 L 48.8125 -77.171875 L 42.765625 -77.03125 L 38.15625 -76.03125 L 36.71875 -72.71875 L 36.421875 -70.265625 L 36.71875 -50.390625 L 36.140625 -43.1875 L 36.71875 -36.140625 L 36.578125 -30.234375 L 36.71875 -27.78125 L 37.875 -25.046875 L 41.171875 -23.46875 Z M 43.921875 -23.1875 "/></g></g></g><g fill="#000000" fill-opacity="1"><g transform="translate(431.933558, 643.544845)"><g><path d="M 10.515625 -4.171875 L 10.359375 -47.375 L 10.65625 -50.6875 L 10.359375 -53.421875 L 10.515625 -56.15625 L 10.796875 -58.75 L 10.515625 -62.0625 L 10.796875 -64.65625 L 10.65625 -67.671875 L 10.359375 -70.125 L 10.9375 -86.25 L 10.515625 -90.5625 L 10.9375 -96.46875 L 11.8125 -99.0625 L 14.96875 -100.640625 L 19 -100.5 L 22.03125 -100.78125 L 29.375 -100.78125 L 31.96875 -100.5 L 37.578125 -100.5 L 42.046875 -100.78125 L 44.921875 -100.640625 L 49.25 -100.9375 L 51.828125 -100.640625 L 57.453125 -100.9375 L 60.625 -100.5 L 69.25 -100.640625 L 71.703125 -99.0625 L 73.4375 -94.734375 L 73.140625 -89.265625 L 73.4375 -81.921875 L 71.984375 -79.046875 L 69.109375 -77.609375 L 58.171875 -77.890625 L 55.140625 -77.609375 L 52.265625 -77.75 L 49.671875 -77.609375 L 45.5 -77.890625 L 40.890625 -77.890625 L 38.15625 -76.03125 L 36.71875 -73.140625 L 37 -66.671875 L 36.71875 -63.921875 L 36.71875 -59.890625 L 38.296875 -56.875 L 41.171875 -55.71875 L 44.34375 -55.859375 L 49.96875 -55.140625 L 57.59375 -55.71875 L 64.65625 -55.4375 L 67.671875 -54.28125 L 69.109375 -51.40625 L 69.25 -38.59375 L 67.8125 -34.125 L 64.796875 -32.6875 L 58.890625 -32.390625 L 56.015625 -32.6875 L 52.984375 -32.546875 L 50.109375 -32.828125 L 47.234375 -32.25 L 44.203125 -32.828125 L 41.03125 -32.546875 L 38.15625 -31.25 L 36.859375 -28.359375 L 37 -13.109375 L 36.71875 -10.359375 L 37.140625 -5.765625 L 35.421875 -1.4375 L 32.390625 -0.140625 L 25.203125 0.4375 L 15.125 0 L 11.953125 -1.4375 Z M 10.515625 -4.171875 "/></g></g></g></svg>