<svg xmlns="http://www.w3.org/2000/svg" xmlns:xlink="http://www.w3.org/1999/xlink" width="1000" zoomAndPan="magnify" viewBox="0 0 750 749.999995" height="1000" preserveAspectRatio="xMidYMid meet" version="1.0"><path fill="#004aad" d="M 560.191406 173.078125 L 395.191406 8.652344 C 383.972656 -2.660156 365.710938 -2.734375 354.398438 8.488281 C 354.339844 8.542969 354.289062 8.597656 354.230469 8.652344 L 189.808594 173.078125 L 28.847656 173.078125 C 12.917969 173.078125 0 185.996094 0 201.921875 L 0 721.152344 C 0 737.082031 12.917969 750 28.847656 750 L 721.152344 750 C 737.082031 750 750 737.082031 750 721.152344 L 750 201.921875 C 750 185.996094 737.082031 173.078125 721.152344 173.078125 Z M 375 69.808594 L 478.269531 173.078125 L 271.730469 173.078125 Z M 692.308594 692.308594 L 57.691406 692.308594 L 57.691406 230.769531 L 692.308594 230.769531 Z M 230.769531 403.847656 C 198.90625 403.847656 173.078125 378.015625 173.078125 346.152344 C 173.078125 314.289062 198.90625 288.460938 230.769531 288.460938 C 262.632812 288.460938 288.460938 314.289062 288.460938 346.152344 C 288.460938 378.015625 262.632812 403.847656 230.769531 403.847656 Z M 634.617188 634.617188 L 201.921875 634.617188 L 288.460938 461.539062 L 360.578125 605.769531 L 490.382812 346.152344 Z M 634.617188 634.617188 " fill-opacity="1" fill-rule="nonzero"/></svg>