<svg xmlns="http://www.w3.org/2000/svg" xmlns:xlink="http://www.w3.org/1999/xlink" width="1000" zoomAndPan="magnify" viewBox="0 0 750 749.999995" height="1000" preserveAspectRatio="xMidYMid meet" version="1.0"><defs><clipPath id="93a06beff5"><path d="M 6.816406 2 L 520 2 L 520 541 L 6.816406 541 Z M 6.816406 2 " clip-rule="nonzero"/></clipPath></defs><path fill="#ffde59" d="M 61.148438 23.191406 C 42.515625 23.191406 27.386719 38.324219 27.386719 56.957031 L 27.386719 485.828125 C 27.386719 504.460938 42.515625 519.589844 61.148438 519.589844 L 233.148438 519.589844 L 233.148438 268.65625 C 233.148438 250.023438 248.277344 234.894531 266.910156 234.894531 L 499.136719 234.894531 L 499.136719 56.957031 C 499.136719 38.324219 484.460938 23.191406 465.828125 23.191406 L 61.136719 23.191406 Z M 61.148438 23.191406 " fill-opacity="1" fill-rule="evenodd"/><g clip-path="url(#93a06beff5)"><path stroke-linecap="round" transform="matrix(13.315721, 0, 0, 13.315721, -27.80269, -28.466333)" fill="none" stroke-linejoin="round" d="M 6.680159 3.879455 C 5.280849 3.879455 4.14468 5.015917 4.14468 6.415226 L 4.14468 38.623102 C 4.14468 40.022412 5.280849 41.15858 6.680159 41.15858 L 19.597221 41.15858 L 19.597221 22.313668 C 19.597221 20.914359 20.73339 19.77819 22.132699 19.77819 L 39.572728 19.77819 L 39.572728 6.415226 C 39.572728 5.015917 38.470589 3.879455 37.071279 3.879455 L 6.679278 3.879455 Z M 6.680159 3.879455 " stroke="#4c4c4c" stroke-width="3.125" stroke-opacity="1" stroke-miterlimit="4"/></g><path stroke-linecap="round" transform="matrix(13.315721, 0, 0, 13.315721, -27.80269, -28.466333)" fill-opacity="1" fill="#ffde59" fill-rule="evenodd" stroke-linejoin="round" d="M 38.927051 35.045036 C 37.527742 35.045036 36.391573 36.181205 36.391573 37.580514 L 36.391573 56.802389 L 53.797572 56.802389 C 55.196588 56.802389 56.298728 55.66622 56.298728 54.266911 L 56.298728 35.045036 L 38.926757 35.045036 Z M 38.927051 35.045036 " stroke="#4c4c4c" stroke-width="3.125" stroke-opacity="1" stroke-miterlimit="4"/><path stroke-linecap="round" transform="matrix(13.315721, 0, 0, 13.315721, -27.80269, -28.466333)" fill-opacity="1" fill="#fe6a00" fill-rule="evenodd" stroke-linejoin="round" d="M 10.1931 22.149975 C 18.842709 41.123964 33.490866 36.659082 33.63109 36.659082 L 33.63109 30.380965 L 42.071536 40.495889 L 33.561272 49.006153 L 33.561272 42.658511 C 33.561272 42.658511 13.262193 47.401788 10.1931 22.150269 Z M 10.1931 22.149975 " stroke="#333333" stroke-width="3.125" stroke-opacity="1" stroke-miterlimit="4"/></svg>