<svg xmlns="http://www.w3.org/2000/svg" xmlns:xlink="http://www.w3.org/1999/xlink" width="1000" zoomAndPan="magnify" viewBox="0 0 750 749.999995" height="1000" preserveAspectRatio="xMidYMid meet" version="1.0"><path fill="#fdbf00" d="M 207.109375 168.75 L 305.390625 256.25 C 307.683594 258.273438 310.261719 259.820312 313.121094 260.898438 C 315.984375 261.976562 318.941406 262.507812 322 262.5 L 675 262.5 L 675 698.984375 C 675 720.3125 659.65625 737.5 640.734375 737.5 L 46.765625 737.5 C 27.84375 737.5 12.5 720.3125 12.5 698.984375 L 12.5 200 C 12.5 179.296875 27.515625 162.5 46.015625 162.5 L 190.5 162.5 C 193.558594 162.492188 196.515625 163.023438 199.378906 164.101562 C 202.238281 165.179688 204.816406 166.726562 207.109375 168.75 Z M 207.109375 168.75 " fill-opacity="1" fill-rule="nonzero"/><path fill="#d7e6ef" d="M 587.5 687.5 L 62.5 687.5 L 62.5 12.5 L 587.5 12.5 Z M 587.5 687.5 " fill-opacity="1" fill-rule="nonzero"/><path fill="#fdbf00" d="M 537.5 262.5 L 737.5 262.5 L 737.5 187.5 C 737.5 186.679688 737.460938 185.863281 737.378906 185.050781 C 737.300781 184.234375 737.179688 183.425781 737.019531 182.621094 C 736.859375 181.820312 736.660156 181.027344 736.421875 180.242188 C 736.1875 179.460938 735.910156 178.6875 735.597656 177.933594 C 735.285156 177.175781 734.933594 176.4375 734.546875 175.714844 C 734.160156 174.992188 733.742188 174.292969 733.285156 173.609375 C 732.832031 172.929688 732.34375 172.273438 731.824219 171.640625 C 731.304688 171.007812 730.757812 170.402344 730.175781 169.824219 C 729.597656 169.242188 728.992188 168.695312 728.359375 168.175781 C 727.726562 167.65625 727.070312 167.167969 726.390625 166.714844 C 725.707031 166.257812 725.007812 165.839844 724.285156 165.453125 C 723.5625 165.066406 722.824219 164.714844 722.066406 164.402344 C 721.308594 164.089844 720.539062 163.8125 719.757812 163.578125 C 718.972656 163.339844 718.179688 163.140625 717.378906 162.980469 C 716.574219 162.820312 715.765625 162.699219 714.949219 162.621094 C 714.136719 162.539062 713.320312 162.5 712.5 162.5 L 637.5 162.5 Z M 537.5 262.5 " fill-opacity="1" fill-rule="nonzero"/><path fill="#f7fcff" d="M 150 87.5 L 675 87.5 L 675 262.5 L 150 262.5 Z M 150 87.5 " fill-opacity="1" fill-rule="nonzero"/><path fill="#ffda2d" d="M 296.09375 168.75 L 388.8125 256.25 C 389.859375 257.238281 390.988281 258.121094 392.203125 258.898438 C 393.417969 259.671875 394.691406 260.328125 396.03125 260.863281 C 397.367188 261.398438 398.742188 261.804688 400.15625 262.078125 C 401.570312 262.355469 402.996094 262.496094 404.4375 262.5 L 737.5 262.5 L 737.5 698.984375 C 737.5 720.3125 723.03125 737.5 705.171875 737.5 L 144.828125 737.5 C 126.96875 737.5 112.5 720.3125 112.5 698.984375 L 112.5 200 C 112.5 179.296875 126.65625 162.5 144.125 162.5 L 280.421875 162.5 C 281.867188 162.503906 283.296875 162.640625 284.714844 162.914062 C 286.132812 163.1875 287.511719 163.59375 288.855469 164.128906 C 290.195312 164.664062 291.476562 165.320312 292.691406 166.097656 C 293.910156 166.875 295.042969 167.757812 296.09375 168.75 Z M 296.09375 168.75 " fill-opacity="1" fill-rule="nonzero"/><path fill="#f7fcff" d="M 412.5 675 L 175 675 L 175 625 L 412.5 625 Z M 412.5 675 " fill-opacity="1" fill-rule="nonzero"/><path fill="#1e120b" d="M 550 337.5 L 675 337.5 C 675.820312 337.5 676.632812 337.417969 677.4375 337.261719 C 678.242188 337.101562 679.023438 336.863281 679.785156 336.546875 C 680.542969 336.234375 681.261719 335.847656 681.945312 335.394531 C 682.628906 334.9375 683.257812 334.417969 683.839844 333.839844 C 684.417969 333.257812 684.9375 332.628906 685.394531 331.945312 C 685.847656 331.261719 686.234375 330.542969 686.546875 329.785156 C 686.863281 329.023438 687.097656 328.242188 687.257812 327.4375 C 687.417969 326.632812 687.5 325.820312 687.5 325 C 687.5 324.179688 687.417969 323.367188 687.257812 322.5625 C 687.097656 321.757812 686.863281 320.976562 686.546875 320.214844 C 686.234375 319.457031 685.847656 318.738281 685.394531 318.054688 C 684.9375 317.371094 684.417969 316.742188 683.839844 316.160156 C 683.257812 315.582031 682.628906 315.0625 681.945312 314.605469 C 681.261719 314.152344 680.542969 313.765625 679.785156 313.453125 C 679.023438 313.136719 678.242188 312.898438 677.4375 312.738281 C 676.632812 312.578125 675.820312 312.5 675 312.5 L 550 312.5 C 549.179688 312.5 548.367188 312.578125 547.5625 312.738281 C 546.757812 312.898438 545.976562 313.136719 545.214844 313.453125 C 544.457031 313.765625 543.738281 314.152344 543.054688 314.605469 C 542.371094 315.0625 541.742188 315.582031 541.160156 316.160156 C 540.582031 316.742188 540.0625 317.371094 539.605469 318.054688 C 539.152344 318.738281 538.765625 319.457031 538.453125 320.214844 C 538.136719 320.976562 537.898438 321.757812 537.738281 322.5625 C 537.578125 323.367188 537.5 324.179688 537.5 325 C 537.5 325.820312 537.578125 326.632812 537.738281 327.4375 C 537.898438 328.242188 538.136719 329.023438 538.453125 329.785156 C 538.765625 330.542969 539.152344 331.261719 539.605469 331.945312 C 540.0625 332.628906 540.582031 333.257812 541.160156 333.839844 C 541.742188 334.417969 542.371094 334.9375 543.054688 335.394531 C 543.738281 335.847656 544.457031 336.234375 545.214844 336.546875 C 545.976562 336.863281 546.757812 337.101562 547.5625 337.261719 C 548.367188 337.417969 549.179688 337.5 550 337.5 Z M 550 337.5 " fill-opacity="1" fill-rule="nonzero"/><path fill="#1e120b" d="M 487.5 387.5 L 675 387.5 C 675.820312 387.5 676.632812 387.421875 677.4375 387.257812 C 678.242188 387.101562 679.023438 386.863281 679.785156 386.546875 C 680.542969 386.234375 681.261719 385.847656 681.945312 385.394531 C 682.628906 384.9375 683.257812 384.417969 683.839844 383.839844 C 684.417969 383.257812 684.9375 382.628906 685.394531 381.945312 C 685.847656 381.261719 686.234375 380.542969 686.546875 379.785156 C 686.863281 379.023438 687.097656 378.242188 687.257812 377.4375 C 687.417969 376.632812 687.5 375.820312 687.5 375 C 687.5 374.179688 687.417969 373.367188 687.257812 372.5625 C 687.097656 371.757812 686.863281 370.976562 686.546875 370.214844 C 686.234375 369.457031 685.847656 368.738281 685.394531 368.054688 C 684.9375 367.371094 684.417969 366.742188 683.839844 366.160156 C 683.257812 365.582031 682.628906 365.0625 681.945312 364.605469 C 681.261719 364.152344 680.542969 363.765625 679.785156 363.453125 C 679.023438 363.136719 678.242188 362.898438 677.4375 362.738281 C 676.632812 362.578125 675.820312 362.5 675 362.5 L 487.5 362.5 C 486.679688 362.5 485.867188 362.578125 485.0625 362.738281 C 484.257812 362.898438 483.476562 363.136719 482.714844 363.453125 C 481.957031 363.765625 481.238281 364.152344 480.554688 364.605469 C 479.871094 365.0625 479.242188 365.582031 478.660156 366.160156 C 478.082031 366.742188 477.5625 367.371094 477.105469 368.054688 C 476.652344 368.738281 476.265625 369.457031 475.953125 370.214844 C 475.636719 370.976562 475.398438 371.757812 475.238281 372.5625 C 475.078125 373.367188 475 374.179688 475 375 C 475 375.820312 475.078125 376.632812 475.238281 377.4375 C 475.398438 378.242188 475.636719 379.023438 475.953125 379.785156 C 476.265625 380.542969 476.652344 381.261719 477.105469 381.945312 C 477.5625 382.628906 478.082031 383.257812 478.660156 383.839844 C 479.242188 384.417969 479.871094 384.9375 480.554688 385.394531 C 481.238281 385.847656 481.957031 386.234375 482.714844 386.546875 C 483.476562 386.863281 484.257812 387.101562 485.0625 387.257812 C 485.867188 387.421875 486.679688 387.5 487.5 387.5 Z M 487.5 387.5 " fill-opacity="1" fill-rule="nonzero"/><path fill="#1e120b" d="M 162.5 625 L 162.5 675 C 162.5 675.820312 162.578125 676.632812 162.738281 677.4375 C 162.898438 678.242188 163.136719 679.023438 163.453125 679.785156 C 163.765625 680.542969 164.152344 681.261719 164.605469 681.945312 C 165.0625 682.628906 165.582031 683.257812 166.160156 683.839844 C 166.742188 684.417969 167.371094 684.9375 168.054688 685.394531 C 168.738281 685.847656 169.457031 686.234375 170.214844 686.546875 C 170.976562 686.863281 171.757812 687.097656 172.5625 687.257812 C 173.367188 687.417969 174.179688 687.5 175 687.5 L 412.5 687.5 C 413.320312 687.5 414.132812 687.417969 414.9375 687.257812 C 415.742188 687.097656 416.523438 686.863281 417.285156 686.546875 C 418.042969 686.234375 418.761719 685.847656 419.445312 685.394531 C 420.125 684.9375 420.757812 684.417969 421.339844 683.839844 C 421.917969 683.257812 422.4375 682.628906 422.894531 681.945312 C 423.347656 681.261719 423.734375 680.542969 424.046875 679.785156 C 424.363281 679.023438 424.597656 678.242188 424.757812 677.4375 C 424.917969 676.632812 425 675.820312 425 675 L 425 625 C 425 624.179688 424.917969 623.367188 424.757812 622.5625 C 424.597656 621.757812 424.363281 620.976562 424.046875 620.214844 C 423.734375 619.457031 423.347656 618.738281 422.894531 618.054688 C 422.4375 617.371094 421.917969 616.742188 421.339844 616.160156 C 420.757812 615.582031 420.128906 615.0625 419.445312 614.605469 C 418.761719 614.152344 418.042969 613.765625 417.285156 613.453125 C 416.523438 613.136719 415.742188 612.898438 414.9375 612.738281 C 414.132812 612.578125 413.320312 612.5 412.5 612.5 L 175 612.5 C 174.179688 612.5 173.367188 612.578125 172.5625 612.738281 C 171.757812 612.898438 170.976562 613.136719 170.214844 613.453125 C 169.457031 613.765625 168.738281 614.152344 168.054688 614.605469 C 167.371094 615.0625 166.742188 615.582031 166.160156 616.160156 C 165.582031 616.742188 165.0625 617.371094 164.605469 618.054688 C 164.152344 618.738281 163.765625 619.457031 163.453125 620.214844 C 163.136719 620.976562 162.898438 621.757812 162.738281 622.5625 C 162.578125 623.367188 162.5 624.179688 162.5 625 Z M 187.5 637.5 L 400 637.5 L 400 662.5 L 187.5 662.5 Z M 187.5 637.5 " fill-opacity="1" fill-rule="nonzero"/><path fill="#1e120b" d="M 712.5 150 L 687.5 150 L 687.5 87.5 C 687.5 86.679688 687.417969 85.867188 687.257812 85.0625 C 687.097656 84.257812 686.863281 83.476562 686.546875 82.714844 C 686.234375 81.957031 685.847656 81.238281 685.394531 80.554688 C 684.9375 79.871094 684.417969 79.242188 683.839844 78.660156 C 683.257812 78.082031 682.628906 77.5625 681.945312 77.105469 C 681.261719 76.652344 680.542969 76.265625 679.785156 75.953125 C 679.023438 75.636719 678.242188 75.398438 677.4375 75.238281 C 676.632812 75.078125 675.820312 75 675 75 L 600 75 L 600 12.5 C 600 11.679688 599.917969 10.867188 599.757812 10.0625 C 599.597656 9.257812 599.363281 8.476562 599.046875 7.714844 C 598.734375 6.957031 598.347656 6.238281 597.894531 5.554688 C 597.4375 4.871094 596.917969 4.242188 596.339844 3.660156 C 595.757812 3.082031 595.125 2.5625 594.445312 2.105469 C 593.761719 1.652344 593.042969 1.265625 592.285156 0.953125 C 591.523438 0.636719 590.742188 0.398438 589.9375 0.238281 C 589.132812 0.0820312 588.320312 0 587.5 0 L 62.5 0 C 61.679688 0 60.867188 0.0820312 60.0625 0.238281 C 59.257812 0.398438 58.476562 0.636719 57.714844 0.953125 C 56.957031 1.265625 56.238281 1.652344 55.554688 2.105469 C 54.871094 2.5625 54.242188 3.082031 53.660156 3.660156 C 53.082031 4.242188 52.5625 4.871094 52.105469 5.554688 C 51.652344 6.238281 51.265625 6.957031 50.953125 7.714844 C 50.636719 8.476562 50.398438 9.257812 50.238281 10.0625 C 50.078125 10.867188 50 11.679688 50 12.5 L 50 150 L 46.015625 150 C 20.640625 150 0 172.4375 0 200 L 0 698.984375 C 0 727.109375 20.984375 750 46.765625 750 L 705.171875 750 C 729.890625 750 750 727.125 750 698.984375 L 750 187.5 C 750 186.273438 749.941406 185.046875 749.820312 183.824219 C 749.699219 182.601562 749.519531 181.386719 749.28125 180.183594 C 749.039062 178.980469 748.742188 177.789062 748.386719 176.613281 C 748.027344 175.4375 747.617188 174.285156 747.144531 173.148438 C 746.675781 172.015625 746.152344 170.90625 745.570312 169.824219 C 744.992188 168.738281 744.363281 167.6875 743.679688 166.667969 C 742.996094 165.644531 742.265625 164.660156 741.488281 163.710938 C 740.707031 162.761719 739.886719 161.851562 739.015625 160.984375 C 738.148438 160.113281 737.238281 159.292969 736.289062 158.511719 C 735.339844 157.734375 734.355469 157.003906 733.332031 156.320312 C 732.3125 155.636719 731.261719 155.007812 730.175781 154.429688 C 729.09375 153.847656 727.984375 153.324219 726.851562 152.855469 C 725.714844 152.382812 724.5625 151.972656 723.386719 151.613281 C 722.210938 151.257812 721.019531 150.960938 719.816406 150.71875 C 718.609375 150.480469 717.398438 150.300781 716.175781 150.179688 C 714.953125 150.058594 713.726562 150 712.5 150 Z M 712.5 175 C 713.320312 175 714.132812 175.078125 714.9375 175.238281 C 715.742188 175.398438 716.523438 175.636719 717.285156 175.953125 C 718.042969 176.265625 718.761719 176.652344 719.445312 177.105469 C 720.125 177.5625 720.757812 178.082031 721.339844 178.660156 C 721.917969 179.242188 722.4375 179.871094 722.894531 180.554688 C 723.347656 181.238281 723.734375 181.957031 724.046875 182.714844 C 724.363281 183.476562 724.597656 184.257812 724.757812 185.0625 C 724.917969 185.867188 725 186.679688 725 187.5 L 725 250 L 687.5 250 L 687.5 175 Z M 662.5 250 L 404.484375 250 C 403.160156 249.988281 401.882812 249.726562 400.65625 249.222656 C 399.429688 248.71875 398.339844 248.003906 397.390625 247.078125 L 304.6875 159.71875 C 303.066406 158.175781 301.3125 156.796875 299.429688 155.589844 C 297.546875 154.378906 295.566406 153.359375 293.488281 152.527344 C 291.410156 151.695312 289.273438 151.066406 287.074219 150.640625 C 284.878906 150.214844 282.660156 150.003906 280.421875 150 L 162.5 150 L 162.5 100 L 662.5 100 Z M 25 698.984375 L 25 200 C 25 186.21875 34.375 175 46.015625 175 L 50 175 L 50 687.5 C 50 688.320312 50.078125 689.132812 50.238281 689.9375 C 50.398438 690.742188 50.636719 691.523438 50.953125 692.285156 C 51.265625 693.042969 51.652344 693.761719 52.105469 694.445312 C 52.5625 695.125 53.082031 695.757812 53.660156 696.339844 C 54.242188 696.917969 54.871094 697.4375 55.554688 697.894531 C 56.238281 698.347656 56.957031 698.734375 57.714844 699.046875 C 58.476562 699.363281 59.257812 699.597656 60.0625 699.757812 C 60.867188 699.917969 61.679688 700 62.5 700 L 100.09375 700 C 100.164062 704.359375 100.738281 708.652344 101.820312 712.875 C 102.898438 717.101562 104.453125 721.140625 106.484375 725 L 46.765625 725 C 34.765625 725 25 713.328125 25 698.984375 Z M 725 698.984375 C 725 713.046875 715.921875 725 705.171875 725 L 144.828125 725 C 134.078125 725 125 713.09375 125 698.984375 L 125 487.5 C 125 486.679688 124.917969 485.867188 124.761719 485.0625 C 124.601562 484.257812 124.363281 483.476562 124.046875 482.714844 C 123.734375 481.957031 123.347656 481.238281 122.894531 480.554688 C 122.4375 479.871094 121.917969 479.242188 121.339844 478.660156 C 120.757812 478.082031 120.128906 477.5625 119.445312 477.105469 C 118.761719 476.652344 118.042969 476.265625 117.285156 475.953125 C 116.523438 475.636719 115.742188 475.398438 114.9375 475.238281 C 114.132812 475.078125 113.320312 475 112.5 475 C 111.679688 475 110.867188 475.078125 110.0625 475.238281 C 109.257812 475.398438 108.476562 475.636719 107.714844 475.953125 C 106.957031 476.265625 106.238281 476.652344 105.554688 477.105469 C 104.871094 477.5625 104.242188 478.082031 103.660156 478.660156 C 103.082031 479.242188 102.5625 479.871094 102.105469 480.554688 C 101.652344 481.238281 101.265625 481.957031 100.953125 482.714844 C 100.636719 483.476562 100.398438 484.257812 100.238281 485.0625 C 100.078125 485.867188 100 486.679688 100 487.5 L 100 675 L 75 675 L 75 25 L 575 25 L 575 75 L 150 75 C 149.179688 75 148.367188 75.078125 147.5625 75.238281 C 146.757812 75.398438 145.976562 75.636719 145.214844 75.953125 C 144.457031 76.265625 143.738281 76.652344 143.054688 77.105469 C 142.371094 77.5625 141.742188 78.082031 141.160156 78.660156 C 140.582031 79.242188 140.0625 79.871094 139.605469 80.554688 C 139.152344 81.238281 138.765625 81.957031 138.453125 82.714844 C 138.136719 83.476562 137.898438 84.257812 137.738281 85.0625 C 137.578125 85.867188 137.5 86.679688 137.5 87.5 L 137.5 150.765625 C 116.328125 154.421875 100 175 100 200 L 100 387.5 C 100 388.320312 100.078125 389.132812 100.238281 389.9375 C 100.398438 390.742188 100.636719 391.523438 100.953125 392.285156 C 101.265625 393.042969 101.652344 393.761719 102.105469 394.445312 C 102.5625 395.128906 103.082031 395.757812 103.660156 396.339844 C 104.242188 396.917969 104.871094 397.4375 105.554688 397.894531 C 106.238281 398.347656 106.957031 398.734375 107.714844 399.046875 C 108.476562 399.363281 109.257812 399.597656 110.0625 399.757812 C 110.867188 399.917969 111.679688 400 112.5 400 C 113.320312 400 114.132812 399.917969 114.9375 399.757812 C 115.742188 399.597656 116.523438 399.363281 117.285156 399.046875 C 118.042969 398.734375 118.761719 398.347656 119.445312 397.894531 C 120.128906 397.4375 120.757812 396.917969 121.339844 396.339844 C 121.917969 395.757812 122.4375 395.128906 122.894531 394.445312 C 123.347656 393.761719 123.734375 393.042969 124.046875 392.285156 C 124.363281 391.523438 124.601562 390.742188 124.761719 389.9375 C 124.917969 389.132812 125 388.320312 125 387.5 L 125 200 C 125 186.453125 133.765625 175 144.125 175 L 280.421875 175 C 281.746094 175.011719 283.023438 175.273438 284.25 175.777344 C 285.476562 176.28125 286.566406 176.996094 287.515625 177.921875 L 380.25 265.28125 C 381.867188 266.824219 383.617188 268.199219 385.5 269.40625 C 387.378906 270.617188 389.359375 271.636719 391.433594 272.46875 C 393.507812 273.300781 395.644531 273.929688 397.839844 274.355469 C 400.035156 274.78125 402.25 274.996094 404.484375 275 L 725 275 Z M 725 698.984375 " fill-opacity="1" fill-rule="nonzero"/><path fill="#1e120b" d="M 375 162.5 L 625 162.5 C 625.820312 162.5 626.632812 162.421875 627.4375 162.261719 C 628.242188 162.101562 629.023438 161.863281 629.785156 161.546875 C 630.542969 161.234375 631.261719 160.847656 631.945312 160.394531 C 632.625 159.9375 633.257812 159.417969 633.839844 158.839844 C 634.417969 158.257812 634.9375 157.628906 635.394531 156.945312 C 635.847656 156.261719 636.234375 155.542969 636.546875 154.785156 C 636.863281 154.023438 637.097656 153.242188 637.257812 152.4375 C 637.417969 151.632812 637.5 150.820312 637.5 150 C 637.5 149.179688 637.417969 148.367188 637.257812 147.5625 C 637.097656 146.757812 636.863281 145.976562 636.546875 145.214844 C 636.234375 144.457031 635.847656 143.738281 635.394531 143.054688 C 634.9375 142.371094 634.417969 141.742188 633.839844 141.160156 C 633.257812 140.582031 632.625 140.0625 631.945312 139.605469 C 631.261719 139.152344 630.542969 138.765625 629.785156 138.453125 C 629.023438 138.136719 628.242188 137.898438 627.4375 137.738281 C 626.632812 137.578125 625.820312 137.5 625 137.5 L 375 137.5 C 374.179688 137.5 373.367188 137.578125 372.5625 137.738281 C 371.757812 137.898438 370.976562 138.136719 370.214844 138.453125 C 369.457031 138.765625 368.738281 139.152344 368.054688 139.605469 C 367.371094 140.0625 366.742188 140.582031 366.160156 141.160156 C 365.582031 141.742188 365.0625 142.371094 364.605469 143.054688 C 364.152344 143.738281 363.765625 144.457031 363.453125 145.214844 C 363.136719 145.976562 362.898438 146.757812 362.738281 147.5625 C 362.578125 148.367188 362.5 149.179688 362.5 150 C 362.5 150.820312 362.578125 151.632812 362.738281 152.4375 C 362.898438 153.242188 363.136719 154.023438 363.453125 154.785156 C 363.765625 155.542969 364.152344 156.261719 364.605469 156.945312 C 365.0625 157.628906 365.582031 158.257812 366.160156 158.839844 C 366.742188 159.417969 367.371094 159.9375 368.054688 160.394531 C 368.738281 160.847656 369.457031 161.234375 370.214844 161.546875 C 370.976562 161.863281 371.757812 162.101562 372.5625 162.261719 C 373.367188 162.421875 374.179688 162.5 375 162.5 Z M 375 162.5 " fill-opacity="1" fill-rule="nonzero"/><path fill="#1e120b" d="M 625 187.5 L 437.5 187.5 C 436.679688 187.5 435.867188 187.578125 435.0625 187.738281 C 434.257812 187.898438 433.476562 188.136719 432.714844 188.453125 C 431.957031 188.765625 431.238281 189.152344 430.554688 189.605469 C 429.871094 190.0625 429.242188 190.582031 428.660156 191.160156 C 428.082031 191.742188 427.5625 192.371094 427.105469 193.054688 C 426.652344 193.738281 426.265625 194.457031 425.953125 195.214844 C 425.636719 195.976562 425.398438 196.757812 425.238281 197.5625 C 425.078125 198.367188 425 199.179688 425 200 C 425 200.820312 425.078125 201.632812 425.238281 202.4375 C 425.398438 203.242188 425.636719 204.023438 425.953125 204.785156 C 426.265625 205.542969 426.652344 206.261719 427.105469 206.945312 C 427.5625 207.628906 428.082031 208.257812 428.660156 208.839844 C 429.242188 209.417969 429.871094 209.9375 430.554688 210.394531 C 431.238281 210.847656 431.957031 211.234375 432.714844 211.546875 C 433.476562 211.863281 434.257812 212.101562 435.0625 212.261719 C 435.867188 212.417969 436.679688 212.5 437.5 212.5 L 625 212.5 C 625.820312 212.5 626.632812 212.417969 627.4375 212.261719 C 628.242188 212.101562 629.023438 211.863281 629.785156 211.546875 C 630.542969 211.234375 631.261719 210.847656 631.945312 210.394531 C 632.625 209.9375 633.257812 209.417969 633.839844 208.839844 C 634.417969 208.257812 634.9375 207.628906 635.394531 206.945312 C 635.847656 206.261719 636.234375 205.542969 636.546875 204.785156 C 636.863281 204.023438 637.097656 203.242188 637.257812 202.4375 C 637.417969 201.632812 637.5 200.820312 637.5 200 C 637.5 199.179688 637.417969 198.367188 637.257812 197.5625 C 637.097656 196.757812 636.863281 195.976562 636.546875 195.214844 C 636.234375 194.457031 635.847656 193.738281 635.394531 193.054688 C 634.9375 192.371094 634.417969 191.742188 633.839844 191.160156 C 633.257812 190.582031 632.625 190.0625 631.945312 189.605469 C 631.261719 189.152344 630.542969 188.765625 629.785156 188.453125 C 629.023438 188.136719 628.242188 187.898438 627.4375 187.738281 C 626.632812 187.578125 625.820312 187.5 625 187.5 Z M 625 187.5 " fill-opacity="1" fill-rule="nonzero"/><path fill="#1e120b" d="M 125 437.5 C 125 438.320312 124.917969 439.132812 124.761719 439.9375 C 124.601562 440.742188 124.363281 441.523438 124.046875 442.285156 C 123.734375 443.042969 123.347656 443.761719 122.894531 444.445312 C 122.4375 445.128906 121.917969 445.757812 121.339844 446.339844 C 120.757812 446.917969 120.128906 447.4375 119.445312 447.894531 C 118.761719 448.347656 118.042969 448.734375 117.285156 449.046875 C 116.523438 449.363281 115.742188 449.597656 114.9375 449.757812 C 114.132812 449.917969 113.320312 450 112.5 450 C 111.679688 450 110.867188 449.917969 110.0625 449.757812 C 109.257812 449.597656 108.476562 449.363281 107.714844 449.046875 C 106.957031 448.734375 106.238281 448.347656 105.554688 447.894531 C 104.871094 447.4375 104.242188 446.917969 103.660156 446.339844 C 103.082031 445.757812 102.5625 445.128906 102.105469 444.445312 C 101.652344 443.761719 101.265625 443.042969 100.953125 442.285156 C 100.636719 441.523438 100.398438 440.742188 100.238281 439.9375 C 100.078125 439.132812 100 438.320312 100 437.5 C 100 436.679688 100.078125 435.867188 100.238281 435.0625 C 100.398438 434.257812 100.636719 433.476562 100.953125 432.714844 C 101.265625 431.957031 101.652344 431.238281 102.105469 430.554688 C 102.5625 429.871094 103.082031 429.242188 103.660156 428.660156 C 104.242188 428.082031 104.871094 427.5625 105.554688 427.105469 C 106.238281 426.652344 106.957031 426.265625 107.714844 425.953125 C 108.476562 425.636719 109.257812 425.398438 110.0625 425.238281 C 110.867188 425.078125 111.679688 425 112.5 425 C 113.320312 425 114.132812 425.078125 114.9375 425.238281 C 115.742188 425.398438 116.523438 425.636719 117.285156 425.953125 C 118.042969 426.265625 118.761719 426.652344 119.445312 427.105469 C 120.128906 427.5625 120.757812 428.082031 121.339844 428.660156 C 121.917969 429.242188 122.4375 429.871094 122.894531 430.554688 C 123.347656 431.238281 123.734375 431.957031 124.046875 432.714844 C 124.363281 433.476562 124.601562 434.257812 124.761719 435.0625 C 124.917969 435.867188 125 436.679688 125 437.5 Z M 125 437.5 " fill-opacity="1" fill-rule="nonzero"/></svg>