<svg xmlns="http://www.w3.org/2000/svg" xmlns:xlink="http://www.w3.org/1999/xlink" width="1000" zoomAndPan="magnify" viewBox="0 0 750 749.999995" height="1000" preserveAspectRatio="xMidYMid meet" version="1.0"><path fill="#004aad" d="M 630.082031 150.074219 C 625.359375 150.074219 620.914062 147.851562 618.082031 144.074219 L 573.078125 84.070312 C 568.109375 77.445312 569.453125 68.042969 576.082031 63.074219 C 582.710938 58.101562 592.109375 59.445312 597.078125 66.070312 L 630.082031 110.074219 L 663.082031 66.070312 C 668.054688 59.445312 677.453125 58.101562 684.082031 63.074219 C 690.707031 68.042969 692.050781 77.445312 687.082031 84.070312 L 642.082031 144.074219 C 639.246094 147.851562 634.800781 150.074219 630.082031 150.074219 Z M 630.082031 150.074219 " fill-opacity="1" fill-rule="nonzero"/><path fill="#004aad" d="M 675.09375 330.078125 C 670.53125 330.078125 666.027344 328.003906 663.082031 324.074219 L 630.082031 280.078125 L 597.078125 324.074219 C 592.105469 330.703125 582.703125 332.046875 576.082031 327.074219 C 569.453125 322.105469 568.109375 312.703125 573.078125 306.074219 L 618.082031 246.074219 C 620.914062 242.296875 625.359375 240.074219 630.082031 240.074219 C 634.800781 240.074219 639.246094 242.296875 642.082031 246.074219 L 687.082031 306.074219 C 692.050781 312.703125 690.707031 322.105469 684.082031 327.074219 C 681.382812 329.097656 678.226562 330.078125 675.09375 330.078125 Z M 675.09375 330.078125 " fill-opacity="1" fill-rule="nonzero"/><path fill="#004aad" d="M 630.082031 690.082031 C 625.359375 690.082031 620.914062 687.859375 618.082031 684.082031 L 573.078125 624.082031 C 568.109375 617.453125 569.453125 608.054688 576.082031 603.082031 C 582.710938 598.109375 592.109375 599.453125 597.078125 606.082031 L 630.082031 650.082031 L 663.082031 606.082031 C 668.054688 599.453125 677.453125 598.109375 684.082031 603.082031 C 690.707031 608.054688 692.050781 617.453125 687.082031 624.082031 L 642.082031 684.082031 C 639.246094 687.859375 634.800781 690.082031 630.082031 690.082031 Z M 630.082031 690.082031 " fill-opacity="1" fill-rule="nonzero"/><path fill="#004aad" d="M 735.082031 210.074219 L 525.078125 210.074219 C 516.792969 210.074219 510.074219 203.359375 510.074219 195.074219 L 510.074219 15.070312 C 510.074219 6.785156 516.792969 0.0703125 525.078125 0.0703125 L 705.078125 0.0703125 C 729.894531 0.0703125 750.082031 20.257812 750.082031 45.070312 L 750.082031 195.074219 C 750.082031 203.359375 743.363281 210.074219 735.082031 210.074219 Z M 540.078125 180.074219 L 720.082031 180.074219 L 720.082031 45.070312 C 720.082031 36.800781 713.351562 30.070312 705.078125 30.070312 L 540.078125 30.070312 Z M 540.078125 180.074219 " fill-opacity="1" fill-rule="nonzero"/><path fill="#004aad" d="M 525.078125 210.074219 L 15.070312 210.074219 C 6.785156 210.074219 0.0703125 203.359375 0.0703125 195.074219 L 0.0703125 45.070312 C 0.0703125 20.257812 20.257812 0.0703125 45.070312 0.0703125 L 525.078125 0.0703125 C 533.363281 0.0703125 540.078125 6.785156 540.078125 15.070312 L 540.078125 195.074219 C 540.078125 203.359375 533.359375 210.074219 525.078125 210.074219 Z M 30.070312 180.074219 L 510.078125 180.074219 L 510.078125 30.070312 L 45.070312 30.070312 C 36.800781 30.070312 30.070312 36.800781 30.070312 45.070312 Z M 30.070312 180.074219 " fill-opacity="1" fill-rule="nonzero"/><path fill="#004aad" d="M 705.078125 750.082031 L 525.078125 750.082031 C 516.792969 750.082031 510.074219 743.367188 510.074219 735.082031 L 510.074219 195.074219 C 510.074219 186.789062 516.792969 180.074219 525.078125 180.074219 L 735.082031 180.074219 C 743.367188 180.074219 750.082031 186.789062 750.082031 195.074219 L 750.082031 705.082031 C 750.082031 729.894531 729.894531 750.082031 705.078125 750.082031 Z M 540.078125 720.082031 L 705.082031 720.082031 C 713.351562 720.082031 720.082031 713.351562 720.082031 705.082031 L 720.082031 210.074219 L 540.078125 210.074219 Z M 540.078125 720.082031 " fill-opacity="1" fill-rule="nonzero"/><path fill="#004aad" d="M 525.078125 750.082031 L 45.070312 750.082031 C 20.257812 750.082031 0.0703125 729.894531 0.0703125 705.082031 L 0.0703125 195.074219 C 0.0703125 186.789062 6.785156 180.074219 15.070312 180.074219 C 23.355469 180.074219 30.070312 186.789062 30.070312 195.074219 L 30.070312 705.082031 C 30.070312 713.351562 36.796875 720.082031 45.070312 720.082031 L 525.078125 720.082031 C 533.359375 720.082031 540.078125 726.800781 540.078125 735.082031 C 540.078125 743.367188 533.359375 750.082031 525.078125 750.082031 Z M 525.078125 750.082031 " fill-opacity="1" fill-rule="nonzero"/><path fill="#004aad" d="M 465.074219 270.074219 L 75.070312 270.074219 C 66.785156 270.074219 60.070312 263.359375 60.070312 255.074219 C 60.070312 246.789062 66.785156 240.074219 75.070312 240.074219 L 465.074219 240.074219 C 473.359375 240.074219 480.074219 246.789062 480.074219 255.074219 C 480.074219 263.359375 473.359375 270.074219 465.074219 270.074219 Z M 465.074219 270.074219 " fill-opacity="1" fill-rule="nonzero"/><path fill="#004aad" d="M 465.074219 330.074219 L 75.070312 330.074219 C 66.785156 330.074219 60.070312 323.359375 60.070312 315.074219 C 60.070312 306.789062 66.785156 300.074219 75.070312 300.074219 L 465.074219 300.074219 C 473.359375 300.074219 480.074219 306.789062 480.074219 315.074219 C 480.074219 323.359375 473.359375 330.074219 465.074219 330.074219 Z M 465.074219 330.074219 " fill-opacity="1" fill-rule="nonzero"/><path fill="#004aad" d="M 465.074219 390.078125 L 75.070312 390.078125 C 66.785156 390.078125 60.070312 383.359375 60.070312 375.074219 C 60.070312 366.792969 66.785156 360.078125 75.070312 360.078125 L 465.074219 360.078125 C 473.359375 360.078125 480.074219 366.792969 480.074219 375.074219 C 480.074219 383.359375 473.359375 390.078125 465.074219 390.078125 Z M 465.074219 390.078125 " fill-opacity="1" fill-rule="nonzero"/><path fill="#004aad" d="M 465.074219 450.078125 L 75.070312 450.078125 C 66.785156 450.078125 60.070312 443.359375 60.070312 435.074219 C 60.070312 426.792969 66.785156 420.074219 75.070312 420.074219 L 465.074219 420.074219 C 473.359375 420.074219 480.074219 426.792969 480.074219 435.074219 C 480.074219 443.359375 473.359375 450.078125 465.074219 450.078125 Z M 465.074219 450.078125 " fill-opacity="1" fill-rule="nonzero"/><path fill="#004aad" d="M 465.074219 510.078125 L 75.070312 510.078125 C 66.785156 510.078125 60.070312 503.359375 60.070312 495.078125 C 60.070312 486.792969 66.785156 480.074219 75.070312 480.074219 L 465.074219 480.074219 C 473.359375 480.074219 480.074219 486.792969 480.074219 495.078125 C 480.074219 503.359375 473.359375 510.078125 465.074219 510.078125 Z M 465.074219 510.078125 " fill-opacity="1" fill-rule="nonzero"/><path fill="#004aad" d="M 465.074219 570.078125 L 75.070312 570.078125 C 66.785156 570.078125 60.070312 563.363281 60.070312 555.078125 C 60.070312 546.792969 66.785156 540.078125 75.070312 540.078125 L 465.074219 540.078125 C 473.359375 540.078125 480.074219 546.792969 480.074219 555.078125 C 480.074219 563.363281 473.359375 570.078125 465.074219 570.078125 Z M 465.074219 570.078125 " fill-opacity="1" fill-rule="nonzero"/><path fill="#004aad" d="M 465.074219 630.082031 L 75.070312 630.082031 C 66.785156 630.082031 60.070312 623.363281 60.070312 615.078125 C 60.070312 606.796875 66.785156 600.078125 75.070312 600.078125 L 465.074219 600.078125 C 473.359375 600.078125 480.074219 606.796875 480.074219 615.078125 C 480.074219 623.363281 473.359375 630.082031 465.074219 630.082031 Z M 465.074219 630.082031 " fill-opacity="1" fill-rule="nonzero"/><path fill="#004aad" d="M 465.074219 690.082031 L 75.070312 690.082031 C 66.785156 690.082031 60.070312 683.367188 60.070312 675.082031 C 60.070312 666.796875 66.785156 660.082031 75.070312 660.082031 L 465.074219 660.082031 C 473.359375 660.082031 480.074219 666.796875 480.074219 675.082031 C 480.074219 683.363281 473.359375 690.082031 465.074219 690.082031 Z M 465.074219 690.082031 " fill-opacity="1" fill-rule="nonzero"/><path fill="#004aad" d="M 465.074219 150.074219 L 75.070312 150.074219 C 66.785156 150.074219 60.070312 143.359375 60.070312 135.074219 L 60.070312 75.070312 C 60.070312 66.785156 66.785156 60.070312 75.070312 60.070312 L 465.074219 60.070312 C 473.359375 60.070312 480.074219 66.785156 480.074219 75.070312 L 480.074219 135.070312 C 480.074219 143.355469 473.359375 150.074219 465.074219 150.074219 Z M 90.070312 120.070312 L 450.074219 120.070312 L 450.074219 90.070312 L 90.070312 90.070312 Z M 90.070312 120.070312 " fill-opacity="1" fill-rule="nonzero"/><path fill="#004aad" d="M 630.082031 600.078125 C 621.796875 600.078125 615.078125 593.363281 615.078125 585.078125 L 615.078125 345.078125 C 615.078125 336.792969 621.792969 330.078125 630.082031 330.078125 C 638.363281 330.078125 645.082031 336.792969 645.082031 345.078125 L 645.082031 585.078125 C 645.078125 593.363281 638.363281 600.078125 630.082031 600.078125 Z M 630.082031 600.078125 " fill-opacity="1" fill-rule="nonzero"/></svg>